<svg xmlns="http://www.w3.org/2000/svg" width="512" height="512" viewBox="0 0 512 512">
  <defs>
    <linearGradient id="plank" x1="0" y1="0" x2="0" y2="1">
      <stop offset="0%" stop-color="#d8a763"/>
      <stop offset="100%" stop-color="#b3823f"/>
    </linearGradient>
  </defs>
  <rect width="512" height="512" fill="#c39456"/>
  <g stroke="#8b5a26" stroke-width="2" fill="url(#plank)">
    <rect x="0"   y="0"   width="512" height="64"/>
    <rect x="0"   y="64"  width="512" height="64"/>
    <rect x="0"   y="128" width="512" height="64"/>
    <rect x="0"   y="192" width="512" height="64"/>
    <rect x="0"   y="256" width="512" height="64"/>
    <rect x="0"   y="320" width="512" height="64"/>
    <rect x="0"   y="384" width="512" height="64"/>
    <rect x="0"   y="448" width="512" height="64"/>
  </g>
  <g stroke="#8b5a26" stroke-width="1" stroke-dasharray="40 80" stroke-opacity="0.5">
    <line x1="0" y1="32"  x2="512" y2="32"/>
    <line x1="0" y1="96"  x2="512" y2="96"/>
    <line x1="0" y1="160" x2="512" y2="160"/>
    <line x1="0" y1="224" x2="512" y2="224"/>
    <line x1="0" y1="288" x2="512" y2="288"/>
    <line x1="0" y1="352" x2="512" y2="352"/>
    <line x1="0" y1="416" x2="512" y2="416"/>
    <line x1="0" y1="480" x2="512" y2="480"/>
  </g>
</svg>
