<?xml version="1.0" encoding="UTF-8"?>
<svg id="Layer_1" xmlns="http://www.w3.org/2000/svg" width="518" height="370" version="1.1" viewBox="0 0 518 370">
  <!-- Generator: Adobe Illustrator 29.0.1, SVG Export Plug-In . SVG Version: 2.1.0 Build 192)  -->
  <path d="M436.192,236.226c9.5-1.9,14.6-8.5,14.6-16.1v-19.6c0-7.8-5.1-12.5-14.6-10.8s-14.6,8.3-14.6,16.1v19.6c0,7.8,5.1,12.5,14.6,10.8ZM431.992,203.726c0-2.4,1.4-4.4,4.1-4.9h.2c2.7-.5,4.1,1,4.1,3.4v19.6c0,2.4-1.4,4.4-4.1,4.9h-.2c-2.7.5-4.1-1-4.1-3.4v-19.6Z" fill="#333"/>
  <path d="M400.092,216.726l-16.3,21.5v6.8l29.1-5.1v-9.3l-10.7,1.9-3.9.7,9.7-12.7c3-4.1,4.9-6.9,4.9-12.5v-1.2c0-5.6-3.4-12-14.6-10-9.8,1.7-14.6,7.5-14.6,17.3v1l10.3-1.9c0-4.9,1.7-6.8,3.9-7.1l.5-.2c2.2-.3,3.9,1,3.9,4.6v.5c.2,2.4-.7,3.7-2.2,5.7Z" fill="#333"/>
  <path d="M413.192,261.626v-1.2c0-5.4-3.4-11.9-14.4-10-9.7,1.7-14.4,7.3-14.4,16.9v1l10.2-1.9c0-4.9,1.7-6.6,3.7-7.1l.5-.2c2.2-.3,3.7.8,3.7,4.6v.5c0,2.2-.8,3.6-2.4,5.6l-15.9,21.2v6.6l28.6-5.1v-9.1l-10,2.4-3.9.7,9.5-12.5c3.1-4.1,4.8-7,4.8-12.4Z" fill="#333"/>
  <path d="M21.592,162.026h-.2c0-.7-.2-1.2-.7-1.5-.3-.3-1-.5-1.5-.3l-17.4,3c-.5,0-.8,0-1.2-.2,0,.133.067.2.2.2l20.8,14.2v-15.4Z" fill="#333"/>
  <path d="M54.992,43.026l-29,5.1v22.3l29-5.1v-22.3Z" fill="#333"/>
  <path d="M516.592,211.526l-21.2-28.3c.3-1.2.5-2.2.5-3.4v-22.4c0-1.9-.3-3.6-1-5.2-.3-.8-.8-1.5-1.4-2.4-.2-.2-12.7-17.6-12.7-17.8l10.5-1.9c.7-.2,1.2-.3,1.5-.8s.7-1,.7-1.7v-14.6c0-.7-.2-1-.3-1.4l-33.7-49.5-.2-.2c.2.3.3.7.3,1.2v15.8c0,.7-.2,1.4-.7,1.7-.5.5-1,.8-1.7.8l-39.6,7.3c-.7.2-1.2.5-1.5,1-.3.5-.7,1.2-.7,1.9v10.3c0,.7.2,1.2.7,1.5.3.3,1,.5,1.5.3l30-5.2c2-.3,3.9-.3,5.6.2,1.7.5,3.2,1.2,4.6,2.4,1.4,1.2,2.4,2.5,3,4.2.8,1.7,1.2,3.6,1.2,5.6v23.9c0,2-.3,4.1-1.2,5.9-.8,2-1.9,3.7-3,5.2-1.4,1.5-2.9,2.9-4.6,4.1-1.7,1-3.6,1.9-5.6,2.2l-49.3,8.6c-1.5.3-2.4-.3-2.4-2v-15.4c0-.7.2-1.4.7-1.9s1-.8,1.7-1l42-7.5c.7-.2,1.2-.5,1.7-.8.5-.5.7-1,.7-1.7v-10.5c0-.7-.2-1.2-.7-1.5-.5-.3-1-.5-1.7-.3l-29.8,5.2c-2,.3-3.9.3-5.6-.2-1.7-.5-3.4-1.2-4.6-2.4-1.4-1.2-2.4-2.5-3-4.2-.7-1.7-1.2-3.6-1.2-5.6v-4.4c0-.2-.2-.3-.2-.3l-23-28.5-.2-.2c.2.3.3.7.3,1.2v16.8c0,.7-.2,1.4-.7,1.9s-1,.8-1.7,1l-41.3,7.3c-.7.2-1.2.5-1.7.8-.5.5-.7,1-.7,1.7v41.2c0,.7.2,1.2.7,1.5.5.3,1,.5,1.7.3l24.4-4.2c.7-.2,1.2-.3,1.5-.8.3-.5.7-1,.7-1.7v-22.5c0-.7.2-1.4.7-1.9s1-.8,1.7-1l17.1-3c.7-.2,1.2,0,1.7.3.5.3.7.8.7,1.5v31.3c0,2-.3,4.1-1.2,5.9-.8,2-1.9,3.7-3,5.2-1.4,1.5-2.9,2.9-4.6,4.1-1.7,1-3.6,1.9-5.6,2.2l-43.7,7.6c-2,.3-3.9.3-5.6-.2-1.7-.5-3.4-1.2-4.6-2.4-1.4-1.2-2.4-2.5-3-4.2-.7-1.7-1.2-3.6-1.2-5.6v-40.6l-22-23.3-.2-.2c.7.8,1.4,1.9,1.9,2.9.8,1.7,1.2,3.6,1.2,5.6v71.8c0,.7-.2,1.4-.7,1.9s-1,.8-1.7,1l-17.1,3c-.7.2-1.2,0-1.5-.3-.3-.3-.7-.8-.7-1.5v-63c0-.7-.2-1.2-.7-1.5-.5-.3-1-.5-1.7-.3l-24.4,4.2c-.7.2-1.2.5-1.7.8-.5.5-.7,1-.7,1.7v62.7c0,1.7-.8,2.5-2.4,2.9l-17.1,3c-1.5.3-2.4-.3-2.4-2v-84c0-1.7.8-2.5,2.4-2.9l42-7.5-18.6-19.1v-21.5c0-.7-.2-1.2-.5-1.5L187.892.926l-.2-.2c.2.3.3.7.3,1.4v62.7c0,.7.2,1.2.7,1.5.5.3,1,.5,1.7.3l31.7-5.6c.7-.2,1.2,0,1.5.3.3.3.7.8.7,1.5v16.8c0,.7-.2,1.4-.7,1.9-.3.5-1,.8-1.5,1l-53.3,9.3c-1.5.3-2.4-.3-2.4-2v-30.7c0-.2-.2-.3-.2-.3L118.092,13.126c-.133-.133-.233-.2-.3-.2.2.3.3.7.3,1.4v62.6c0,.7.2,1.2.7,1.5s1,.5,1.7.3l31.7-5.6c.7-.2,1.2,0,1.5.3.3.3.7.8.7,1.7v16.9c0,.7-.2,1.4-.7,1.9-.3.5-1,.8-1.5,1l-53.3,9.3c-1.7.3-2.5-.3-2.5-2v-56.9l-23.2-20.7c1,1,1.9,2.1,2.6,3.6.8,1.7,1.2,3.6,1.2,5.6v71.8c0,.7-.2,1.4-.7,1.9s-1,.8-1.7,1l-17.1,3c-.7.2-1.2,0-1.7-.3-.5-.3-.7-.8-.7-1.5v-22.9c0-.7-.2-1.2-.7-1.5-.3-.3-1-.5-1.5-.3l-24.4,4.2c-.7.2-1.2.5-1.7,1s-.7,1.2-.7,1.9v22.7c0,1.7-.8,2.5-2.4,2.9l-17.1,2.9c-.5.2-1,0-1.4-.2,0,.2.2.2.2.2,0,0,22,16.1,22,16.3.2.2.3,0,.3,0l35.1-6.3c.7-.2,1.2,0,1.7.3.5.3.7.8.7,1.5v17.3c0,.7-.2,1.4-.7,1.9-.5.5-1,.8-1.7,1l-17.4,3c-.7.2-1.2.5-1.7.8-.5.5-.7,1-.7,1.7v62.7c0,.7-.2,1.4-.7,1.9-.3.5-1,.8-1.5,1l-17.1,3c-.3,0-.8,0-1.2-.2l25.1,15.9c.2.2.3.2.5.2l13.9-2.4c2-.3,3.9-.3,5.6.2,1.7.5,3.2,1.4,4.6,2.4s2.4,2.5,3,4.2c.8,1.7,1.2,3.6,1.2,5.6v59.3c0,2-.3,4.1-1.2,5.9-.8,2-1.9,3.7-3,5.2-1.4,1.5-2.9,2.9-4.6,4.1-1.7,1-3.6,1.9-5.6,2.2l-43.7,7.6c-2,.3-3.9.3-5.6-.2-.8-.2-1.5-.5-2.2-.8.2.2,61.8,32,62,32,.8.5,1.7.8,2.7,1,1.7.3,3.4.5,5.2.2l40.8-7.3c1.9-.3,3.6-1,5.2-2,1.7-1,3-2.2,4.2-3.7s2.2-3.2,2.9-4.9c.7-1.9,1-3.7,1-5.6v-.8l18.8,11c.3.2.8.3,1.5.2l15.9-2.9c1.5-.3,2.2-1.2,2.2-2.7v-19.5c0-.7.2-1.2.7-1.7s1-.8,1.5-.8l25.7-4.6c1.9-.3,3.6-1,5.2-2l.2-.2.5.3,26.1,17.4c.8.5,1.7.8,2.7,1.2,1.7.5,3.4.5,5.2.2l46.1-8.1c.7-.2,1.2-.3,1.5-1,.5-.5.7-1,.7-1.7v-15.9l19.1,14.4c.3.2.8.3,1.4.2l15.9-2.9c1.5-.3,2.2-1.2,2.2-2.7v-26.3l24.9,20.5.2.2v-123.9c0-3,2.5-6.1,5.4-6.6l121.6-20.7c3-.5,5.4,1.5,5.4,4.7v124.7c0,3-2.4,6.1-5.4,6.6l-120.8,21.3c-.8.2-1.7.2-2.4-.2l.2.2.2.2,39,32c.8.8,2.2,1.2,3.6.8l112.8-19.8c2.7-.7,5.1-3.4,5.1-6.3v-116.2c.1-1-.3-2-.8-2.7ZM79.992,214.526v-84.3c0-1.7.8-2.5,2.4-2.9l17.1-3c1.5-.3,2.4.3,2.4,2v28.5c0,1.7.8,2.2,2.4,2l24.4-4.2c.7-.2,1.2-.5,1.5-1,.3-.5.7-1.2.7-1.9v-28.5c0-.7.2-1.4.7-1.9s1-.8,1.7-1l17.1-3c.7-.2,1.2,0,1.7.3.5.3.7.8.7,1.5v84.5h.2c0,.7-.2,1.4-.7,1.9s-1,.8-1.7,1l-17.1,3c-.7.2-1.2,0-1.7-.3s-.7-.8-.7-1.5v-29.5c0-.7-.2-1.2-.7-1.5-.3-.3-1-.5-1.5-.3l-24.6,4.1c-.7.2-1.2.5-1.7,1s-.7,1-.7,1.7v29.5c0,1.7-.8,2.5-2.4,2.9l-17.1,3c-1.5.3-2.4-.4-2.4-2.1ZM161.992,271.626c0,2-.3,4.1-1.2,5.9-.8,2-1.9,3.7-3,5.2-1.4,1.5-2.9,2.9-4.6,4.1-1.7,1.2-3.6,1.9-5.6,2.2l-27.4,4.9c-.7.2-1.2.5-1.7.8-.5.5-.7,1-.7,1.7v20.8c0,1.7-.8,2.5-2.4,2.9l-17.1,3c-1.5.3-2.4-.3-2.4-2v-84.2c0-1.7.8-2.5,2.4-2.9l49.3-8.6c2-.3,3.9-.3,5.6.2,1.7.5,3.2,1.4,4.6,2.4s2.4,2.5,3,4.2c.8,1.7,1.2,3.6,1.2,5.6v33.8ZM174.692,200.326c-1.5.3-2.4-.3-2.4-2v-84.4c0-1.7.8-2.5,2.4-2.9l17.1-3c1.5-.3,2.4.3,2.4,2v84.3c0,1.7-.8,2.5-2.4,2.9l-17.1,3.1ZM241.892,227.226c0,.7-.2,1.4-.7,1.7-.5.5-1,.8-1.7.8l-41.3,7.3c-.3,0-.7.3-.7.7v13.9c0,.3.2.5.7.3l35.2-6.3c.7-.2,1.2,0,1.7.3s.7.8.7,1.5v12.7c0,1.7-.8,2.5-2.4,2.9l-35.2,6.3c-.3,0-.7.3-.7.7v13.7c0,.5.2.7.7.5l41.3-7.3c.7-.2,1.2,0,1.7.3.5.3.7.8.7,1.5v16.6c0,.7-.2,1.4-.7,1.9s-1,.8-1.7,1l-49.3,8.6c-2,.3-3.9.3-5.6-.2s-3.4-1.2-4.6-2.4c-1.4-1.2-2.4-2.5-3-4.2-.7-1.7-1.2-3.6-1.2-5.6v-59.3c0-2,.3-4.1,1.2-5.9.7-2,1.7-3.7,3-5.2,1.4-1.5,2.9-2.9,4.6-4.1s3.6-1.9,5.6-2.2l49.3-8.6c.7-.2,1.2,0,1.7.3s.7.8.7,1.5v16.3ZM333.592,281.126c-.5.5-1,.8-1.7,1l-17.1,3c-.7.2-1.2,0-1.5-.3-.3-.3-.7-.8-.7-1.7v-62.7c0-.7-.2-1.2-.7-1.5s-1-.5-1.7-.3l-24.4,4.2c-.7.2-1.2.5-1.7,1s-.7,1-.7,1.7v62.7c0,1.7-.8,2.5-2.4,2.9l-17.1,3c-1.5.3-2.4-.3-2.4-2v-84.2c0-1.5.8-2.5,2.4-2.9l55.7-9.8c2-.3,3.9-.3,5.6.2,1.7.5,3.2,1.4,4.6,2.4.3.3.8.7,1.2,1.2.7.8,1.4,1.9,1.9,3,.8,1.7,1.2,3.6,1.2,5.6v71.6h.2c-.1.7-.2,1.4-.7,1.9Z" fill="#333"/>
  <path d="M73.092,24.726l-.2-.2c0,.2.1.2.2.2Z" fill="#333"/>
  <path d="M25.792,268.626v45.9l29-5.1v-45.9l-29,5.1Z" fill="#333"/>
  <path d="M116.892,273.726l24.1-4.3v-22.5l-24.1,4.2v22.6Z" fill="#333"/>
  <path d="M509.892,350.926c-4.1-.2-7.5,3.2-7.5,7.5,0,4.2,3.4,7.5,7.5,7.5,4.2,0,7.5-3.4,7.5-7.5s-3.5-7.5-7.5-7.5ZM509.892,364.626c-3.4,0-6.3-2.9-6.3-6.3,0-3.6,2.7-6.3,6.3-6.3s6.3,2.7,6.3,6.3c-.1,3.6-2.8,6.3-6.3,6.3Z" fill="#333"/>
  <path d="M512.892,356.826v-.5c0-1.5-1.2-2.5-2.7-2.5h-3.4v9h1.5v-3.4h1.9l1.5,3.4h1.5l-1.5-3.6c.7-.4,1.2-1.2,1.2-2.4ZM511.592,356.626c0,.8-.7,1.4-1.5,1.4h-1.8v-2.7h1.7c1-.2,1.5.3,1.5,1.2v.1h.1Z" fill="#333"/>
  <path d="M436.931,268.925l.286-.024c2.297-.2,4.136.852,4.136,4.267v1.159c0,3.125-2.125,4.99-4.365,5.186l-.343.031c-2.412.21-4.365-1.758-4.365-6.099v-1.505c1.147-1.951,3.101-2.874,4.654-3.01M449.738,241.008c-9.594.84-16.888,3.156-21.826,10.245-4.768,6.841-6.319,14.212-6.319,21.389v.809c0,9.899,5.112,16.337,15.221,15.454,10.283-.899,15.223-7.061,15.223-15.8v-.58c0-8.74-4.825-13.816-12.291-13.162-2.469.217-4.48,1.028-6.145,2.159.572-1.961,1.436-3.599,2.526-5.026,2.815-3.602,6.779-5.338,13.613-5.994v-9.491l-.002-.002Z" fill="#333"/>
</svg>