<?xml version="1.0" encoding="UTF-8"?>
<svg width="130" height="49" viewBox="0 0 130 49" fill="none" xmlns="http://www.w3.org/2000/svg">
<path d="M126.453 29.14V20.4783H129.484V31.8659H126.632L126.453 29.14ZM126.79 26.8036L127.685 26.7825C127.685 27.5403 127.597 28.2454 127.422 28.898C127.246 29.5435 126.983 30.1048 126.632 30.5819C126.281 31.052 125.839 31.4204 125.306 31.687C124.773 31.9466 124.145 32.0764 123.422 32.0764C122.868 32.0764 122.356 31.9992 121.886 31.8449C121.422 31.6835 121.023 31.4344 120.686 31.0976C120.356 30.7538 120.096 30.3153 119.907 29.782C119.725 29.2418 119.633 28.5928 119.633 27.835V20.4783H122.664V27.856C122.664 28.1928 122.703 28.477 122.78 28.7085C122.864 28.9401 122.98 29.1295 123.127 29.2769C123.275 29.4242 123.447 29.5294 123.643 29.5926C123.847 29.6557 124.071 29.6873 124.317 29.6873C124.941 29.6873 125.432 29.561 125.79 29.3084C126.155 29.0558 126.411 28.712 126.559 28.277C126.713 27.835 126.79 27.3438 126.79 26.8036Z" fill="#0038F0"/>
<path d="M113.319 32.0765C112.435 32.0765 111.642 31.9361 110.94 31.6555C110.239 31.3678 109.642 30.9714 109.151 30.4662C108.667 29.961 108.295 29.3751 108.035 28.7086C107.776 28.035 107.646 27.3193 107.646 26.5615V26.1406C107.646 25.2775 107.769 24.4882 108.014 23.7725C108.26 23.0568 108.611 22.4359 109.067 21.9097C109.53 21.3834 110.091 20.98 110.751 20.6993C111.41 20.4117 112.154 20.2678 112.982 20.2678C113.789 20.2678 114.505 20.4011 115.129 20.6678C115.753 20.9344 116.276 21.3133 116.697 21.8044C117.125 22.2956 117.448 22.8849 117.665 23.5726C117.883 24.2531 117.992 25.0109 117.992 25.8459V27.1088H108.941V25.0881H115.013V24.8566C115.013 24.4356 114.936 24.0602 114.782 23.7304C114.634 23.3936 114.41 23.127 114.108 22.9306C113.806 22.7341 113.421 22.6359 112.95 22.6359C112.55 22.6359 112.207 22.7236 111.919 22.899C111.631 23.0744 111.396 23.32 111.214 23.6357C111.038 23.9514 110.905 24.3233 110.814 24.7513C110.73 25.1723 110.688 25.6354 110.688 26.1406V26.5615C110.688 27.0176 110.751 27.4386 110.877 27.8245C111.01 28.2104 111.196 28.5437 111.435 28.8243C111.68 29.105 111.975 29.3225 112.319 29.4769C112.67 29.6312 113.066 29.7084 113.508 29.7084C114.055 29.7084 114.564 29.6032 115.034 29.3927C115.511 29.1752 115.922 28.8489 116.266 28.4139L117.739 30.0136C117.501 30.3574 117.174 30.6872 116.76 31.0029C116.353 31.3187 115.862 31.5783 115.287 31.7818C114.712 31.9782 114.055 32.0765 113.319 32.0765Z" fill="#0038F0"/>
<path d="M101.973 30.4032C101.973 29.9541 102.128 29.5787 102.436 29.277C102.752 28.9753 103.169 28.8245 103.689 28.8245C104.208 28.8245 104.622 28.9753 104.931 29.277C105.246 29.5787 105.404 29.9541 105.404 30.4032C105.404 30.8522 105.246 31.2276 104.931 31.5293C104.622 31.831 104.208 31.9819 103.689 31.9819C103.169 31.9819 102.752 31.831 102.436 31.5293C102.128 31.2276 101.973 30.8522 101.973 30.4032Z" fill="#0038F0"/>
<path d="M92.7113 22.9095V31.866H89.6802V20.4783H92.5218L92.7113 22.9095ZM92.2692 25.7722H91.4483C91.4483 24.9302 91.5571 24.1725 91.7746 23.4989C91.9921 22.8183 92.2973 22.2394 92.6902 21.7623C93.0831 21.2782 93.5497 20.9098 94.09 20.6572C94.6373 20.3976 95.2477 20.2678 95.9213 20.2678C96.4545 20.2678 96.9422 20.345 97.3842 20.4994C97.8262 20.6537 98.2051 20.8993 98.5209 21.2361C98.8436 21.5729 99.0892 22.0184 99.2576 22.5727C99.433 23.127 99.5207 23.8041 99.5207 24.604V31.866H96.4686V24.5934C96.4686 24.0883 96.3984 23.6953 96.2581 23.4147C96.1177 23.134 95.9108 22.9376 95.6371 22.8253C95.3705 22.706 95.0407 22.6464 94.6478 22.6464C94.2408 22.6464 93.8865 22.7271 93.5848 22.8885C93.2901 23.0498 93.0445 23.2744 92.8481 23.562C92.6586 23.8427 92.5148 24.1725 92.4166 24.5513C92.3183 24.9302 92.2692 25.3372 92.2692 25.7722Z" fill="#0038F0"/>
<path d="M77.0928 26.2879V26.0669C77.0928 25.2319 77.2121 24.4636 77.4506 23.762C77.6892 23.0533 78.0365 22.4394 78.4925 21.9202C78.9486 21.401 79.5099 20.9975 80.1765 20.7099C80.843 20.4152 81.6078 20.2678 82.4709 20.2678C83.3339 20.2678 84.1022 20.4152 84.7757 20.7099C85.4493 20.9975 86.0141 21.401 86.4702 21.9202C86.9333 22.4394 87.2841 23.0533 87.5227 23.762C87.7612 24.4636 87.8805 25.2319 87.8805 26.0669V26.2879C87.8805 27.1158 87.7612 27.8841 87.5227 28.5928C87.2841 29.2944 86.9333 29.9084 86.4702 30.4346C86.0141 30.9538 85.4528 31.3573 84.7863 31.6449C84.1197 31.9326 83.3549 32.0765 82.4919 32.0765C81.6289 32.0765 80.8606 31.9326 80.187 31.6449C79.5205 31.3573 78.9556 30.9538 78.4925 30.4346C78.0365 29.9084 77.6892 29.2944 77.4506 28.5928C77.2121 27.8841 77.0928 27.1158 77.0928 26.2879ZM80.1239 26.0669V26.2879C80.1239 26.765 80.166 27.2106 80.2502 27.6245C80.3344 28.0385 80.4677 28.4034 80.6501 28.7191C80.8395 29.0278 81.0851 29.2699 81.3868 29.4453C81.6885 29.6207 82.0569 29.7084 82.4919 29.7084C82.9129 29.7084 83.2742 29.6207 83.5759 29.4453C83.8776 29.2699 84.1197 29.0278 84.3021 28.7191C84.4846 28.4034 84.6179 28.0385 84.7021 27.6245C84.7933 27.2106 84.8389 26.765 84.8389 26.2879V26.0669C84.8389 25.6038 84.7933 25.1688 84.7021 24.7618C84.6179 24.3479 84.4811 23.983 84.2916 23.6673C84.1092 23.3445 83.8671 23.0919 83.5654 22.9095C83.2637 22.7271 82.8989 22.6359 82.4709 22.6359C82.0429 22.6359 81.678 22.7271 81.3763 22.9095C81.0816 23.0919 80.8395 23.3445 80.6501 23.6673C80.4677 23.983 80.3344 24.3479 80.2502 24.7618C80.166 25.1688 80.1239 25.6038 80.1239 26.0669Z" fill="#0038F0"/>
<path d="M71.0412 29.7084C71.413 29.7084 71.7428 29.6382 72.0305 29.4979C72.3182 29.3506 72.5427 29.1471 72.7041 28.8875C72.8725 28.6209 72.9602 28.3086 72.9672 27.9508H75.8194C75.8123 28.7507 75.5983 29.4628 75.1774 30.0873C74.7564 30.7047 74.1916 31.1924 73.4829 31.5502C72.7742 31.901 71.9814 32.0765 71.1043 32.0765C70.2203 32.0765 69.4485 31.9291 68.7889 31.6344C68.1364 31.3397 67.5926 30.9328 67.1576 30.4136C66.7226 29.8873 66.3963 29.2769 66.1788 28.5823C65.9613 27.8806 65.8525 27.1299 65.8525 26.33V26.0248C65.8525 25.2179 65.9613 24.4671 66.1788 23.7725C66.3963 23.0709 66.7226 22.4605 67.1576 21.9412C67.5926 21.415 68.1364 21.0045 68.7889 20.7099C69.4414 20.4152 70.2062 20.2678 71.0833 20.2678C72.0165 20.2678 72.8339 20.4467 73.5355 20.8046C74.2442 21.1624 74.7985 21.6746 75.1984 22.3412C75.6054 23.0007 75.8123 23.783 75.8194 24.6882H72.9672C72.9602 24.3093 72.8795 23.9655 72.7251 23.6568C72.5778 23.348 72.3603 23.1025 72.0726 22.92C71.7919 22.7306 71.4446 22.6359 71.0307 22.6359C70.5886 22.6359 70.2273 22.7306 69.9466 22.92C69.666 23.1025 69.4485 23.355 69.2941 23.6778C69.1397 23.9935 69.031 24.3549 68.9678 24.7618C68.9117 25.1618 68.8836 25.5828 68.8836 26.0248V26.33C68.8836 26.772 68.9117 27.1965 68.9678 27.6035C69.024 28.0104 69.1292 28.3718 69.2836 28.6875C69.4449 29.0033 69.666 29.2523 69.9466 29.4348C70.2273 29.6172 70.5921 29.7084 71.0412 29.7084Z" fill="#0038F0"/>
<path d="M53.686 26.2879V26.0669C53.686 25.2319 53.8053 24.4636 54.0439 23.762C54.2824 23.0533 54.6297 22.4394 55.0858 21.9202C55.5419 21.401 56.1032 20.9975 56.7698 20.7099C57.4363 20.4152 58.2011 20.2678 59.0641 20.2678C59.9271 20.2678 60.6954 20.4152 61.369 20.7099C62.0426 20.9975 62.6074 21.401 63.0635 21.9202C63.5266 22.4394 63.8774 23.0533 64.1159 23.762C64.3545 24.4636 64.4738 25.2319 64.4738 26.0669V26.2879C64.4738 27.1158 64.3545 27.8841 64.1159 28.5928C63.8774 29.2944 63.5266 29.9084 63.0635 30.4346C62.6074 30.9538 62.0461 31.3573 61.3795 31.6449C60.713 31.9326 59.9482 32.0765 59.0852 32.0765C58.2221 32.0765 57.4539 31.9326 56.7803 31.6449C56.1137 31.3573 55.5489 30.9538 55.0858 30.4346C54.6297 29.9084 54.2824 29.2944 54.0439 28.5928C53.8053 27.8841 53.686 27.1158 53.686 26.2879ZM56.7171 26.0669V26.2879C56.7171 26.765 56.7592 27.2106 56.8434 27.6245C56.9276 28.0385 57.0609 28.4034 57.2434 28.7191C57.4328 29.0278 57.6784 29.2699 57.9801 29.4453C58.2818 29.6207 58.6501 29.7084 59.0852 29.7084C59.5062 29.7084 59.8675 29.6207 60.1692 29.4453C60.4709 29.2699 60.713 29.0278 60.8954 28.7191C61.0778 28.4034 61.2111 28.0385 61.2953 27.6245C61.3866 27.2106 61.4322 26.765 61.4322 26.2879V26.0669C61.4322 25.6038 61.3866 25.1688 61.2953 24.7618C61.2111 24.3479 61.0743 23.983 60.8849 23.6673C60.7025 23.3445 60.4604 23.0919 60.1587 22.9095C59.857 22.7271 59.4921 22.6359 59.0641 22.6359C58.6361 22.6359 58.2713 22.7271 57.9696 22.9095C57.6749 23.0919 57.4328 23.3445 57.2434 23.6673C57.0609 23.983 56.9276 24.3479 56.8434 24.7618C56.7592 25.1688 56.7171 25.6038 56.7171 26.0669Z" fill="#0038F0"/>
<path d="M49.0657 20.4783H51.8127V31.4871C51.8127 32.5255 51.5811 33.4061 51.118 34.1288C50.662 34.8585 50.0235 35.4092 49.2026 35.7811C48.3816 36.16 47.4274 36.3494 46.3399 36.3494C45.8627 36.3494 45.3576 36.2863 44.8243 36.16C44.2981 36.0337 43.7929 35.8373 43.3088 35.5706C42.8316 35.304 42.4317 34.9672 42.109 34.5603L43.4456 32.7711C43.7964 33.178 44.2034 33.4938 44.6664 33.7183C45.1295 33.9498 45.6417 34.0656 46.203 34.0656C46.7503 34.0656 47.2134 33.9639 47.5923 33.7604C47.9712 33.5639 48.2624 33.2728 48.4658 32.8868C48.6693 32.508 48.771 32.0484 48.771 31.5081V23.1095L49.0657 20.4783ZM41.4038 26.309V26.0879C41.4038 25.2179 41.5091 24.4286 41.7195 23.7199C41.9371 23.0042 42.2423 22.3903 42.6352 21.8781C43.0351 21.3659 43.5193 20.9695 44.0876 20.6888C44.6559 20.4082 45.2979 20.2678 46.0136 20.2678C46.7714 20.2678 47.4064 20.4082 47.9186 20.6888C48.4307 20.9695 48.8517 21.3694 49.1815 21.8886C49.5113 22.4008 49.7674 23.0077 49.9498 23.7094C50.1392 24.404 50.2866 25.1653 50.3918 25.9932V26.4774C50.2866 27.2702 50.1287 28.0069 49.9182 28.6875C49.7077 29.3681 49.4306 29.9645 49.0868 30.4767C48.743 30.9819 48.315 31.3748 47.8028 31.6555C47.2976 31.9361 46.6942 32.0765 45.9925 32.0765C45.2909 32.0765 44.6559 31.9326 44.0876 31.6449C43.5263 31.3573 43.0456 30.9538 42.6457 30.4346C42.2458 29.9154 41.9371 29.305 41.7195 28.6033C41.5091 27.9017 41.4038 27.1369 41.4038 26.309ZM44.4349 26.0879V26.309C44.4349 26.7791 44.4805 27.2176 44.5717 27.6245C44.6629 28.0315 44.8033 28.3928 44.9927 28.7086C45.1892 29.0173 45.4312 29.2594 45.7189 29.4348C46.0136 29.6032 46.3609 29.6874 46.7608 29.6874C47.3151 29.6874 47.7677 29.5716 48.1185 29.34C48.4693 29.1015 48.7325 28.7752 48.9079 28.3613C49.0833 27.9473 49.185 27.4702 49.2131 26.9299V25.5512C49.199 25.1091 49.1394 24.7127 49.0342 24.3619C48.9289 24.0041 48.7816 23.6988 48.5921 23.4463C48.4027 23.1937 48.1571 22.9972 47.8554 22.8569C47.5537 22.7166 47.1959 22.6464 46.7819 22.6464C46.382 22.6464 46.0346 22.7376 45.74 22.92C45.4523 23.0954 45.2102 23.3375 45.0138 23.6462C44.8243 23.9549 44.6805 24.3198 44.5822 24.7408C44.484 25.1548 44.4349 25.6038 44.4349 26.0879Z" fill="#0038F0"/>
<path d="M32.742 22.9095V31.866H29.7109V20.4783H32.5526L32.742 22.9095ZM32.3 25.7722H31.4791C31.4791 24.9302 31.5878 24.1725 31.8053 23.4989C32.0228 22.8183 32.3281 22.2394 32.721 21.7623C33.1139 21.2782 33.5805 20.9098 34.1208 20.6572C34.668 20.3976 35.2785 20.2678 35.952 20.2678C36.4853 20.2678 36.9729 20.345 37.415 20.4994C37.857 20.6537 38.2359 20.8993 38.5516 21.2361C38.8744 21.5729 39.12 22.0184 39.2883 22.5727C39.4638 23.127 39.5515 23.8041 39.5515 24.604V31.866H36.4993V24.5934C36.4993 24.0883 36.4292 23.6953 36.2888 23.4147C36.1485 23.134 35.9415 22.9376 35.6679 22.8253C35.4013 22.706 35.0715 22.6464 34.6786 22.6464C34.2716 22.6464 33.9173 22.7271 33.6156 22.8885C33.3209 23.0498 33.0753 23.2744 32.8788 23.562C32.6894 23.8427 32.5456 24.1725 32.4473 24.5513C32.3491 24.9302 32.3 25.3372 32.3 25.7722Z" fill="#0038F0"/>
<path d="M24.3854 29.298V24.2251C24.3854 23.8602 24.3258 23.548 24.2065 23.2884C24.0872 23.0218 23.9013 22.8148 23.6487 22.6674C23.4031 22.5201 23.0839 22.4464 22.6909 22.4464C22.3541 22.4464 22.063 22.5061 21.8174 22.6253C21.5718 22.7376 21.3824 22.9025 21.2491 23.12C21.1157 23.3305 21.0491 23.5796 21.0491 23.8672H18.018C18.018 23.3831 18.1303 22.9235 18.3548 22.4885C18.5793 22.0535 18.9056 21.6711 19.3336 21.3413C19.7616 21.0045 20.2703 20.7414 20.8596 20.552C21.456 20.3625 22.1226 20.2678 22.8593 20.2678C23.7434 20.2678 24.5292 20.4152 25.2168 20.7099C25.9045 21.0045 26.4447 21.4466 26.8376 22.036C27.2376 22.6253 27.4375 23.3621 27.4375 24.2461V29.119C27.4375 29.7435 27.4761 30.2557 27.5533 30.6556C27.6305 31.0485 27.7428 31.3924 27.8901 31.687V31.866H24.8274C24.6801 31.5572 24.5678 31.1713 24.4906 30.7083C24.4205 30.2382 24.3854 29.7681 24.3854 29.298ZM24.7853 24.9302L24.8064 26.6457H23.1119C22.712 26.6457 22.3647 26.6914 22.07 26.7826C21.7753 26.8738 21.5332 27.0036 21.3438 27.172C21.1543 27.3334 21.014 27.5228 20.9228 27.7403C20.8386 27.9578 20.7965 28.1964 20.7965 28.456C20.7965 28.7156 20.8561 28.9506 20.9754 29.1611C21.0947 29.3646 21.2666 29.526 21.4911 29.6453C21.7157 29.7575 21.9788 29.8137 22.2805 29.8137C22.7365 29.8137 23.133 29.7224 23.4698 29.54C23.8065 29.3576 24.0661 29.1331 24.2486 28.8664C24.438 28.5998 24.5362 28.3472 24.5433 28.1087L25.3431 29.3927C25.2309 29.6803 25.0765 29.9785 24.8801 30.2873C24.6906 30.596 24.4485 30.8872 24.1539 31.1608C23.8592 31.4274 23.5048 31.6484 23.0909 31.8239C22.6769 31.9923 22.1858 32.0765 21.6174 32.0765C20.8947 32.0765 20.2387 31.9326 19.6493 31.6449C19.067 31.3503 18.6039 30.9468 18.2601 30.4346C17.9233 29.9154 17.7549 29.326 17.7549 28.6665C17.7549 28.0701 17.8671 27.5403 18.0917 27.0773C18.3162 26.6142 18.646 26.2248 19.081 25.909C19.523 25.5863 20.0738 25.3442 20.7334 25.1828C21.3929 25.0144 22.1577 24.9302 23.0277 24.9302H24.7853Z" fill="#0038F0"/>
<path d="M12.7876 20.4784H15.8292V32.5501C15.8292 33.3921 15.6748 34.1043 15.3661 34.6866C15.0574 35.269 14.6118 35.711 14.0295 36.0127C13.4471 36.3144 12.742 36.4653 11.914 36.4653C11.6544 36.4653 11.4018 36.4513 11.1563 36.4232C10.9037 36.3951 10.6441 36.3495 10.3774 36.2864L10.388 33.9604C10.5564 33.9885 10.7212 34.0095 10.8826 34.0236C11.037 34.0446 11.1949 34.0552 11.3562 34.0552C11.672 34.0552 11.9351 34.0025 12.1456 33.8973C12.3561 33.792 12.5139 33.6272 12.6192 33.4026C12.7314 33.1851 12.7876 32.901 12.7876 32.5501V20.4784ZM12.5455 17.5104C12.5455 17.0684 12.6999 16.7036 13.0086 16.4159C13.3243 16.1282 13.7383 15.9844 14.2505 15.9844C14.7697 15.9844 15.1837 16.1282 15.4924 16.4159C15.8011 16.7036 15.9555 17.0684 15.9555 17.5104C15.9555 17.9525 15.8011 18.3173 15.4924 18.605C15.1837 18.8927 14.7697 19.0365 14.2505 19.0365C13.7383 19.0365 13.3243 18.8927 13.0086 18.605C12.6999 18.3173 12.5455 17.9525 12.5455 17.5104Z" fill="#0038F0"/>
<path d="M7.19884 29.3822V15.7002H10.251V31.866H7.50406L7.19884 29.3822ZM0 26.309V26.088C0 25.218 0.0982298 24.4286 0.294689 23.72C0.491149 23.0043 0.778822 22.3903 1.15771 21.8781C1.5366 21.366 2.00319 20.9695 2.55748 20.6889C3.11178 20.4082 3.74326 20.2679 4.45192 20.2679C5.11848 20.2679 5.70084 20.4082 6.199 20.6889C6.70419 20.9695 7.13219 21.3695 7.48301 21.8887C7.84085 22.4009 8.12852 23.0078 8.34603 23.7094C8.56354 24.4041 8.72141 25.1653 8.81964 25.9933V26.4774C8.72141 27.2703 8.56354 28.007 8.34603 28.6876C8.12852 29.3682 7.84085 29.9646 7.48301 30.4768C7.13219 30.982 6.70419 31.3749 6.199 31.6555C5.69382 31.9362 5.10444 32.0765 4.43087 32.0765C3.72221 32.0765 3.09073 31.9327 2.53643 31.645C1.98915 31.3573 1.52607 30.9539 1.14718 30.4347C0.775314 29.9155 0.491149 29.305 0.294689 28.6034C0.0982298 27.9017 0 27.137 0 26.309ZM3.03109 26.088V26.309C3.03109 26.7791 3.06617 27.2176 3.13634 27.6246C3.21352 28.0315 3.33631 28.3929 3.5047 28.7086C3.68011 29.0174 3.90464 29.2594 4.17828 29.4348C4.45893 29.6032 4.79923 29.6874 5.19916 29.6874C5.71838 29.6874 6.14638 29.5717 6.48317 29.3401C6.81996 29.1016 7.07606 28.7753 7.25147 28.3613C7.43389 27.9474 7.53914 27.4702 7.5672 26.93V25.5512C7.54616 25.1092 7.48301 24.7128 7.37776 24.362C7.27953 24.0041 7.13219 23.6989 6.93573 23.4463C6.74628 23.1937 6.50773 22.9973 6.22005 22.8569C5.9394 22.7166 5.60612 22.6464 5.22021 22.6464C4.82729 22.6464 4.49051 22.7377 4.20985 22.9201C3.92919 23.0955 3.70116 23.3376 3.52575 23.6463C3.35736 23.955 3.23106 24.3199 3.14686 24.7408C3.06968 25.1548 3.03109 25.6039 3.03109 26.088Z" fill="#0038F0"/>
<path d="M127.282 46.2293C127.282 46.0662 127.235 45.9188 127.14 45.7873C127.045 45.6557 126.869 45.5347 126.611 45.4242C126.358 45.3084 125.993 45.2032 125.514 45.1085C125.082 45.0137 124.68 44.8953 124.306 44.7532C123.938 44.6059 123.617 44.4296 123.343 44.2244C123.075 44.0192 122.864 43.7771 122.712 43.4982C122.559 43.214 122.483 42.8904 122.483 42.5273C122.483 42.1695 122.559 41.8327 122.712 41.5169C122.87 41.2012 123.093 40.9223 123.383 40.6802C123.677 40.4329 124.035 40.2408 124.456 40.104C124.882 39.9619 125.361 39.8909 125.893 39.8909C126.635 39.8909 127.271 40.0093 127.803 40.2461C128.34 40.4829 128.75 40.8091 129.034 41.2249C129.324 41.6353 129.468 42.1037 129.468 42.6299H127.195C127.195 42.4089 127.148 42.2115 127.053 42.0379C126.964 41.859 126.822 41.7195 126.627 41.6195C126.437 41.5143 126.19 41.4617 125.885 41.4617C125.632 41.4617 125.414 41.5064 125.23 41.5959C125.045 41.6801 124.903 41.7958 124.803 41.9432C124.709 42.0853 124.661 42.2431 124.661 42.4168C124.661 42.5483 124.688 42.6667 124.74 42.772C124.798 42.872 124.89 42.9641 125.017 43.0483C125.143 43.1325 125.306 43.2114 125.506 43.2851C125.711 43.3535 125.964 43.4166 126.264 43.4745C126.879 43.6008 127.429 43.7666 127.913 43.9718C128.398 44.1718 128.782 44.4454 129.066 44.7927C129.35 45.1348 129.492 45.5847 129.492 46.1425C129.492 46.5214 129.408 46.8687 129.24 47.1844C129.071 47.5002 128.829 47.7764 128.513 48.0132C128.198 48.2448 127.819 48.4263 127.377 48.5579C126.94 48.6842 126.448 48.7473 125.901 48.7473C125.106 48.7473 124.432 48.6053 123.88 48.3211C123.333 48.0369 122.917 47.6765 122.633 47.2397C122.354 46.7977 122.214 46.3451 122.214 45.882H124.369C124.38 46.1925 124.459 46.4424 124.606 46.6319C124.759 46.8213 124.951 46.9582 125.182 47.0424C125.419 47.1265 125.674 47.1686 125.948 47.1686C126.243 47.1686 126.487 47.1292 126.682 47.0502C126.877 46.966 127.024 46.8555 127.124 46.7187C127.229 46.5766 127.282 46.4135 127.282 46.2293Z" fill="#0038F0"/>
<path d="M115.828 41.8721V48.5895H113.555V40.0487H115.686L115.828 41.8721ZM115.497 44.0192H114.881C114.881 43.3877 114.963 42.8193 115.126 42.3142C115.289 41.8037 115.518 41.3696 115.813 41.0117C116.107 40.6486 116.457 40.3724 116.863 40.1829C117.273 39.9882 117.731 39.8909 118.236 39.8909C118.636 39.8909 119.002 39.9488 119.333 40.0645C119.665 40.1803 119.949 40.3645 120.186 40.6171C120.428 40.8697 120.612 41.2038 120.738 41.6195C120.87 42.0353 120.936 42.5431 120.936 43.143V48.5895H118.646V43.1351C118.646 42.7562 118.594 42.4615 118.489 42.251C118.383 42.0405 118.228 41.8932 118.023 41.809C117.823 41.7195 117.576 41.6748 117.281 41.6748C116.976 41.6748 116.71 41.7353 116.484 41.8563C116.263 41.9774 116.078 42.1458 115.931 42.3615C115.789 42.572 115.681 42.8193 115.607 43.1035C115.534 43.3877 115.497 43.6929 115.497 44.0192Z" fill="#0038F0"/>
<path d="M108.803 48.7473C108.14 48.7473 107.546 48.6421 107.019 48.4316C106.493 48.2158 106.046 47.9185 105.678 47.5396C105.314 47.1608 105.036 46.7214 104.841 46.2214C104.646 45.7162 104.549 45.1795 104.549 44.6112V44.2954C104.549 43.6482 104.641 43.0562 104.825 42.5194C105.009 41.9826 105.272 41.5169 105.614 41.1223C105.962 40.7276 106.383 40.425 106.877 40.2145C107.372 39.9987 107.93 39.8909 108.551 39.8909C109.156 39.8909 109.693 39.9909 110.161 40.1908C110.629 40.3908 111.021 40.675 111.337 41.0433C111.658 41.4117 111.9 41.8537 112.063 42.3694C112.227 42.8799 112.308 43.4482 112.308 44.0744V45.0216H105.52V43.5061H110.074V43.3324C110.074 43.0167 110.016 42.7351 109.901 42.4878C109.79 42.2352 109.622 42.0353 109.395 41.8879C109.169 41.7406 108.88 41.6669 108.527 41.6669C108.227 41.6669 107.969 41.7327 107.754 41.8642C107.538 41.9958 107.362 42.18 107.225 42.4168C107.093 42.6536 106.993 42.9325 106.925 43.2535C106.862 43.5692 106.83 43.9165 106.83 44.2954V44.6112C106.83 44.9532 106.877 45.269 106.972 45.5584C107.072 45.8478 107.212 46.0978 107.39 46.3083C107.575 46.5188 107.796 46.6819 108.054 46.7977C108.317 46.9134 108.614 46.9713 108.945 46.9713C109.356 46.9713 109.737 46.8924 110.09 46.7345C110.448 46.5714 110.756 46.3267 111.014 46.0004L112.119 47.2002C111.94 47.4581 111.695 47.7054 111.385 47.9422C111.079 48.179 110.711 48.3737 110.279 48.5263C109.848 48.6737 109.356 48.7473 108.803 48.7473Z" fill="#0038F0"/>
<path d="M98.0287 36.4651V48.5895H95.7554V36.4651H98.0287ZM97.7051 44.0191H97.0815C97.0867 43.4245 97.1657 42.8772 97.3183 42.3773C97.4709 41.8721 97.6893 41.4353 97.9734 41.067C98.2576 40.6934 98.597 40.4039 98.9917 40.1987C99.3916 39.9935 99.8337 39.8909 100.318 39.8909C100.739 39.8909 101.12 39.9514 101.462 40.0724C101.81 40.1882 102.107 40.3776 102.354 40.6407C102.607 40.8986 102.802 41.238 102.938 41.659C103.075 42.08 103.144 42.5904 103.144 43.1903V48.5895H100.855V43.1745C100.855 42.7957 100.799 42.4983 100.689 42.2826C100.584 42.0616 100.428 41.9063 100.223 41.8169C100.023 41.7221 99.7758 41.6748 99.4811 41.6748C99.1548 41.6748 98.8759 41.7353 98.6444 41.8563C98.4181 41.9774 98.2366 42.1458 98.0997 42.3615C97.9629 42.572 97.8629 42.8193 97.7998 43.1035C97.7366 43.3877 97.7051 43.6929 97.7051 44.0191Z" fill="#0038F0"/>
<path d="M94.5163 40.0487V41.659H89.5435V40.0487H94.5163ZM90.7748 37.9412H93.0482V46.0162C93.0482 46.2635 93.0797 46.453 93.1429 46.5845C93.2113 46.7161 93.3113 46.8082 93.4428 46.8608C93.5744 46.9081 93.7402 46.9318 93.9401 46.9318C94.0822 46.9318 94.2085 46.9266 94.319 46.916C94.4348 46.9002 94.5321 46.8845 94.6111 46.8687L94.619 48.5421C94.4243 48.6052 94.2138 48.6552 93.9875 48.6921C93.7612 48.7289 93.5112 48.7473 93.2376 48.7473C92.7377 48.7473 92.3009 48.6658 91.9273 48.5026C91.5589 48.3342 91.2748 48.0659 91.0748 47.6975C90.8748 47.3291 90.7748 46.845 90.7748 46.2451V37.9412Z" fill="#0038F0"/>
<path d="M86.2912 46.6635V42.8588C86.2912 42.5852 86.2465 42.351 86.1571 42.1563C86.0676 41.9563 85.9281 41.8011 85.7387 41.6906C85.5545 41.5801 85.3151 41.5248 85.0204 41.5248C84.7678 41.5248 84.5494 41.5695 84.3652 41.659C84.1811 41.7432 84.039 41.8669 83.939 42.03C83.839 42.1879 83.789 42.3747 83.789 42.5904H81.5157C81.5157 42.2273 81.5999 41.8827 81.7683 41.5564C81.9367 41.2301 82.1814 40.9433 82.5024 40.696C82.8234 40.4434 83.2049 40.2461 83.6469 40.104C84.0942 39.9619 84.5941 39.8909 85.1467 39.8909C85.8097 39.8909 86.3991 40.0014 86.9148 40.2224C87.4305 40.4434 87.8357 40.7749 88.1304 41.217C88.4304 41.659 88.5804 42.2115 88.5804 42.8746V46.5293C88.5804 46.9976 88.6093 47.3818 88.6672 47.6817C88.7251 47.9764 88.8093 48.2343 88.9198 48.4553V48.5895H86.6228C86.5123 48.3579 86.4281 48.0685 86.3702 47.7212C86.3176 47.3686 86.2912 47.016 86.2912 46.6635ZM86.5912 43.3877L86.607 44.6743H85.3361C85.0362 44.6743 84.7757 44.7085 84.5547 44.7769C84.3337 44.8453 84.1521 44.9427 84.01 45.069C83.8679 45.19 83.7627 45.3321 83.6943 45.4952C83.6311 45.6584 83.5996 45.8373 83.5996 46.032C83.5996 46.2267 83.6443 46.403 83.7338 46.5609C83.8232 46.7135 83.9521 46.8345 84.1205 46.9239C84.2889 47.0081 84.4863 47.0502 84.7126 47.0502C85.0546 47.0502 85.3519 46.9818 85.6045 46.845C85.8571 46.7082 86.0518 46.5398 86.1886 46.3398C86.3307 46.1399 86.4044 45.9504 86.4096 45.7715L87.0096 46.7345C86.9254 46.9503 86.8096 47.1739 86.6622 47.4055C86.5202 47.637 86.3386 47.8554 86.1176 48.0606C85.8966 48.2606 85.6308 48.4263 85.3203 48.5579C85.0099 48.6842 84.6415 48.7473 84.2153 48.7473C83.6732 48.7473 83.1812 48.6395 82.7392 48.4237C82.3024 48.2027 81.9551 47.9001 81.6972 47.516C81.4447 47.1265 81.3184 46.6845 81.3184 46.1899C81.3184 45.7426 81.4026 45.3453 81.571 44.9979C81.7393 44.6506 81.9867 44.3586 82.3129 44.1218C82.6445 43.8797 83.0576 43.6982 83.5522 43.5771C84.0469 43.4508 84.6205 43.3877 85.273 43.3877H86.5912Z" fill="#0038F0"/>
<path d="M33.942 0.0473633H34.2735V1.86286H34.1393C33.5394 1.86286 33.0053 1.95232 32.537 2.13124C32.0686 2.31016 31.6713 2.56538 31.345 2.89691C31.024 3.22317 30.7767 3.61784 30.6031 4.08093C30.4347 4.54401 30.3505 5.06235 30.3505 5.63594V7.54616C30.3505 7.95662 30.3899 8.31972 30.4689 8.63546C30.5531 8.94593 30.6715 9.20642 30.8241 9.41691C30.9819 9.62214 31.1661 9.77738 31.3766 9.88262C31.5871 9.98261 31.8239 10.0326 32.087 10.0326C32.3344 10.0326 32.558 9.97998 32.758 9.87473C32.9632 9.76948 33.1369 9.62214 33.2789 9.4327C33.4263 9.23799 33.5368 9.01171 33.6105 8.75386C33.6894 8.49074 33.7289 8.20395 33.7289 7.89347C33.7289 7.58299 33.6894 7.2962 33.6105 7.03308C33.5368 6.76997 33.4263 6.54369 33.2789 6.35424C33.1316 6.15954 32.9527 6.00956 32.7422 5.90432C32.5317 5.79907 32.2949 5.74645 32.0318 5.74645C31.6739 5.74645 31.3582 5.83064 31.0846 5.99904C30.8162 6.16217 30.6057 6.37266 30.4531 6.63052C30.3005 6.88837 30.2189 7.15938 30.2084 7.44354L29.5217 7.00151C29.5374 6.59631 29.6216 6.21216 29.7742 5.84906C29.9321 5.48596 30.1479 5.16496 30.4215 4.88606C30.7004 4.60189 31.0346 4.38088 31.424 4.22301C31.8134 4.05988 32.2528 3.97831 32.7422 3.97831C33.2789 3.97831 33.7499 4.08093 34.1551 4.28616C34.5656 4.49139 34.9076 4.77292 35.1813 5.13076C35.4549 5.48859 35.6601 5.90169 35.797 6.37003C35.9338 6.83838 36.0022 7.3383 36.0022 7.86979C36.0022 8.4276 35.9101 8.94593 35.7259 9.4248C35.547 9.90367 35.2865 10.322 34.9445 10.6799C34.6077 11.0377 34.2025 11.3166 33.7289 11.5166C33.2553 11.7165 32.7238 11.8165 32.1344 11.8165C31.524 11.8165 30.9688 11.706 30.4689 11.485C29.9742 11.2587 29.548 10.943 29.1901 10.5378C28.8323 10.1326 28.556 9.65108 28.3613 9.09328C28.1719 8.53547 28.0771 7.92504 28.0771 7.26199V6.37792C28.0771 5.45176 28.2113 4.60453 28.4797 3.83623C28.7534 3.06267 29.1454 2.39435 29.6558 1.83129C30.1663 1.26296 30.782 0.823554 31.5029 0.513078C32.2239 0.202601 33.0369 0.0473633 33.942 0.0473633Z" fill="#0038F0"/>
<path d="M26.6562 9.88262V11.6587H18.7943V10.1431L22.5122 6.15691C22.8858 5.74118 23.1805 5.37545 23.3962 5.05971C23.612 4.73871 23.7672 4.45192 23.8619 4.19933C23.9619 3.94147 24.0119 3.69677 24.0119 3.46523C24.0119 3.11792 23.954 2.8206 23.8383 2.57327C23.7225 2.32068 23.5515 2.12597 23.3252 1.98915C23.1042 1.85233 22.8305 1.78392 22.5043 1.78392C22.157 1.78392 21.857 1.86812 21.6044 2.03651C21.3571 2.20491 21.1676 2.43908 21.0361 2.73903C20.9098 3.03899 20.8466 3.3784 20.8466 3.75729H18.5654C18.5654 3.07319 18.7286 2.44698 19.0548 1.87865C19.3811 1.30505 19.8415 0.849863 20.4362 0.513075C21.0308 0.171025 21.736 0 22.5516 0C23.3568 0 24.0356 0.131558 24.5881 0.394673C25.146 0.652527 25.5669 1.02615 25.8511 1.51555C26.1405 1.99968 26.2852 2.57853 26.2852 3.25211C26.2852 3.631 26.2247 4.00199 26.1037 4.36509C25.9827 4.72293 25.809 5.08076 25.5827 5.4386C25.3617 5.79117 25.0933 6.14901 24.7776 6.51211C24.4619 6.87521 24.1119 7.25147 23.7278 7.64088L21.7307 9.88262H26.6562Z" fill="#0038F0"/>
<path d="M17.2472 4.90176V6.89092C17.2472 7.75394 17.1551 8.49855 16.971 9.12477C16.7868 9.74572 16.521 10.2562 16.1737 10.6561C15.8317 11.0508 15.4238 11.3428 14.9502 11.5323C14.4766 11.7217 13.9504 11.8164 13.3715 11.8164C12.9085 11.8164 12.4769 11.7586 12.077 11.6428C11.6771 11.5218 11.3166 11.3349 10.9956 11.0823C10.6799 10.8298 10.4062 10.5114 10.1747 10.1272C9.94841 9.73783 9.77475 9.27474 9.65372 8.73799C9.53268 8.20123 9.47217 7.58554 9.47217 6.89092V4.90176C9.47217 4.03874 9.56426 3.29939 9.74844 2.6837C9.93788 2.06275 10.2036 1.55493 10.5457 1.16026C10.893 0.765585 11.3035 0.476158 11.7771 0.291977C12.2507 0.102534 12.7769 0.0078125 13.3558 0.0078125C13.8188 0.0078125 14.2477 0.0683291 14.6424 0.189362C15.0423 0.305133 15.4028 0.486683 15.7238 0.734012C16.0448 0.98134 16.3184 1.29971 16.5447 1.68912C16.771 2.07327 16.9447 2.53372 17.0657 3.07048C17.1867 3.60197 17.2472 4.2124 17.2472 4.90176ZM14.966 7.19087V4.59392C14.966 4.17819 14.9423 3.8151 14.895 3.50462C14.8529 3.19414 14.7871 2.93103 14.6976 2.71527C14.6082 2.49426 14.4977 2.31534 14.3661 2.17852C14.2346 2.0417 14.0846 1.94171 13.9162 1.87856C13.7478 1.81542 13.561 1.78384 13.3558 1.78384C13.0979 1.78384 12.869 1.83383 12.669 1.93382C12.4743 2.0338 12.3086 2.1943 12.1717 2.41532C12.0349 2.63108 11.9297 2.9205 11.856 3.2836C11.7876 3.64144 11.7534 4.07821 11.7534 4.59392V7.19087C11.7534 7.60659 11.7744 7.97232 11.8165 8.28806C11.8639 8.6038 11.9323 8.87481 12.0218 9.10109C12.1165 9.32211 12.227 9.50366 12.3533 9.64574C12.4848 9.78256 12.6348 9.88254 12.8032 9.94569C12.9769 10.0088 13.1663 10.0404 13.3715 10.0404C13.6241 10.0404 13.8478 9.99042 14.0425 9.89044C14.2425 9.78519 14.4108 9.62206 14.5477 9.40104C14.6898 9.17476 14.795 8.88007 14.8634 8.51697C14.9318 8.15387 14.966 7.71184 14.966 7.19087Z" fill="#0038F0"/>
<path d="M8.09081 9.88262V11.6587H0.228911V10.1431L3.94673 6.15691C4.32036 5.74118 4.61505 5.37545 4.8308 5.05971C5.04656 4.73871 5.2018 4.45192 5.29652 4.19933C5.3965 3.94147 5.44649 3.69677 5.44649 3.46523C5.44649 3.11792 5.38861 2.8206 5.27284 2.57327C5.15707 2.32068 4.98604 2.12597 4.75976 1.98915C4.53874 1.85233 4.2651 1.78392 3.93884 1.78392C3.59153 1.78392 3.29158 1.86812 3.03899 2.03651C2.79166 2.20491 2.60221 2.43908 2.47066 2.73903C2.34436 3.03899 2.28121 3.3784 2.28121 3.75729H0C0 3.07319 0.163132 2.44698 0.489395 1.87865C0.815658 1.30505 1.27611 0.849863 1.87075 0.513075C2.46539 0.171025 3.17054 0 3.9862 0C4.79134 0 5.47017 0.131558 6.02272 0.394673C6.58052 0.652527 7.00151 1.02615 7.28567 1.51555C7.5751 1.99968 7.71981 2.57853 7.71981 3.25211C7.71981 3.631 7.6593 4.00199 7.53826 4.36509C7.41723 4.72293 7.24357 5.08076 7.01729 5.4386C6.79628 5.79117 6.5279 6.14901 6.21216 6.51211C5.89642 6.87521 5.54648 7.25147 5.16233 7.64088L3.16528 9.88262H8.09081Z" fill="#0038F0"/>
</svg>