<svg fill="none" height="248" viewBox="0 0 666 248" width="666" xmlns="http://www.w3.org/2000/svg"><path clip-rule="evenodd" d="m53.2685 86.9289v-36.7966l16.0964-16.0611v36.7966c0 12.0474-1.4403 20.4098-6.5104 25.6619l-16.0964 16.0613c5.07-5.252 6.5104-13.6146 6.5104-25.6621z" fill="#102775" fill-rule="evenodd"/><path clip-rule="evenodd" d="m21.3066 100.557c-.9533 0-1.5672-.169-1.9431-.5586l16.0295-16.136c.3683.4427.9978.6337 2.0101.6337h1.5024c3.5949 0 6.2545-.7828 8.0638-2.5322l-16.0965 16.0612c-1.8093 1.7494-4.4689 2.5319-8.0638 2.5319z" fill="#9cb2ff" fill-rule="evenodd"/><path clip-rule="evenodd" d="m44.2266 22.3196c7.1338 4.9828 9.0374 13.9625 9.0374 27.8127l16.0965-16.0612c0-13.508-1.8107-22.3832-8.5183-27.43603z" fill="#102775" fill-rule="evenodd"/><path clip-rule="evenodd" d="m1.03857 18.4634c.76829-.7666 2.03168-1.0392 4.01214-1.0392h16.66319c10.5471 0 17.7139 1.5432 22.5133 4.8955l16.6156-15.68459c-4.7968-3.61347-12.0981-5.27201-23.0324-5.27201h-16.6632c-1.9805 0-3.2439.27257-4.0121 1.03916z" fill="#9cb2ff" fill-rule="evenodd"/><path clip-rule="evenodd" d="m18.8494 38.957c0-.954.1365-1.5673.5122-1.9421l16.0964-16.0611c-.3756.3748-.5122.9881-.5122 1.942v59.1471c0 .8338.121 1.4261.4484 1.8195l-16.0294 16.136c-.3781-.3917-.5154-1.006-.5154-1.8943z" fill="#102775" fill-rule="evenodd"/><path d="m21.7168 17.4242c26.224 0 31.5508 9.5399 31.5508 32.7081v36.7966c0 23.1681-5.3268 32.7081-31.5508 32.7081h-16.66321c-3.96092 0-5.05359-1.09-5.05359-5.043v-92.1273c0-3.9522 1.09267-5.0425 5.05359-5.0425zm-.4098 19.0797c-1.9121 0-2.4585.5451-2.4585 2.4531v59.1471c0 1.7717.5464 2.4529 2.4585 2.4529h1.5024c7.6487 0 11.0633-3.5431 11.0633-12.4016v-39.2497c0-8.8584-3.4146-12.4018-11.0633-12.4018z" fill="#9cb2ff"/><path clip-rule="evenodd" d="m53.7622 101.643c.7635-.802 2.0376-1.086 4.0577-1.086h6.6925c2.2946 0 3.9913-.502 5.1354-1.6278l16.0965-16.0611c-1.1441 1.1254-2.8408 1.6278-5.1354 1.6278h-6.6926c-2.02 0-3.2941.2835-4.0576 1.0857z" fill="#9cb2ff" fill-rule="evenodd"/><path clip-rule="evenodd" d="m90.3247 89.6544v-67.1878l16.0963-16.06114v67.18784c0 11.6291-1.841 19.3534-6.4803 24.0454l-16.0965 16.0613c4.6389-4.692 6.4805-12.416 6.4805-24.0456z" fill="#102775" fill-rule="evenodd"/><path clip-rule="evenodd" d="m62.3271 17.4242c-1.9805 0-3.2439.2726-4.0122 1.0392l16.0965-16.06114c.7683-.76659 2.0317-1.03916 4.0122-1.03916h22.9464c3.961 0 5.053 1.09027 5.053 5.04249l-16.0963 16.06111c0-3.9522-1.0927-5.0425-5.0536-5.0425z" fill="#9cb2ff" fill-rule="evenodd"/><path d="m64.2406 119.637h-6.4194c-3.961 0-5.0536-1.09-5.0536-5.043v-8.994c0-3.953 1.0926-5.043 5.0536-5.043h6.6926c4.7804 0 6.9657-2.1803 6.9657-7.6317v-54.6497c0-1.908-.5463-2.4531-2.4585-2.4531h-6.6926c-3.9609 0-5.0536-1.0903-5.0536-5.0425v-8.3133c0-3.9522 1.0927-5.0425 5.0536-5.0425h22.9461c3.9609 0 5.0535 1.0903 5.0535 5.0425v67.1878c0 21.9415-6.556 29.9825-26.0874 29.9825z" fill="#9cb2ff"/><path clip-rule="evenodd" d="m111.805 19.2904c.045-.0468.091-.0925.137-.1372zm22.839 4.9479 1.291 4.3165.303 1.0132 10.836 36.2368c1.639 5.3151 1.911 7.9045 1.911 13.901v34.8882c0 1.977-.273 3.237-1.041 4.004l16.097-16.061c.768-.767 1.041-2.028 1.041-4.0038v-34.8886c0-5.9964-.272-8.5858-1.911-13.9009l-12.431-41.56651z" fill="#102775" fill-rule="evenodd"/><path clip-rule="evenodd" d="m114.557 94.6408c-.393.3726-.535.9912-.535 1.9642v17.989c0 1.937-.262 3.187-.996 3.957l16.096-16.061c.734-.771.997-2.02.997-3.9567v-17.9894c0-.9731.142-1.5917.534-1.9642z" fill="#102775" fill-rule="evenodd"/><path clip-rule="evenodd" d="m116.071 75.0721c-.857 0-1.491-.1771-1.879-.5566l16.097-16.0611c.387.3794 1.022.5565 1.878.5565h12.019c.857 0 1.492-.1771 1.879-.5565l-16.097 16.0611c-.387.3795-1.021.5566-1.878.5566zm20.169-45.5041.161-.6758c.131-.6545.263-1.0576.5-1.2997l-.964.9622z" fill="#9cb2ff" fill-rule="evenodd"/><path clip-rule="evenodd" d="m111.805 19.2905c.045-.0468.091-.0926.137-.1372zm38.935-11.11322c-1.637-5.72391-3.004-6.81418-10.107-6.81418h-4.917c-4.19 0-6.384.37952-7.815 1.8663l-15.959 15.9239c1.434-1.3731 3.619-1.7291 7.678-1.7291h4.917c7.102 0 8.469 1.0903 10.107 6.8142z" fill="#9cb2ff" fill-rule="evenodd"/><path clip-rule="evenodd" d="m120.304 44.9534c.134-.6678.268-1.0738.515-1.3143l15.117-15.0844.965-.9622c-.238.2421-.369.6452-.5 1.2997l-.162.6758-6.12 25.627c-.138.6814-.274 1.3628-.274 2.0442 0 .5275.151.9289.443 1.2151l-16.096 16.0612c-.292-.2863-.444-.6877-.444-1.2151 0-.6814.137-1.3629.275-2.0443z" fill="#102775" fill-rule="evenodd"/><path d="m114.022 114.594c0 3.953-1.093 5.043-5.054 5.043h-8.741c-3.9612 0-5.0539-1.09-5.0539-5.043v-34.8882c0-5.9965.2732-8.4496 1.9122-13.9009l12.4287-41.5665c1.639-5.7239 3.005-6.8142 10.108-6.8142h4.917c7.102 0 8.468 1.0903 10.107 6.8142l12.429 41.5665c1.639 5.3151 1.912 7.9044 1.912 13.9009v34.8882c0 3.953-1.093 5.043-5.054 5.043h-8.741c-3.961 0-5.054-1.09-5.054-5.043v-17.989c0-1.908-.546-2.4531-2.458-2.4531h-11.2c-1.912 0-2.458.5451-2.458 2.4531zm14.068-39.5218c1.502 0 2.322-.5452 2.322-1.7717 0-.6814-.137-1.3628-.274-2.0443l-6.282-26.3027c-.274-1.3628-.547-1.6354-1.776-1.6354s-1.502.2726-1.776 1.6354l-6.282 26.3027c-.137.6815-.274 1.3629-.274 2.0443 0 1.2265.82 1.7717 2.322 1.7717z" fill="#9cb2ff"/><path clip-rule="evenodd" d="m195.888 17.4509c-1.428.085-2.396.3812-3.028 1.0124l2.339-2.3342zm14.369 5.0157v92.1274c0 1.937-.262 3.186-.996 3.957l16.096-16.061c.734-.771.996-2.02.996-3.9568v-92.12774z" fill="#102775" fill-rule="evenodd"/><path clip-rule="evenodd" d="m173.276 58.013c-.219.2163-.305.5796-.305 1.1138v55.4672c0 1.937-.262 3.186-.996 3.957l16.097-16.061c.733-.771.996-2.02.996-3.9569v-55.4674c0-.5343.085-.8975.304-1.1138z" fill="#102775" fill-rule="evenodd"/><path clip-rule="evenodd" d="m188.949 51.0861-14.204-27.2568 16.096-16.06111 4.357 8.36081.689 1.3218 9.159 17.5741c.683 1.2266.956 1.4991 1.775 1.4991.361 0 .616-.0791.788-.249l-16.096 16.0611c-.173.1699-.428.2491-.788.2491-.82 0-1.093-.2726-1.776-1.4991z" fill="#102775" fill-rule="evenodd"/><path clip-rule="evenodd" d="m155.573 18.4634c.769-.7666 2.032-1.0392 4.012-1.0392h5.327c5.054 0 6.966.8177 9.834 6.4054l16.097-16.06117c-2.869-5.58763-4.781-6.40533-9.834-6.40533h-5.327c-1.981 0-3.244.27257-4.012 1.03916z" fill="#9cb2ff" fill-rule="evenodd"/><path clip-rule="evenodd" d="m208.956 2.40226-13.757 13.72704-2.339 2.3341c.632-.6311 1.6-.9274 3.028-1.0124.306-.0182.634-.0268.984-.0268h8.331c3.961 0 5.054 1.0903 5.054 5.0425l16.096-16.06111c0-3.95222-1.092-5.04249-5.053-5.04249h-8.332c-1.98 0-3.244.27257-4.012 1.03916z" fill="#9cb2ff" fill-rule="evenodd"/><path d="m188.95 51.0863c.683 1.2265.956 1.4991 1.775 1.4991.82 0 1.093-.4089 1.093-1.3629v-28.7558c0-3.9522 1.093-5.0425 5.054-5.0425h8.331c3.961 0 5.054 1.0903 5.054 5.0425v92.1273c0 3.953-1.093 5.043-5.054 5.043h-8.331c-3.961 0-5.054-1.09-5.054-5.043v-18.6704c0-6.4054-.956-8.7222-3.278-13.0833l-12.702-23.577c-.683-1.2266-.956-1.4991-1.776-1.4991-.819 0-1.092.4088-1.092 1.3628v55.467c0 3.953-1.093 5.043-5.054 5.043h-8.332c-3.961 0-5.053-1.09-5.053-5.043v-92.1273c0-3.9522 1.092-5.0425 5.053-5.0425h5.327c5.054 0 6.966.8177 9.834 6.4053z" fill="#9cb2ff"/><path clip-rule="evenodd" d="m237.987 42.7729c0-2.8347.627-4.785 1.902-6.0041l15.953-15.9174c-1.178 1.2266-1.759 3.1346-1.759 5.8604v51.5152c0 3.0915.791 5.1311 2.397 6.3176l-16.985 15.2176c-1.01-1.2278-1.508-3.0193-1.508-5.4741zm17.999-22.0653-.144.1438c.047-.049.095-.0969.144-.1438z" fill="#102775" fill-rule="evenodd"/><path clip-rule="evenodd" d="m271.314 91.0173v-24.2585l16.097-16.0612v24.2585c0 11.6291-1.842 19.3534-6.522 24.0454l-16.096 16.0615c4.68-4.692 6.521-12.417 6.521-24.0457z" fill="#102775" fill-rule="evenodd"/><path clip-rule="evenodd" d="m248.913 61.7163c-1.98 0-3.244.2726-4.012 1.0392l16.096-16.0612c.769-.7666 2.032-1.0391 4.013-1.0391h17.346c3.961 0 5.053 1.0902 5.053 5.0424l-16.096 16.0612c0-3.9522-1.093-5.0425-5.054-5.0425z" fill="#102775" fill-rule="evenodd"/><path clip-rule="evenodd" d="m225.167 21.944c4.151-4.1219 10.517-5.8826 19.785-5.8826 9.595 0 16.016 1.8875 20.087 6.3289l16.841-15.18742c-4.015-5.0688-10.629-7.20263586-20.832-7.20263586-9.308 0-15.689 1.77619586-19.839 5.93701586z" fill="#9cb2ff" fill-rule="evenodd"/><path clip-rule="evenodd" d="m245.5 101.92c-2.778 0-4.772-.659-6.004-2.1578l16.985-15.2177c1.226.9057 2.928 1.3143 5.115 1.3143 2.543 0 4.398-.5235 5.628-1.6989l-16.097 16.0611c-1.23 1.175-3.084 1.699-5.627 1.699z" fill="#9cb2ff" fill-rule="evenodd"/><path d="m253.01 83.2493c0-1.908-.546-2.4531-2.458-2.4531h-1.639c-3.961 0-5.054-1.0903-5.054-5.0425v-8.9947c0-3.9522 1.093-5.0425 5.054-5.0425h17.346c3.961 0 5.053 1.0903 5.053 5.0425v24.2585c0 21.9415-6.556 29.9825-26.36 29.9825-19.805 0-26.361-8.041-26.361-29.9825v-44.9736c0-21.9417 6.556-29.9824 26.361-29.9824 19.804 0 26.087 8.0407 26.087 29.9824v.6814c0 3.9522-1.093 5.0425-5.053 5.0425h-8.742c-3.961 0-5.053-1.0903-5.053-5.0425v-3.9522c0-5.4514-2.322-7.6319-7.103-7.6319-4.78 0-7.102 2.1805-7.102 7.6319v51.5152c0 5.4513 2.458 7.6317 7.512 7.6317 5.19 0 7.512-2.1804 7.512-7.6317z" fill="#9cb2ff"/><path clip-rule="evenodd" d="m265.039 22.3903c4.331 4.7256 6 12.3424 6 23.6534v.6814c0 1.9366-.262 3.186-.996 3.9567l16.097-16.0611c.734-.7707.996-2.0202.996-3.9567v-.6815c0-10.6384-1.477-18.0089-5.256-22.77962z" fill="#102775" fill-rule="evenodd"/><path clip-rule="evenodd" d="m304.109 101.92c-2.295 0-3.992-.503-5.136-1.628l16.097-16.061c1.144 1.1253 2.84 1.6277 5.135 1.6277s3.991-.5024 5.135-1.6277l-16.096 16.061c-1.144 1.125-2.841 1.628-5.135 1.628z" fill="#9cb2ff" fill-rule="evenodd"/><path clip-rule="evenodd" d="m284.575 21.9705c4.155-4.1322 10.451-5.9091 19.533-5.9091 9.517 0 15.974 1.9512 20.115 6.5189l16.504-15.59448c-4.12-4.90184-10.688-6.98557586-20.523-6.98557586-9.11 0-15.417 1.78793586-19.571 5.94747586z" fill="#9cb2ff" fill-rule="evenodd"/><path clip-rule="evenodd" d="m297.144 43.4544c0-3.2381.637-5.4032 1.976-6.7099l16.022-15.9864c-1.288 1.3139-1.901 3.458-1.901 6.6351v50.8338c0 2.8347.59 4.785 1.83 6.0042l-16.097 16.0608c-1.239-1.2188-1.83-3.1691-1.83-6.0038z" fill="#102775" fill-rule="evenodd"/><path d="m330.47 89.6546c0 23.0324-6.556 31.3454-26.361 31.3454-19.804 0-26.36-8.313-26.36-31.3454v-42.2479c0-22.8956 6.556-31.3452 26.36-31.3452 19.805 0 26.361 8.4496 26.361 31.3452zm-33.327 4.6337c0 5.4513 2.186 7.6317 6.966 7.6317 4.781 0 6.966-2.1804 6.966-7.6317v-50.8338c0-5.9965-2.185-8.3133-6.966-8.3133-4.78 0-6.966 2.3168-6.966 8.3133z" fill="#9cb2ff"/><path clip-rule="evenodd" d="m324.226 22.5803c4.476 4.9377 6.245 12.9331 6.245 24.8264v42.248c0 12.2073-1.841 20.2793-6.521 25.1713l16.097-16.0615c4.679-4.8916 6.521-12.964 6.521-25.171v-42.2479c0-11.5257-1.662-19.3907-5.838-24.35976z" fill="#102775" fill-rule="evenodd"/><path clip-rule="evenodd" d="m379.229.00024414c11.093 0 17.944 2.52249586 21.824 8.59718586l-16.504 15.45207c-3.945-5.6347-10.702-7.9881-21.416-7.9881-9.268 0-15.634 1.7607-19.785 5.8826l16.042-16.00674c4.15-4.16082 10.531-5.93701586 19.839-5.93701586z" fill="#9cb2ff" fill-rule="evenodd"/><path clip-rule="evenodd" d="m363.268 101.92c-2.294 0-4.023-.503-5.199-1.628l15.643-16.5591c1.167 1.4763 3.044 2.1258 5.653 2.1258 2.294 0 4.022-.5024 5.199-1.6277l-16.096 16.061c-1.177 1.125-2.905 1.628-5.2 1.628z" fill="#9cb2ff" fill-rule="evenodd"/><path clip-rule="evenodd" d="m356.169 42.7729c0-2.8347.628-4.785 1.903-6.0041l15.953-15.9174c-1.179 1.2265-1.759 3.1346-1.759 5.8604v51.5152c0 2.4761.479 4.2774 1.45 5.5061l-15.644 16.5589c-1.275-1.2189-1.903-3.1692-1.903-6.0039zm18-22.0653-.144.1438c.047-.049.095-.0969.144-.1438z" fill="#102775" fill-rule="evenodd"/><path clip-rule="evenodd" d="m389.22 91.0171v-4.0885l16.096-16.0611v4.0885c0 11.6291-1.765 19.3534-6.372 24.0454l-16.097 16.0616c4.608-4.692 6.373-12.417 6.373-24.0459z" fill="#102775" fill-rule="evenodd"/><path clip-rule="evenodd" d="m375.427 81.8863c-1.981 0-3.244.2725-4.012 1.0391l16.096-16.0611c.768-.7666 2.032-1.0392 4.012-1.0392h8.742c3.96 0 5.053 1.0903 5.053 5.0425l-16.096 16.0612c0-3.9523-1.093-5.0425-5.054-5.0425z" fill="#102775" fill-rule="evenodd"/><path d="m389.22 86.929v4.0885c0 21.9415-6.283 29.9825-26.087 29.9825-19.805 0-26.361-8.041-26.361-29.9825v-44.9736c0-21.9417 6.556-29.9824 26.361-29.9824 19.804 0 26.087 8.0407 26.087 29.9824v4.0885c0 3.9522-1.093 5.0425-5.054 5.0425h-8.741c-3.961 0-5.053-1.0903-5.053-5.0425v-7.3593c0-5.4514-2.322-7.6319-7.103-7.6319-4.78 0-7.102 2.1805-7.102 7.6319v51.5152c0 5.4513 2.322 7.6317 7.102 7.6317 4.781 0 7.103-2.1804 7.103-7.6317v-7.3593c0-3.9523 1.092-5.0425 5.053-5.0425h8.741c3.961 0 5.054 1.0902 5.054 5.0425z" fill="#9cb2ff"/><path clip-rule="evenodd" d="m384.549 24.0496c3.347 4.7806 4.671 11.9231 4.671 21.9942v4.0885c0 1.9366-.263 3.186-.996 3.9567l16.096-16.0611c.734-.7707.996-2.0202.996-3.9567v-4.0886c0-9.6521-1.216-16.6141-4.264-21.38507z" fill="#102775" fill-rule="evenodd"/><path clip-rule="evenodd" d="m422.269 101.92c-2.294 0-3.991-.503-5.135-1.628l16.096-16.061c1.144 1.1253 2.841 1.6277 5.136 1.6277 2.294 0 3.991-.5024 5.135-1.6277l-16.096 16.061c-1.145 1.125-2.841 1.628-5.136 1.628z" fill="#9cb2ff" fill-rule="evenodd"/><path clip-rule="evenodd" d="m402.735 21.9705c4.156-4.1322 10.451-5.9091 19.533-5.9091 10.598 0 17.402 2.4194 21.438 8.1769l16.532-15.40947c-3.974-6.22718-10.884-8.82858586-21.873-8.82858586-9.11 0-15.417 1.78793586-19.572 5.94746586z" fill="#9cb2ff" fill-rule="evenodd"/><path clip-rule="evenodd" d="m415.303 43.4544c0-3.2381.637-5.4032 1.976-6.7099l16.022-15.9864c-1.288 1.3139-1.902 3.458-1.902 6.6351v50.8338c0 2.8347.591 4.785 1.831 6.0042l-16.097 16.0608c-1.239-1.2188-1.83-3.1691-1.83-6.0038z" fill="#102775" fill-rule="evenodd"/><path d="m448.631 89.6546c0 23.0324-6.556 31.3454-26.361 31.3454s-26.361-8.313-26.361-31.3454v-42.2479c0-22.8956 6.556-31.3452 26.361-31.3452s26.361 8.4496 26.361 31.3452zm-33.327 4.6337c0 5.4513 2.186 7.6317 6.966 7.6317s6.966-2.1804 6.966-7.6317v-50.8338c0-5.9965-2.186-8.3133-6.966-8.3133s-6.966 2.3168-6.966 8.3133z" fill="#9cb2ff"/><path clip-rule="evenodd" d="m443.707 24.2385c3.506 5.0022 4.923 12.5242 4.923 23.1684v42.2479c0 12.2072-1.841 20.2792-6.521 25.1712l16.097-16.0613c4.679-4.8916 6.521-12.9641 6.521-25.171v-42.248c0-10.1916-1.299-17.521-4.488-22.51672z" fill="#102775" fill-rule="evenodd"/><path clip-rule="evenodd" d="m509.681 22.4666v92.1274c0 1.937-.262 3.186-.996 3.957l16.097-16.061c.733-.771.995-2.02.995-3.9568v-92.12774z" fill="#102775" fill-rule="evenodd"/><path clip-rule="evenodd" d="m472.702 58.013c-.22.2163-.305.5796-.305 1.1138v55.4672c0 1.937-.263 3.186-.996 3.957l16.096-16.061c.734-.771.996-2.02.996-3.9569v-55.4674c0-.5343.086-.8975.305-1.1138z" fill="#102775" fill-rule="evenodd"/><path clip-rule="evenodd" d="m488.375 51.0861-14.205-27.2568 16.097-16.06111 4.357 8.36081.689 1.3218 9.158 17.5741c.683 1.2266.956 1.4991 1.776 1.4991.361 0 .615-.0791.788-.249l-16.097 16.0611c-.172.1699-.427.2491-.788.2491-.819 0-1.092-.2726-1.775-1.4991z" fill="#102775" fill-rule="evenodd"/><path clip-rule="evenodd" d="m454.999 18.4634c.768-.7666 2.031-1.0392 4.012-1.0392h5.327c5.053 0 6.965.8177 9.834 6.4054l16.096-16.06117c-2.868-5.58763-4.78-6.40533-9.834-6.40533h-5.327c-1.98 0-3.243.27257-4.012 1.03916z" fill="#9cb2ff" fill-rule="evenodd"/><path clip-rule="evenodd" d="m508.382 2.40226-13.758 13.72704-2.339 2.3341c.633-.6311 1.601-.9274 3.028-1.0124.307-.0182.634-.0268.984-.0268h8.332c3.961 0 5.053 1.0903 5.053 5.0425l16.097-16.06111c0-3.95222-1.093-5.04249-5.054-5.04249h-8.331c-1.981 0-3.244.27257-4.012 1.03916z" fill="#9cb2ff" fill-rule="evenodd"/><path d="m488.377 51.0863c.683 1.2265.956 1.4991 1.776 1.4991.819 0 1.092-.4089 1.092-1.3629v-28.7558c0-3.9522 1.093-5.0425 5.054-5.0425h8.331c3.961 0 5.054 1.0903 5.054 5.0425v92.1273c0 3.953-1.093 5.043-5.054 5.043h-8.331c-3.961 0-5.054-1.09-5.054-5.043v-18.6704c0-6.4054-.956-8.7222-3.278-13.0833l-12.702-23.577c-.683-1.2266-.956-1.4991-1.776-1.4991-.819 0-1.092.4088-1.092 1.3628v55.467c0 3.953-1.093 5.043-5.054 5.043h-8.331c-3.961 0-5.054-1.09-5.054-5.043v-92.1273c0-3.9522 1.093-5.0425 5.054-5.0425h5.326c5.054 0 6.966.8177 9.834 6.4053z" fill="#9cb2ff"/><path d="m5.05371 18.563h16.66309c13.041 0 20.484 2.3861 24.752 7.2754 4.3056 4.9326 5.6601 12.7094 5.6601 24.2939v36.7969c0 11.5842-1.3547 19.3608-5.6601 24.2928-4.2679 4.89-11.7108 7.277-24.752 7.277h-16.66309c-1.96511 0-2.79403-.294-3.20801-.707-.41305-.412-.70703-1.237-.70703-3.198v-92.1267c0-1.9605.29398-2.7861.70703-3.1983.41396-.4128 1.24278-.706 3.20801-.706zm16.25289 16.8027c-.9794.0001-2.0229.1183-2.75.8438-.7278.7263-.8466 1.7699-.8466 2.748v59.1465c0 .9359.1284 1.948.8291 2.679.7113.742 1.7365.913 2.7675.913h1.503c3.9775 0 7.1252-.921 9.2422-3.2522 2.0923-2.3044 2.9589-5.7531 2.9589-10.288v-39.25c0-4.535-.8665-7.9837-2.9589-10.2881-2.117-2.3313-5.2647-3.252-9.2422-3.252z" stroke="#102775" stroke-width="2.27639"/><path d="m52.7676 114.595v-8.995c0-3.952 1.0926-5.043 5.0534-5.043h6.693l.4405-.006c4.4742-.133 6.5248-2.3447 6.5248-7.6256v-54.6494c0-1.7887-.4799-2.3801-2.1155-2.447l-.3427-.0065v-2.2714c1.0037 0 2.4772.1 3.5559 1.1762 1.0787 1.0763 1.1787 2.5472 1.1787 3.5487v54.6494c0 2.9539-.5791 5.5622-2.3003 7.4076-1.7582 1.885-4.252 2.496-6.9414 2.496h-6.693c-1.9487 0-2.3427.314-2.4025.373-.0594.06-.3745.453-.3745 2.398v8.995c0 1.945.315 2.337.3745 2.397.0595.059.4526.374 2.4025.374v2.271c-3.837 0-4.9827-1.023-5.0505-4.68zm11.4732 2.771v2.271h-6.4198v-2.271zm23.8109-27.7111v-67.1883c-.0001-1.9455-.3152-2.3379-.3746-2.3971-.0595-.0594-.4527-.3738-2.4025-.3738h-22.9465c-1.9497 0-2.343.3145-2.4024.3738-.0596.0595-.3746.4522-.3746 2.3971v8.3135c0 1.9442.3148 2.3375.3746 2.3972.0594.0593.4527.3737 2.4024.3738v2.2714c-3.8369-.0001-4.9819-1.0232-5.0498-4.6802l-.0036-.3622v-8.3135c.0001-3.9519 1.0928-5.0422 5.0534-5.0423h22.9465l.363.0029c3.665.0677 4.6904 1.2109 4.6904 5.0394v67.1883l-.005 1.0179c-.2 20.8372-6.6465 28.7142-25.1765 28.9582l-.9057.006v-2.271c9.533 0 15.21-1.975 18.6393-5.969 3.5167-4.097 5.1715-10.866 5.1716-21.7421zm-19.0306-56.1038v2.2714h-6.693v-2.2714z" fill="#102775"/><path d="m119.621 18.563h4.917c3.585 0 5.352.2983 6.457 1.0596 1.064.7326 1.732 2.0511 2.556 4.9296l.004.0127 12.43 41.5664.003.0088c1.597 5.1818 1.861 7.654 1.861 13.5655v34.8884c0 1.961-.294 2.786-.707 3.198-.414.413-1.243.706-3.208.707h-8.742c-1.966-.001-2.794-.294-3.208-.707-.413-.412-.707-1.237-.707-3.198v-17.989c0-.9782-.119-2.0218-.847-2.7481-.727-.7252-1.771-.8427-2.75-.8427h-11.2c-.98 0-2.023.1174-2.75.8427-.728.7263-.847 1.7699-.847 2.7481v17.989c0 1.961-.294 2.786-.707 3.198-.414.413-1.243.707-3.208.707h-8.741c-1.9653 0-2.7942-.294-3.2082-.707-.4131-.412-.707-1.237-.707-3.198v-34.8884c0-5.9064.2618-8.2469 1.8632-13.5733l.001-.001 12.429-41.5664.004-.0127c.824-2.8788 1.493-4.197 2.556-4.9296 1.105-.7613 2.871-1.0596 6.456-1.0596zm2.459 23.6172c-.617 0-1.413.0438-2.022.6113-.548.5105-.732 1.264-.86 1.8975l-6.284 26.3027-.005.0205-.003.0205c-.133.6607-.295 1.454-.295 2.2676 0 .8929.316 1.7133 1.059 2.2617.677.4994 1.546.6484 2.401.6484h12.019c.854 0 1.722-.1491 2.4-.6484.743-.5484 1.06-1.3687 1.06-2.2617 0-.8137-.163-1.6069-.296-2.2676l-.004-.0205-.005-.0205-6.282-26.3027c-.128-.6335-.313-1.3869-.861-1.8975-.61-.5672-1.405-.6113-2.022-.6113z" stroke="#102775" stroke-width="2.27639"/><path d="m159.584 18.563h5.327c2.506 0 3.963.2148 5.14.9385 1.188.7302 2.265 2.0882 3.682 4.8476l.003.0069 14.205 27.2568.007.0137.254.4443c.25.4211.515.8052.84 1.0859.539.467 1.123.5674 1.683.5674.586 0 1.28-.1512 1.755-.7676.414-.5366.477-1.2079.477-1.7334v-28.7558c0-1.9605.294-2.7861.707-3.1983.413-.4128 1.242-.706 3.208-.706h8.332c1.965 0 2.794.2931 3.208.706.413.4122.707 1.2378.707 3.1983v92.1267c0 1.961-.294 2.786-.707 3.198-.414.413-1.243.706-3.208.707h-8.332c-1.966 0-2.794-.294-3.208-.707-.413-.412-.707-1.237-.707-3.198v-18.6707c0-3.2563-.243-5.5486-.81-7.6093-.565-2.0558-1.438-3.8211-2.603-6.0088l-.002-.0049-12.703-23.5772-.003-.0068-.25-.4375c-.25-.4212-.516-.8052-.84-1.0859-.54-.467-1.124-.5664-1.684-.5664-.585 0-1.28.1502-1.755.7666-.414.5368-.475 1.2088-.475 1.7343v55.4666c0 1.961-.294 2.786-.707 3.198-.414.413-1.244.707-3.209.707h-8.332c-1.965 0-2.794-.294-3.208-.707-.413-.412-.707-1.237-.707-3.198v-92.1267c0-1.9605.294-2.7861.707-3.1983.414-.4128 1.243-.706 3.208-.706z" stroke="#102775" stroke-width="2.27639"/><path d="m269.036 91.0174v-24.2581c0-1.9457-.315-2.3386-.374-2.3979-.06-.0593-.453-.3737-2.403-.3737h-17.347c-1.949 0-2.343.3144-2.402.3737-.06.0593-.375.4522-.375 2.3979v8.9945c0 1.9445.315 2.3376.375 2.3972.059.0593.453.3737 2.402.3738v2.2714c-3.837-.0001-4.982-1.0233-5.05-4.6802l-.003-.3622v-8.9945c0-3.9521 1.093-5.0429 5.053-5.043h17.347l.363.0036c3.665.0678 4.69 1.2108 4.69 5.0394v24.2581l-.005 1.0186c-.203 21.172-6.86 28.964-26.356 28.964v-2.271c9.679 0 15.424-1.979 18.885-5.977 3.544-4.094 5.2-10.858 5.2-21.7346zm-18.484-12.4926v2.2714h-1.64v-2.2714zm1.639-31.7995v-3.9522c0-5.2809-2.179-7.4921-6.661-7.6253l-.442-.0065c-4.78 0-7.102 2.1804-7.102 7.6318v51.5155l.007.501c.144 4.9201 2.453 6.9954 7.039 7.1244l.466.006c5.028 0 7.364-2.0463 7.506-7.1304l.006-.501v-11.0396c0-1.7884-.48-2.3794-2.115-2.4463l-.343-.0065v-2.2714c1.004 0 2.477.0999 3.556 1.1761 1.078 1.0763 1.178 2.5466 1.178 3.5481v11.0396c0 2.9821-.625 5.6195-2.476 7.4664-1.852 1.848-4.463 2.437-7.312 2.437-2.798 0-5.39-.597-7.25-2.426-1.864-1.8354-2.538-4.464-2.538-7.4774v-51.5155c0-2.9843.626-5.5937 2.391-7.4315 1.788-1.8611 4.297-2.4717 6.987-2.4717 2.691 0 5.2.6106 6.987 2.4717 1.766 1.8378 2.392 4.4472 2.392 7.4315v3.9522c0 1.9449.315 2.3376.375 2.3971.059.0593.452.3738 2.402.3738v2.2714c-3.837 0-4.983-1.0231-5.05-4.6802zm13.794 2.7709v2.2714h-8.741v-2.2714zm2.778-2.7709v-.6817c0-10.8929-1.593-17.6573-5.076-21.7489-3.391-3.9827-9.056-5.9618-18.736-5.9618-9.678 0-15.423 1.9786-18.884 5.9763-3.544 4.0939-5.2 10.8573-5.2 21.7344v44.9738c0 10.8766 1.656 17.6406 5.2 21.7346 3.461 3.998 9.206 5.977 18.884 5.977v2.271l-.918-.006c-19.089-.249-25.442-8.378-25.442-29.9766v-44.9738c0-21.9414 6.556-29.9821 26.36-29.9821 19.805 0 26.088 8.0406 26.088 29.9821v.6817l-.003.3621c-.068 3.6572-1.214 4.6802-5.051 4.6802v-2.2714c1.95 0 2.344-.3145 2.403-.3738.06-.0599.375-.4536.375-2.3971z" fill="#102775"/><path d="m327.944 89.5933v-42.2478c0-11.3659-1.659-18.4915-5.233-22.813-3.469-4.1941-9.203-6.2611-18.852-6.2611-9.648 0-15.381 2.0671-18.85 6.2611-3.575 4.3215-5.234 11.4471-5.234 22.813v42.2478c0 11.4377 1.66 18.5587 5.231 22.8607 3.465 4.176 9.195 6.213 18.853 6.213v2.272l-.918-.007c-18.786-.253-25.237-8.402-25.437-30.2703l-.005-1.0684v-42.2478c0-22.8955 6.556-31.3454 26.36-31.3455 19.805 0 26.361 8.4499 26.361 31.3455v42.2478l-.005 1.0684c-.203 22.2213-6.86 30.2773-26.356 30.2773v-2.272c9.659 0 15.388-2.037 18.854-6.213 3.571-4.302 5.231-11.423 5.231-22.8607zm-17.119-46.2c0-5.8092-2.051-8.1655-6.525-8.307l-.441-.0065c-4.78.0001-6.965 2.3172-6.965 8.3135v50.8338l.007.501c.128 4.9201 2.188 6.9959 6.518 7.1239l.44.007c4.631 0 6.827-2.0467 6.96-7.1309l.006-.501zm2.277 50.8338c0 2.9538-.579 5.5616-2.3 7.4069-1.759 1.885-4.253 2.496-6.943 2.496-2.689 0-5.183-.611-6.941-2.496-1.721-1.8453-2.3-4.4531-2.3-7.4069v-50.8338c0-3.1848.562-5.9375 2.239-7.8855 1.751-2.0344 4.275-2.6993 7.002-2.6994 2.728 0 5.251.6649 7.003 2.6994 1.677 1.948 2.24 4.7005 2.24 7.8855z" fill="#102775"/><path d="m370.372 50.1324v-7.3593c0-5.2809-2.179-7.4921-6.662-7.6253l-.441-.0065c-4.78 0-7.102 2.1804-7.102 7.6318v51.5155l.006.501c.137 4.9201 2.317 6.9954 6.655 7.1244l.441.006c4.631 0 6.955-2.0463 7.096-7.1304l.007-.501v-7.36c0-3.9519 1.092-5.0423 5.053-5.0423h8.742l.363.0036c3.665.0678 4.69 1.2104 4.69 5.0387v4.0888l-.005 1.0186c-.195 21.172-6.588 28.964-26.083 28.964v-2.271c9.68 0 15.345-1.98 18.736-5.963 3.483-4.091 5.076-10.856 5.076-21.7486v-4.0888c0-1.9454-.315-2.3379-.375-2.3972-.059-.0592-.452-.3737-2.402-.3737h-8.742c-1.949 0-2.343.3142-2.402.3737-.06.0593-.375.4518-.375 2.3972v7.36c0 2.9842-.627 5.5938-2.392 7.4314-1.787 1.861-4.296 2.472-6.987 2.472-2.69 0-5.199-.611-6.987-2.472-1.765-1.8376-2.391-4.4472-2.391-7.4314v-51.5155c0-2.9843.626-5.5937 2.391-7.4315 1.788-1.8611 4.297-2.4717 6.987-2.4717 2.691 0 5.2.6106 6.987 2.4717 1.765 1.8378 2.392 4.4472 2.392 7.4315v7.3593c0 1.9446.315 2.3375.375 2.3971.059.0593.452.3738 2.402.3738v2.2714c-3.837-.0001-4.983-1.0231-5.051-4.6802zm13.795 2.7709v2.2714h-8.742v-2.2714zm2.777-2.7709v-4.0888c0-10.8929-1.593-17.6573-5.076-21.7489-3.391-3.9827-9.056-5.9618-18.736-5.9618-9.678 0-15.423 1.9786-18.884 5.9763-3.544 4.0939-5.2 10.8573-5.2 21.7344v44.9738c0 10.8766 1.656 17.6406 5.2 21.7346 3.461 3.998 9.206 5.977 18.884 5.977v2.271l-.918-.006c-19.089-.249-25.442-8.378-25.442-29.9766v-44.9738c0-21.9414 6.556-29.9821 26.36-29.9821 19.805 0 26.088 8.0406 26.088 29.9821v4.0888l-.003.3621c-.066 3.5391-1.141 4.6117-4.687 4.6773l-.363.0029v-2.2714c1.95-.0001 2.343-.3145 2.402-.3738.06-.0599.375-.4535.375-2.3971z" fill="#102775"/><path d="m422.27 17.2001c9.776 0 15.939 2.0898 19.73 6.6739 3.844 4.647 5.492 12.1269 5.492 23.5332v42.247c0 11.4768-1.649 18.9538-5.491 23.5828-3.79 4.566-9.95 6.624-19.731 6.624s-15.942-2.058-19.732-6.624c-3.841-4.629-5.49-12.106-5.49-23.5828v-42.247c0-11.4065 1.648-18.8862 5.492-23.5332 3.792-4.584 9.954-6.6738 19.73-6.6739zm0 16.8028c-2.558 0-4.69.6219-6.138 2.3037-1.411 1.639-1.966 4.0554-1.966 7.1474v50.834c0 2.8406.563 5.1 1.996 6.637 1.451 1.556 3.569 2.133 6.108 2.134 2.539 0 4.657-.578 6.108-2.134 1.433-1.537 1.996-3.7965 1.996-6.637v-50.834c0-3.0919-.555-5.5084-1.966-7.1474-1.447-1.6819-3.58-2.3037-6.138-2.3037z" stroke="#102775" stroke-width="2.27639"/><path d="m459.012 18.563h5.326c2.506 0 3.964.2148 5.141.9385 1.187.7302 2.265 2.0882 3.681 4.8476l.003.0069 14.205 27.2568.007.0137.254.4443c.25.4211.515.8052.84 1.0859.54.467 1.123.5674 1.683.5674.586 0 1.28-.1512 1.755-.7676.414-.5366.477-1.2079.477-1.7334v-28.7558c0-1.9605.294-2.7861.707-3.1983.414-.4128 1.243-.706 3.208-.706h8.332c1.965 0 2.794.2931 3.208.706.413.4122.707 1.2378.707 3.1983v92.1267c0 1.961-.294 2.786-.707 3.198-.414.413-1.243.706-3.208.707h-8.332c-1.965 0-2.794-.294-3.208-.707-.413-.412-.707-1.237-.707-3.198v-18.6707c0-3.2563-.243-5.5486-.81-7.6093-.565-2.0558-1.438-3.8211-2.602-6.0088l-.002-.0049-12.703-23.5772-.003-.0068-.25-.4375c-.25-.4212-.517-.8052-.841-1.0859-.54-.467-1.124-.5664-1.684-.5664-.585 0-1.279.1502-1.755.7666-.413.5368-.475 1.2088-.475 1.7343v55.4666c0 1.961-.294 2.786-.707 3.198-.414.413-1.244.707-3.209.707h-8.331c-1.965 0-2.794-.294-3.208-.707-.413-.412-.707-1.237-.707-3.198v-92.1267c0-1.9605.294-2.7861.707-3.1983.414-.4128 1.242-.706 3.208-.706z" stroke="#102775" stroke-width="2.27639"/><g clip-rule="evenodd" fill-rule="evenodd"><path d="m577.931 17.424c-1.954 0-3.21.2656-3.981 1.0089-.011.01-.021.0201-.031.0303l.031-.0303 16.065-16.03088c.768-.7666 2.032-1.03917 4.012-1.03917h8.742c3.961 0 5.053 1.09027 5.053 5.0425l-16.096 16.06115c0-3.9522-1.093-5.0425-5.054-5.0425z" fill="#9cb2ff"/><path d="m575.762 84.087-16.096 16.061c1.229 1.227 3.107 1.772 5.702 1.772 2.527 0 4.405-.545 5.651-1.772l16.097-16.061c-1.246 1.2265-3.124 1.7717-5.651 1.7717-2.595 0-4.473-.5452-5.703-1.7717z" fill="#9cb2ff"/><path d="m557.855 22.4665v71.8214c0 2.7257.58 4.6337 1.81 5.8601l16.096-16.061c-1.229-1.2266-1.81-3.1345-1.81-5.8602v-59.7939-12.02757z" fill="#102775"/><path d="m591.728 91.0171v-68.5506l16.097-16.06117v68.55067c0 11.6291-1.842 19.3534-6.521 24.0454l-16.097 16.0616c4.68-4.692 6.521-12.417 6.521-24.0459z" fill="#102775"/><path d="m544.062 17.424c-1.98 0-3.243.2726-4.012 1.0392l16.097-16.06118c.768-.7666 2.031-1.03917 4.012-1.03917h8.741c3.961 0 5.054 1.09027 5.054 5.0425l-16.097 16.06115c0-3.9522-1.092-5.0425-5.053-5.0425z" fill="#9cb2ff"/><path d="m616.572 94.2878v-5.9964l16.097-16.0612v5.9965c0 5.4514 2.185 7.6319 6.966 7.6319 2.39 0 4.131-.5111 5.275-1.6354l-16.096 16.0608c-1.144 1.125-2.886 1.636-5.276 1.636-4.78 0-6.966-2.1808-6.966-7.6322z" fill="#102775"/><path d="m602.233 83.2489c-1.98 0-3.244.2726-4.012 1.0391l16.097-16.0611c.768-.7666 2.031-1.0392 4.012-1.0392h9.287c3.961 0 5.054 1.0903 5.054 5.0425l-16.096 16.0612c0-3.9522-1.093-5.0425-5.054-5.0425z" fill="#102775"/><path d="m603.438 22.4434c.051-.051.101-.1018.153-.1523z" fill="#102775"/><path d="m603.438 22.4434c.051-.051.101-.1018.153-.1523z" fill="#102775"/><path d="m603.438 22.4441c.051-.0513.102-.1022.153-.1529zm58.719-12.97007c-3.852-6.70977-10.909-9.47403-22.521-9.47403-9.506 0-15.96 2.19798-20.101 6.38294l-15.944 15.90826c4.147-4.0856 10.559-6.2301 19.949-6.2301 11.182 0 18.14 2.5634 22.08 8.7448z" fill="#9cb2ff"/><path d="m649.902 94.2879v-2.4531l16.096-16.0611v2.4531c0 8.9293-1.772 15.7949-6.259 20.3286l-16.096 16.0616c4.486-4.534 6.259-11.4 6.259-20.3291z" fill="#102775"/><path d="m616.572 44.4081c0 3.9522.82 5.8602 4.644 9.4035l17.483 15.8089c9.151 8.1771 11.2 13.0833 11.2 22.2143l16.096-16.0612c0-9.131-2.049-14.0372-11.2-22.2142l-17.482-15.8089c-3.825-3.5434-4.644-5.4514-4.644-9.4036z" fill="#102775"/><path d="m616.572 42.0914c0-2.4532.547-4.1908 1.69-5.3151l16.049-16.0133c-1.111 1.1256-1.642 2.8486-1.642 5.2672v2.3168l-16.097 16.0612zm17.787-21.3763-.048.0479c.016-.0161.032-.032.048-.0479z" fill="#102775"/><path d="m645.62 24.8059c3.037 4.7666 4.28 11.6846 4.28 21.2376v2.7257c0 1.9366-.262 3.186-.996 3.9567l16.097-16.0611c.733-.7707.996-2.0202.996-3.9568v-2.7256c0-9.0766-1.122-15.7745-3.84-20.5084z" fill="#102775"/></g><path d="m621.22 53.8117 17.483 15.8089c9.151 8.177 11.199 13.0832 11.199 22.2142v2.4531c0 17.1721-6.556 26.7111-26.36 26.7111-19.805 0-26.361-8.04-26.361-29.9819v-2.7257c0-3.9522 1.093-5.0425 5.054-5.0425h9.287c3.961 0 5.054 1.0903 5.054 5.0425v5.9965c0 5.4514 2.185 7.6321 6.966 7.6321 4.78 0 6.965-2.0445 6.965-6.9507v-2.5894c0-3.8159-.819-5.7239-5.873-10.2212l-16.39-14.5824c-9.151-8.0407-11.063-12.6744-11.063-21.8054v-2.9982c0-17.1717 6.556-26.7116 26.361-26.7116 19.804 0 26.36 8.0407 26.36 29.9824v2.7257c0 3.9522-1.092 5.0425-5.053 5.0425h-9.288c-3.961 0-5.054-1.0903-5.054-5.0425v-5.9965c0-5.4514-2.185-7.6319-6.965-7.6319-4.781 0-6.966 2.0443-6.966 6.9505v2.3168c0 3.9522.82 5.8602 4.644 9.4036z" fill="#9cb2ff"/><path d="m572.879 22.4664c0-3.9522 1.093-5.0424 5.054-5.0424h8.741c3.961 0 5.054 1.0902 5.054 5.0424v68.5507c0 21.9419-6.556 29.9829-26.361 29.9829s-26.361-8.041-26.361-29.9829v-68.5507c0-3.9522 1.093-5.0424 5.054-5.0424h8.741c3.961 0 5.054 1.0902 5.054 5.0424v71.8215c0 5.4514 2.322 7.6321 7.512 7.6321 5.054 0 7.512-2.1807 7.512-7.6321z" fill="#9cb2ff"/><path d="m623.542 17.2c9.79 0 15.959 1.994 19.747 6.3692 3.828 4.4225 5.475 11.551 5.475 22.4746v2.7255c0 1.9601-.294 2.7851-.707 3.1973-.414.413-1.243.707-3.208.707h-9.288c-1.966 0-2.794-.294-3.208-.707-.413-.4122-.707-1.237-.707-3.1973v-5.996c0-2.8405-.563-5.1-1.996-6.6368-1.451-1.556-3.569-2.1338-6.108-2.1338-2.522.0001-4.622.5351-6.074 1.962-1.455 1.4308-2.03 3.5322-2.03 6.1269v2.3164c0 2.0541.211 3.7158 1.001 5.3506.777 1.6093 2.065 3.0894 4.007 4.8887l.011.0088 17.482 15.8086.005.0048c4.535 4.0523 7.207 7.2064 8.767 10.4004 1.55 3.1719 2.053 6.4863 2.053 10.9649v2.4531c0 8.4791-1.625 14.8101-5.458 19.0301-3.811 4.197-10.024 6.543-19.764 6.543-9.791 0-15.959-1.994-19.747-6.369-3.828-4.423-5.475-11.551-5.475-22.4746v-2.7256c0-1.9605.294-2.7861.707-3.1982.414-.4128 1.243-.7061 3.208-.7061h9.287c1.965 0 2.795.2931 3.209.7061.413.4121.707 1.2377.707 3.1982v5.9961c0 2.8406.563 5.1 1.996 6.6371 1.451 1.556 3.568 2.133 6.108 2.133 2.521 0 4.621-.535 6.073-1.962 1.455-1.4303 2.031-3.5317 2.031-6.1265v-2.5888c0-2.0023-.216-3.6519-1.184-5.4053-.936-1.6969-2.531-3.4063-5.071-5.667l-16.391-14.582-.004-.0049c-4.538-3.9871-7.17-7.0374-8.693-10.1406-1.512-3.0809-1.983-6.3221-1.983-10.8096v-2.998c0-8.4789 1.625-14.8097 5.458-19.0303 3.811-4.1972 10.023-6.543 19.764-6.543z" stroke="#102775" stroke-width="2.27639"/><path d="m544.06 18.5626h8.741c1.966 0 2.794.2932 3.208.7061.413.4121.707 1.2377.707 3.1982v71.8213c0 2.8547.604 5.1288 2.145 6.6658 1.54 1.537 3.784 2.104 6.506 2.104 2.661 0 4.897-.571 6.45-2.099 1.556-1.5313 2.2-3.8006 2.2-6.6708v-71.8213c0-1.9604.294-2.786.707-3.1982.414-.413 1.244-.7061 3.209-.7061h8.741c1.966.0001 2.794.2931 3.208.7061.413.4121.707 1.2377.707 3.1982v68.5498c0 10.9233-1.647 18.0523-5.475 22.4743-3.788 4.375-9.956 6.37-19.747 6.37s-15.959-1.995-19.746-6.37c-3.829-4.422-5.476-11.551-5.476-22.4743v-68.5498c0-1.9605.294-2.7861.707-3.1982.414-.4129 1.243-.7061 3.208-.7061z" stroke="#102775" stroke-width="2.27639"/><path clip-rule="evenodd" d="m184.817 131c9.808 0 16.167 2.042 20.027 6.892l-15.411 15.45c-3.854-4.908-10.229-6.973-20.092-6.973-8.909 0-15.03 1.685-19.021 5.629l15.423-15.317c3.99-3.981 10.125-5.681 19.074-5.681z" fill="#ff6752" fill-rule="evenodd"/><path clip-rule="evenodd" d="m169.471 228.527c-2.206 0-3.867-.48-4.999-1.557l15.04-15.846c1.122 1.413 2.926 2.034 5.435 2.034 2.206 0 3.867-.48 4.999-1.557l-15.476 15.369c-1.131 1.077-2.793 1.557-4.999 1.557z" fill="#ff6752" fill-rule="evenodd"/><path clip-rule="evenodd" d="m162.644 171.929c0-2.712.603-4.578 1.829-5.745l15.337-15.231c-1.133 1.173-1.691 2.999-1.691 5.607v49.296c0 2.369.46 4.093 1.394 5.268l-15.04 15.846c-1.226-1.167-1.829-3.033-1.829-5.745zm17.304-21.114-.138.138c.045-.047.091-.093.138-.138z" fill="#102775" fill-rule="evenodd"/><path clip-rule="evenodd" d="m194.422 218.095v-3.913l15.475-15.369v3.913c0 11.128-1.696 18.519-6.126 23.009l-15.475 15.369c4.429-4.49 6.126-11.881 6.126-23.009z" fill="#102775" fill-rule="evenodd"/><path clip-rule="evenodd" d="m181.158 209.357c-1.904 0-3.119.261-3.857.995l15.475-15.369c.739-.734 1.953-.995 3.857-.995h8.404c3.808 0 4.859 1.044 4.859 4.825l-15.475 15.369c0-3.781-1.051-4.825-4.859-4.825z" fill="#102775" fill-rule="evenodd"/><path d="m194.423 214.183v3.912c0 20.996-6.041 28.69-25.081 28.69s-25.343-7.694-25.343-28.69v-43.035c0-20.996 6.303-28.691 25.343-28.691s25.081 7.695 25.081 28.691v3.912c0 3.782-1.051 4.825-4.859 4.825h-8.404c-3.808 0-4.858-1.043-4.858-4.825v-7.042c0-5.217-2.233-7.303-6.829-7.303s-6.828 2.086-6.828 7.303v49.295c0 5.216 2.232 7.303 6.828 7.303s6.829-2.087 6.829-7.303v-7.042c0-3.782 1.05-4.825 4.858-4.825h8.404c3.808 0 4.859 1.043 4.859 4.825z" fill="#ff6752"/><path clip-rule="evenodd" d="m189.432 153.342c3.586 4.568 4.99 11.597 4.99 21.717v3.913c0 1.853-.253 3.048-.958 3.786l15.475-15.369c.706-.738.958-1.933.958-3.786v-3.913c0-10.18-1.42-17.232-5.053-21.798z" fill="#102775" fill-rule="evenodd"/><path clip-rule="evenodd" d="m219.167 203.958c-.361.359-.492.946-.492 1.859v35.211c0 1.853-.252 3.048-.957 3.786l15.475-15.369c.705-.738.957-1.933.957-3.786v-35.211c0-.913.132-1.5.493-1.859z" fill="#102775" fill-rule="evenodd"/><path clip-rule="evenodd" d="m234.663 169.327-15.475 15.369c.363.36.948.516 1.849.516h10.768c.901 0 1.486-.156 1.849-.516l15.475-15.369c-.363.36-.948.516-1.849.516h-10.767c-.901 0-1.487-.156-1.85-.516z" fill="#ff6752" fill-rule="evenodd"/><path clip-rule="evenodd" d="m218.677 152.87v29.995c0 .864.137 1.458.514 1.831l15.476-15.369c-.378-.373-.515-.967-.515-1.831v-29.995z" fill="#102775" fill-rule="evenodd"/><path clip-rule="evenodd" d="m205.412 148.045c-1.904 0-3.119.261-3.857.994l15.475-15.369c.739-.733 1.953-.994 3.857-.994h8.404c3.808 0 4.859 1.043 4.859 4.825l-15.475 15.369c0-3.782-1.051-4.825-4.859-4.825z" fill="#ff6752" fill-rule="evenodd"/><path clip-rule="evenodd" d="m252.29 241.028v-88.158l15.475-15.369v88.158c0 1.853-.252 3.049-.957 3.786l-15.475 15.369c.705-.738.957-1.933.957-3.786z" fill="#102775" fill-rule="evenodd"/><path clip-rule="evenodd" d="m239.029 148.045c-1.904 0-3.119.261-3.857.994l15.475-15.369c.739-.733 1.953-.994 3.857-.994h8.404c3.808 0 4.859 1.043 4.859 4.825l-15.476 15.369c0-3.782-1.05-4.825-4.858-4.825z" fill="#ff6752" fill-rule="evenodd"/><path d="m234.172 241.028v-35.211c0-1.826-.526-2.347-2.364-2.347h-10.768c-1.838 0-2.363.521-2.363 2.347v35.211c0 3.782-1.051 4.825-4.859 4.825h-8.404c-3.808 0-4.858-1.043-4.858-4.825v-88.158c0-3.782 1.05-4.825 4.858-4.825h8.404c3.808 0 4.859 1.043 4.859 4.825v29.995c0 1.695.525 2.347 2.363 2.347h10.768c1.838 0 2.364-.652 2.364-2.347v-29.995c0-3.782 1.05-4.825 4.858-4.825h8.404c3.808 0 4.859 1.043 4.859 4.825v88.158c0 3.782-1.051 4.825-4.859 4.825h-8.404c-3.808 0-4.858-1.043-4.858-4.825z" fill="#ff6752"/><path clip-rule="evenodd" d="m279.782 241.028v-88.158l15.476-15.369v88.158c0 1.853-.252 3.048-.958 3.786l-15.475 15.369c.705-.738.957-1.933.957-3.786z" fill="#102775" fill-rule="evenodd"/><path clip-rule="evenodd" d="m266.517 148.045c-1.904 0-3.118.261-3.857.994l15.475-15.369c.739-.733 1.953-.994 3.857-.994h8.404c3.809 0 4.859 1.043 4.859 4.825l-15.475 15.369c0-3.782-1.051-4.825-4.859-4.825z" fill="#ff6752" fill-rule="evenodd"/><path d="m279.782 152.87v88.158c0 3.782-1.051 4.825-4.859 4.825h-8.404c-3.808 0-4.858-1.043-4.858-4.825v-88.158c0-3.782 1.05-4.825 4.858-4.825h8.404c3.808 0 4.859 1.043 4.859 4.825z" fill="#ff6752"/><path clip-rule="evenodd" d="m328.167 131.372c9.554 0 15.835 1.937 19.722 6.52l-16.295 14.478c-3.93-3.944-9.993-5.629-18.903-5.629s-15.03 1.685-19.021 5.629l15.423-15.317c3.989-3.981 10.125-5.681 19.074-5.681z" fill="#ff6752" fill-rule="evenodd"/><path clip-rule="evenodd" d="m312.821 228.899c-2.206 0-3.867-.48-4.999-1.557l15.04-15.846c1.122 1.413 2.926 2.034 5.434 2.034 2.207 0 3.868-.48 4.999-1.557l-15.475 15.369c-1.131 1.077-2.793 1.557-4.999 1.557z" fill="#ff6752" fill-rule="evenodd"/><path clip-rule="evenodd" d="m305.993 172.301c0-2.712.604-4.578 1.83-5.745l15.336-15.231c-1.132 1.173-1.69 2.999-1.69 5.607v49.296c0 2.369.46 4.093 1.394 5.268l-15.04 15.846c-1.226-1.167-1.83-3.033-1.83-5.745zm17.305-21.114-.139.138c.046-.047.092-.093.139-.138z" fill="#102775" fill-rule="evenodd"/><path clip-rule="evenodd" d="m337.772 218.466v-3.912l15.475-15.369v3.912c0 11.128-1.697 18.52-6.126 23.01l-15.475 15.369c4.429-4.49 6.126-11.882 6.126-23.01z" fill="#102775" fill-rule="evenodd"/><path clip-rule="evenodd" d="m324.51 209.729c-1.904 0-3.119.261-3.857.995l15.475-15.369c.738-.734 1.953-.995 3.857-.995h8.404c3.808 0 4.859 1.044 4.859 4.825l-15.476 15.369c0-3.781-1.05-4.825-4.858-4.825z" fill="#102775" fill-rule="evenodd"/><path d="m337.77 214.554v3.913c0 20.996-6.04 28.69-25.08 28.69-19.041 0-25.344-7.694-25.344-28.69v-43.036c0-20.996 6.303-28.69 25.344-28.69 19.04 0 25.08 7.694 25.08 28.69v3.912c0 3.782-1.05 4.826-4.858 4.826h-8.404c-3.808 0-4.859-1.044-4.859-4.826v-7.042c0-5.216-2.232-7.303-6.828-7.303s-6.828 2.087-6.828 7.303v49.295c0 5.217 2.232 7.303 6.828 7.303s6.828-2.086 6.828-7.303v-7.042c0-3.782 1.051-4.825 4.859-4.825h8.404c3.808 0 4.858 1.043 4.858 4.825z" fill="#ff6752"/><path clip-rule="evenodd" d="m331.593 152.37c4.468 4.485 6.178 11.89 6.178 23.061v3.912c0 1.854-.252 3.049-.957 3.787l15.475-15.369c.705-.738.958-1.933.958-3.787v-3.912c0-10.46-1.5-17.619-5.359-22.17z" fill="#102775" fill-rule="evenodd"/><path clip-rule="evenodd" d="m380.009 154.194 1.241 4.13.291.97 10.418 34.675c1.576 5.086 1.837 7.564 1.837 13.302v33.385c0 1.891-.262 3.097-1.001 3.831l15.476-15.369c.738-.734 1.001-1.94 1.001-3.831v-33.385c0-5.738-.262-8.216-1.838-13.302l-11.95-39.775z" fill="#102775" fill-rule="evenodd"/><path clip-rule="evenodd" d="m360.696 221.563c-.378.356-.514.948-.514 1.879v17.214c0 1.853-.252 3.049-.958 3.787l15.475-15.369c.706-.738.958-1.934.958-3.787v-17.214c0-.931.137-1.523.514-1.879z" fill="#102775" fill-rule="evenodd"/><path clip-rule="evenodd" d="m362.15 202.837c-.824 0-1.434-.169-1.806-.533l15.475-15.369c.373.364.983.533 1.806.533h11.555c.824 0 1.434-.169 1.807-.533l-15.476 15.369c-.372.364-.982.533-1.806.533zm19.391-43.543.155-.647c.126-.626.252-1.012.48-1.243l-.927.92z" fill="#ff6752" fill-rule="evenodd"/><path clip-rule="evenodd" d="m358.05 149.459c.043-.045.087-.088.132-.131zm37.433-10.634c-1.575-5.477-2.889-6.521-9.718-6.521h-4.727c-4.028 0-6.137.364-7.513 1.786l-15.343 15.238c1.378-1.314 3.479-1.655 7.381-1.655h4.727c6.828 0 8.143 1.044 9.717 6.521z" fill="#ff6752" fill-rule="evenodd"/><path clip-rule="evenodd" d="m366.221 174.016c.129-.639.258-1.027.495-1.257l14.534-14.435.927-.92c-.228.231-.354.617-.48 1.243l-.155.647-5.885 24.523c-.132.652-.263 1.304-.263 1.956 0 .504.145.889.426 1.162l-15.475 15.369c-.281-.273-.427-.658-.427-1.162 0-.652.132-1.304.264-1.956z" fill="#102775" fill-rule="evenodd"/><path d="m360.181 240.656c0 3.782-1.05 4.825-4.858 4.825h-8.404c-3.808 0-4.859-1.043-4.859-4.825v-33.385c0-5.738.263-8.085 1.838-13.302l11.95-39.775c1.576-5.477 2.889-6.52 9.717-6.52h4.727c6.828 0 8.142 1.043 9.717 6.52l11.95 39.775c1.575 5.086 1.838 7.564 1.838 13.302v33.385c0 3.782-1.05 4.825-4.858 4.825h-8.404c-3.808 0-4.859-1.043-4.859-4.825v-17.214c0-1.826-.525-2.347-2.364-2.347h-10.767c-1.839 0-2.364.521-2.364 2.347zm13.525-37.819c1.445 0 2.233-.521 2.233-1.695 0-.652-.132-1.304-.263-1.956l-6.04-25.169c-.263-1.305-.526-1.565-1.707-1.565-1.182 0-1.445.26-1.707 1.565l-6.041 25.169c-.131.652-.262 1.304-.262 1.956 0 1.174.787 1.695 2.232 1.695z" fill="#ff6752"/><path clip-rule="evenodd" d="m417.61 171.93c0-2.713.604-4.579 1.83-5.746l15.336-15.231c-1.132 1.174-1.69 2.999-1.69 5.608v49.295c0 2.958.76 4.91 2.304 6.045l-16.33 14.562c-.97-1.175-1.45-2.889-1.45-5.238zm17.305-21.115-.139.138c.046-.047.092-.093.139-.138z" fill="#102775" fill-rule="evenodd"/><path clip-rule="evenodd" d="m424.832 228.528c-2.671 0-4.587-.631-5.772-2.065l16.33-14.562c1.179.867 2.814 1.258 4.917 1.258 2.445 0 4.228-.501 5.411-1.626l-15.475 15.369c-1.183 1.125-2.966 1.626-5.411 1.626z" fill="#ff6752" fill-rule="evenodd"/><path clip-rule="evenodd" d="m449.651 218.095v-23.213l15.475-15.369v23.213c0 11.128-1.77 18.519-6.269 23.009l-15.476 15.369c4.499-4.49 6.27-11.881 6.27-23.009z" fill="#102775" fill-rule="evenodd"/><path clip-rule="evenodd" d="m428.114 190.057c-1.904 0-3.118.26-3.857.994l15.475-15.369c.739-.734 1.954-.994 3.858-.994h16.676c3.808 0 4.859 1.043 4.859 4.825l-15.475 15.369c0-3.782-1.051-4.825-4.859-4.825z" fill="#102775" fill-rule="evenodd"/><path clip-rule="evenodd" d="m424.306 146.369c-8.91 0-15.03 1.685-19.021 5.629l15.423-15.317c3.989-3.981 10.125-5.681 19.074-5.681 8.948 0 15.026 1.7 18.954 5.681 4.429 4.49 6.126 11.882 6.126 23.01l-15.475 15.369c0-12.106-2.008-19.79-7.358-24.126-3.929-3.185-9.66-4.565-17.723-4.565z" fill="#ff6752" fill-rule="evenodd"/><path clip-rule="evenodd" d="m405.285 151.998c3.991-3.944 10.111-5.629 19.021-5.629 8.063 0 13.794 1.38 17.723 4.565l16.707-14.253c-3.928-3.981-10.006-5.681-18.954-5.681-8.949 0-15.085 1.7-19.074 5.681z" fill="#ff6752" fill-rule="evenodd"/><path d="m432.052 210.662c0-1.826-.525-2.348-2.363-2.348h-1.576c-3.808 0-4.859-1.043-4.859-4.825v-8.607c0-3.782 1.051-4.825 4.859-4.825h16.676c3.808 0 4.859 1.043 4.859 4.825v23.213c0 20.996-6.303 28.69-25.343 28.69-19.041 0-25.344-7.694-25.344-28.69v-43.035c0-20.996 6.303-28.691 25.344-28.691 19.04 0 25.08 7.695 25.08 28.691v.652c0 3.782-1.05 4.825-4.858 4.825h-8.404c-3.808 0-4.859-1.043-4.859-4.825v-3.782c0-5.217-2.232-7.303-6.828-7.303s-6.828 2.086-6.828 7.303v49.295c0 5.216 2.363 7.303 7.222 7.303 4.99 0 7.222-2.087 7.222-7.303z" fill="#ff6752"/><path clip-rule="evenodd" d="m442.03 150.934c5.35 4.336 7.358 12.02 7.358 24.126v.652c0 1.853-.252 3.048-.958 3.786l15.476-15.369c.705-.738.957-1.933.957-3.786v-.652c0-6.434-.567-11.618-1.901-15.715-.138-.422-.283-.833-.437-1.232-.129-.334-.264-.66-.404-.978-.882-1.995-2-3.681-3.384-5.084z" fill="#102775" fill-rule="evenodd"/><path clip-rule="evenodd" d="m506.524 216.791v-40.427l15.475-15.369v40.427c0 11.681-1.771 19.405-6.27 24.086l-15.475 15.369c4.499-4.681 6.27-12.405 6.27-24.086z" fill="#102775" fill-rule="evenodd"/><path clip-rule="evenodd" d="m481.181 228.528c-2.206 0-3.838-.481-4.938-1.558l15.476-15.369c1.1 1.077 2.731 1.558 4.937 1.558s3.837-.481 4.937-1.558l-15.475 15.369c-1.1 1.077-2.731 1.558-4.937 1.558z" fill="#ff6752" fill-rule="evenodd"/><path clip-rule="evenodd" d="m462.402 152.024c3.994-3.954 10.047-5.655 18.779-5.655 10.188 0 16.73 2.315 20.61 7.825l15.583-15.215c-3.867-5.62-10.435-7.979-20.718-7.979-8.758 0-14.822 1.711-18.816 5.691z" fill="#ff6752" fill-rule="evenodd"/><path clip-rule="evenodd" d="m501.791 154.194c3.371 4.786 4.734 11.984 4.734 22.17l15.475-15.369c0-10.077-1.333-17.229-4.626-22.016z" fill="#102775" fill-rule="evenodd"/><path clip-rule="evenodd" d="m474.485 172.582c0-3.099.613-5.171 1.9-6.421l15.404-15.298c-1.239 1.258-1.828 3.31-1.828 6.35v48.643c0 2.712.568 4.579 1.759 5.745l-15.475 15.369c-1.192-1.166-1.76-3.033-1.76-5.745z" fill="#102775" fill-rule="evenodd"/><path d="m506.525 216.791c0 22.039-6.303 29.994-25.343 29.994-19.041 0-25.344-7.955-25.344-29.994v-40.427c0-21.909 6.303-29.995 25.344-29.995 19.04 0 25.343 8.086 25.343 29.995zm-32.04 4.434c0 5.216 2.101 7.303 6.697 7.303s6.697-2.087 6.697-7.303v-48.643c0-5.738-2.101-7.955-6.697-7.955s-6.697 2.217-6.697 7.955z" fill="#ff6752"/><path d="m169.343 147.354c9.425 0 15.325 1.911 18.931 6.127 3.645 4.261 5.164 11.115 5.164 21.579v3.912c0 1.877-.28 2.706-.709 3.133-.433.429-1.273.708-3.165.708h-8.404c-1.891 0-2.731-.279-3.163-.708-.43-.427-.711-1.256-.711-3.133v-7.042c0-2.722-.579-4.853-1.967-6.291-1.396-1.447-3.419-1.996-5.845-1.996-2.427 0-4.45.549-5.846 1.996-1.388 1.438-1.967 3.569-1.967 6.291v49.295c0 2.722.579 4.852 1.967 6.291 1.396 1.447 3.419 1.996 5.846 1.996 2.426 0 4.449-.549 5.845-1.996 1.388-1.439 1.967-3.569 1.967-6.291v-7.042c0-1.877.281-2.706.711-3.133.432-.429 1.272-.708 3.163-.708h8.404c1.892 0 2.732.279 3.165.708.429.427.709 1.256.709 3.133v3.912c0 10.463-1.519 17.318-5.164 21.579-3.606 4.216-9.506 6.127-18.931 6.127s-15.397-1.91-19.07-6.133c-3.707-4.262-5.29-11.116-5.29-21.573v-43.035c0-10.457 1.583-17.311 5.29-21.573 3.673-4.223 9.645-6.133 19.07-6.133z" stroke="#102775" stroke-width="1.96876"/><path d="m205.413 149.029h8.404c1.891 0 2.731.279 3.163.708.43.427.711 1.256.711 3.133v29.994c0 .892.125 1.824.768 2.492.652.677 1.597.84 2.58.84h10.768c.983 0 1.929-.163 2.581-.84.643-.668.767-1.6.767-2.492v-29.994c0-1.877.28-2.706.71-3.133.432-.429 1.273-.708 3.164-.708h8.405c1.891 0 2.73.279 3.163.708.43.427.711 1.256.711 3.133v88.157c0 1.877-.281 2.706-.711 3.133-.433.429-1.272.708-3.163.708h-8.405c-1.892 0-2.732-.279-3.164-.708-.43-.427-.71-1.256-.71-3.133v-35.211c0-.934-.116-1.894-.783-2.556-.665-.661-1.627-.775-2.565-.775h-10.768c-.939 0-1.899.114-2.564.775-.668.662-.784 1.622-.784 2.556v35.211c0 1.877-.281 2.706-.711 3.133-.432.429-1.271.708-3.163.708h-8.404c-1.891 0-2.731-.279-3.163-.708-.43-.427-.711-1.256-.711-3.133v-88.157c0-1.877.281-2.706.711-3.133.432-.429 1.272-.708 3.163-.708z" stroke="#102775" stroke-width="1.96876"/><path d="m266.52 149.029h8.404c1.891 0 2.731.279 3.163.708.43.427.711 1.256.711 3.133v88.157c0 1.877-.281 2.706-.711 3.133-.432.429-1.272.708-3.163.708h-8.404c-1.892 0-2.731-.279-3.164-.708-.429-.427-.71-1.256-.71-3.133v-88.157c0-1.877.281-2.706.71-3.133.433-.429 1.272-.708 3.164-.708z" stroke="#102775" stroke-width="1.96876"/><path d="m312.69 147.725c9.426 0 15.326 1.911 18.932 6.127 3.645 4.261 5.164 11.116 5.164 21.579v3.912c0 1.877-.28 2.706-.71 3.133-.432.429-1.272.708-3.164.708h-8.404c-1.891 0-2.731-.279-3.163-.708-.43-.427-.711-1.256-.711-3.133v-7.042c0-2.721-.579-4.852-1.967-6.291-1.396-1.447-3.42-1.996-5.846-1.996s-4.449.549-5.845 1.996c-1.389 1.439-1.967 3.57-1.967 6.291v49.295c0 2.722.578 4.853 1.967 6.291 1.396 1.447 3.419 1.996 5.845 1.996s4.45-.549 5.846-1.996c1.388-1.438 1.967-3.569 1.967-6.291v-7.042c0-1.876.281-2.706.711-3.132.432-.429 1.272-.708 3.163-.708h8.404c1.892 0 2.732.278 3.164.708.43.426.71 1.256.71 3.132v3.912c0 10.464-1.519 17.318-5.164 21.58-3.606 4.215-9.506 6.126-18.932 6.126-9.424 0-15.396-1.91-19.069-6.132-3.707-4.263-5.29-11.117-5.29-21.574v-43.035c0-10.456 1.583-17.311 5.29-21.573 3.673-4.222 9.645-6.133 19.069-6.133z" stroke="#102775" stroke-width="1.96876"/><path d="m365.566 148.657h4.727c3.444 0 5.177.284 6.272 1.035 1.057.725 1.707 2.022 2.499 4.774l.004.011 11.949 39.775.002.008c1.54 4.97 1.795 7.346 1.795 13.011v33.385c0 1.876-.281 2.705-.711 3.132-.432.429-1.272.708-3.163.708h-8.404c-1.892 0-2.732-.278-3.164-.708-.43-.427-.71-1.256-.71-3.132v-17.214c0-.935-.116-1.894-.784-2.557-.665-.661-1.626-.775-2.565-.775h-10.768c-.938 0-1.899.115-2.564.775-.667.663-.783 1.622-.783 2.557v17.214c0 1.876-.281 2.705-.711 3.132-.432.429-1.272.708-3.163.708h-8.405c-1.891 0-2.73-.279-3.163-.708-.43-.427-.711-1.256-.711-3.132v-33.385c0-5.66.253-7.91 1.796-13.018l.001-.001 11.95-39.775.002-.011c.792-2.752 1.443-4.049 2.5-4.774 1.095-.751 2.828-1.035 6.272-1.035zm2.363 22.81c-.592 0-1.315.044-1.867.556-.5.464-.673 1.154-.797 1.763l-6.04 25.169-.008.035c-.127.635-.282 1.385-.282 2.152 0 .83.295 1.581.977 2.081.623.457 1.429.599 2.24.599h11.556c.81 0 1.617-.142 2.24-.599.681-.5.976-1.251.976-2.081 0-.767-.154-1.517-.282-2.152l-.008-.035-6.04-25.169c-.124-.609-.296-1.299-.797-1.763-.551-.512-1.275-.556-1.868-.556z" stroke="#102775" stroke-width="1.96876"/><path d="m447.461 218.095v-23.213c0-1.861-.303-2.237-.36-2.294s-.435-.358-2.31-.358h-16.677c-1.874 0-2.253.301-2.31.358s-.36.433-.36 2.294v8.607c0 1.861.303 2.237.36 2.294s.435.358 2.31.358v2.173c-3.689 0-4.79-.979-4.855-4.478l-.003-.347v-8.607c0-3.781 1.05-4.825 4.858-4.825h16.677l.349.003c3.524.065 4.51 1.159 4.51 4.822v23.213l-.005.975c-.196 20.26-6.596 27.716-25.339 27.716v-2.174c9.305 0 14.829-1.894 18.156-5.719 3.407-3.918 4.999-10.39 4.999-20.798zm-17.771-11.954v2.173h-1.576v-2.173zm1.576-30.429v-3.782c0-5.053-2.095-7.169-6.404-7.297l-.424-.006c-4.596 0-6.829 2.086-6.829 7.303v49.295l.007.48c.139 4.708 2.358 6.694 6.767 6.817l.448.006c4.834 0 7.081-1.958 7.216-6.823l.007-.48v-10.564c-.001-1.711-.462-2.276-2.034-2.34l-.33-.007v-2.173c.965 0 2.382.095 3.419 1.125s1.133 2.437 1.133 3.395v10.564c0 2.854-.601 5.378-2.381 7.145-1.78 1.768-4.29 2.332-7.03 2.332-2.689 0-5.182-.571-6.97-2.322-1.792-1.756-2.44-4.271-2.44-7.155v-49.295c0-2.856.602-5.353 2.299-7.111 1.719-1.781 4.131-2.366 6.718-2.366 2.586 0 4.999.585 6.717 2.366 1.697 1.758 2.299 4.255 2.299 7.111v3.782c0 1.861.303 2.237.36 2.294.058.056.436.357 2.31.357v2.174c-3.689 0-4.79-.979-4.855-4.479zm13.262 2.651v2.174h-8.404v-2.174zm2.67-2.651v-.653c0-10.423-1.531-16.896-4.88-20.811-3.259-3.811-8.706-5.705-18.012-5.705-9.305 0-14.828 1.893-18.155 5.719-3.408 3.917-5 10.389-5 20.797v43.036c0 10.408 1.592 16.88 5 20.798 3.327 3.825 8.85 5.719 18.155 5.719v2.174l-.883-.006c-18.353-.239-24.46-8.017-24.46-28.685v-43.036c0-20.995 6.303-28.69 25.343-28.69s25.081 7.695 25.081 28.69v.653l-.003.346c-.066 3.5-1.167 4.479-4.856 4.479v-2.174c1.875 0 2.253-.301 2.31-.357.058-.058.36-.434.36-2.294z" fill="#102775"/><path d="m481.182 147.354c9.411 0 15.377 2.002 19.053 6.426 3.721 4.476 5.305 11.666 5.305 22.584v40.427c0 10.985-1.584 18.173-5.303 22.632-3.674 4.407-9.639 6.378-19.055 6.378-9.417 0-15.382-1.971-19.057-6.378-3.719-4.459-5.303-11.647-5.303-22.632v-40.427c0-10.918 1.585-18.108 5.305-22.584 3.676-4.424 9.643-6.426 19.055-6.426zm0 16.289c-2.442 0-4.455.59-5.818 2.166-1.332 1.54-1.864 3.822-1.864 6.773v48.643c0 2.708.54 4.839 1.891 6.281 1.365 1.458 3.365 2.006 5.791 2.006 2.425 0 4.424-.548 5.79-2.006 1.351-1.442 1.89-3.573 1.89-6.281v-48.643c0-2.951-.532-5.233-1.864-6.773-1.363-1.576-3.375-2.166-5.816-2.166z" stroke="#102775" stroke-width="1.96876"/></svg>