<?xml version="1.0" encoding="UTF-8"?><svg width="147px" height="34px" viewBox="0 0 147 26" version="1.1" xmlns="http://www.w3.org/2000/svg" xmlns:xlink="http://www.w3.org/1999/xlink"><g id="NEXT-2021" stroke="none" stroke-width="1" fill="none" fill-rule="evenodd" transform="translate(0, 3)"><g id="Group" fill="#FBBB04"><path d="M3.02780103,17.1982992 C1.01190217,15.2232993 0,12.8493494 0,10.0803995 C0,7.31144965 1.00794943,4.93749976 3.02780103,2.96249986 C5.0436999,0.987499952 7.44696756,0 10.237604,0 C12.9096582,0 15.21806,0.924299955 17.1509513,2.77684987 L15.2062018,4.72024977 C13.8108836,3.40884984 12.1546843,2.75314987 10.237604,2.75314987 C8.22170516,2.75314987 6.5101675,3.46414983 5.10694378,4.89404976 C3.70372006,6.31999969 3.00408458,8.05009961 3.00408458,10.0803995 C3.00408458,12.1146494 3.70372006,13.8407993 5.10694378,15.2667493 C6.5101675,16.6926992 8.21775242,17.4076492 10.237604,17.4076492 C12.2890776,17.4076492 13.9848043,16.7361492 15.3326896,15.3891993 C16.1350964,14.5873493 16.6370947,13.4299994 16.8347319,11.9210994 L10.2415568,11.9210994 L10.2415568,9.16794956 L19.5186443,9.16794956 C19.6174628,9.65774953 19.6648958,10.2344495 19.6648958,10.8901495 C19.6648958,13.5958993 18.8703944,15.7407492 17.2774391,17.3325992 C15.4710356,19.2206991 13.1270591,20.160799 10.237604,20.160799 C7.44696756,20.160799 5.04765264,19.1732991 3.02780103,17.1982992 Z M31.7958636,18.3042991 C30.5309859,19.5406491 28.9894162,20.160799 27.1711545,20.160799 C25.3528927,20.160799 23.8073703,19.5406491 22.5464453,18.3042991 C21.2815676,17.0679492 20.6530815,15.5234993 20.6530815,13.6709493 C20.6530815,11.8183994 21.2855203,10.2739495 22.5464453,9.03759956 C23.811323,7.80124962 25.3528927,7.18109965 27.1711545,7.18109965 C28.9894162,7.18109965 30.5349386,7.80124962 31.7958636,9.03759956 C33.0607413,10.2739495 33.6892274,11.8223494 33.6892274,13.6709493 C33.6892274,15.5234993 33.0567886,17.0679492 31.7958636,18.3042991 Z M24.5860606,16.4872992 C25.3094126,17.2338492 26.1671578,17.6051491 27.1711545,17.6051491 C28.1711984,17.6051491 29.0328963,17.2338492 29.7562483,16.4872992 C30.4796002,15.7407492 30.8392998,14.8045993 30.8392998,13.6709493 C30.8392998,12.5254494 30.483553,11.5813994 29.7681065,10.8427495 C29.0526601,10.1040995 28.1909621,9.73674953 27.1711545,9.73674953 C26.1552995,9.73674953 25.2896488,10.1040995 24.5742024,10.8427495 C23.8587559,11.5813994 23.5030091,12.5214994 23.5030091,13.6709493 C23.5030091,14.8006493 23.8627087,15.7407492 24.5860606,16.4872992 Z M46.0178324,18.3042991 C44.7529547,19.5406491 43.211385,20.160799 41.3931233,20.160799 C39.5748616,20.160799 38.0293391,19.5406491 36.7684141,18.3042991 C35.5035364,17.0679492 34.8750503,15.5234993 34.8750503,13.6709493 C34.8750503,11.8183994 35.5074892,10.2739495 36.7684141,9.03759956 C38.0293391,7.80124962 39.5748616,7.18109965 41.3931233,7.18109965 C43.211385,7.18109965 44.7569075,7.80124962 46.0178324,9.03759956 C47.2827101,10.2739495 47.9111963,11.8223494 47.9111963,13.6709493 C47.9111963,15.5234993 47.2787574,17.0679492 46.0178324,18.3042991 Z M38.8080294,16.4872992 C39.5313814,17.2338492 40.3891266,17.6051491 41.3931233,17.6051491 C42.3931672,17.6051491 43.2548652,17.2338492 43.9782171,16.4872992 C44.7015691,15.7407492 45.0612687,14.8045993 45.0612687,13.6709493 C45.0612687,12.5254494 44.7055218,11.5813994 43.9900753,10.8427495 C43.2746289,10.1040995 42.4129309,9.73674953 41.3931233,9.73674953 C40.3772684,9.73674953 39.5116177,10.1040995 38.7961712,10.8427495 C38.0807248,11.5813994 37.7249779,12.5214994 37.7249779,13.6709493 C37.7249779,14.8006493 38.0846775,15.7407492 38.8080294,16.4872992 L38.8080294,16.4872992 Z M55.3660693,25.9909987 C53.9233182,25.9909987 52.7098261,25.6038988 51.7255931,24.8336488 C50.7413602,24.0633988 50.0377719,23.1706989 49.6108757,22.1515989 L52.097151,21.120649 C52.358032,21.744749 52.7691172,22.2858989 53.326454,22.7440989 C53.8837907,23.2022989 54.5636625,23.4313989 55.370022,23.4313989 C56.4530736,23.4313989 57.3029133,23.1035489 57.9155885,22.4478489 C58.5322163,21.7921489 58.8365775,20.848099 58.8365775,19.6196491 L58.8365775,18.6834991 L58.737759,18.6834991 C57.9353522,19.6670491 56.7930095,20.160799 55.3186364,20.160799 C53.6624371,20.160799 52.2117805,19.5287991 50.9627138,18.2687491 C49.7175998,17.0086992 49.0930664,15.4839993 49.0930664,13.6946493 C49.0930664,11.8934494 49.7175998,10.3529495 50.9627138,9.08499956 C52.2078278,7.81704962 53.6624371,7.18109965 55.3186364,7.18109965 C56.0577993,7.18109965 56.7258129,7.31934965 57.322677,7.59979963 C57.9195412,7.88024962 58.3938703,8.2238996 58.737759,8.63074958 L58.8365775,8.63074958 L58.8365775,7.57214963 L61.5442064,7.57214963 L61.5442064,19.2285991 C61.5442064,21.491949 60.9671059,23.1825489 59.8089523,24.3082988 C58.6507986,25.4261488 57.1724728,25.9909987 55.3660693,25.9909987 L55.3660693,25.9909987 Z M55.5637064,17.6051491 C56.5479394,17.6051491 57.3740627,17.2338492 58.0381235,16.4872992 C58.7021843,15.7407492 59.0342147,14.8124993 59.0342147,13.6946493 C59.0342147,12.5649494 58.7021843,11.6208994 58.0381235,10.8664495 C57.3740627,10.1119995 56.5479394,9.73674953 55.5637064,9.73674953 C54.5636625,9.73674953 53.70987,10.1159495 53.0062818,10.8664495 C52.2987408,11.6208994 51.9469467,12.5609994 51.9469467,13.6946493 C51.9469467,14.8085493 52.2987408,15.7407492 53.0062818,16.4872992 C53.70987,17.2338492 54.5636625,17.6051491 55.5637064,17.6051491 Z M66.3665527,0.687299967 L66.3665527,19.769749 L63.5126723,19.769749 L63.5126723,0.687299967 L66.3665527,0.687299967 Z M74.1890308,20.160799 C72.3510054,20.160799 70.8173412,19.5366991 69.5880381,18.2924491 C68.3587351,17.0481992 67.7421072,15.5076993 67.7421072,13.6709493 C67.7421072,11.7709994 68.3350186,10.2107495 69.5247942,8.99809957 C70.7145698,7.78544962 72.1612737,7.17714965 73.8688587,7.17714965 C74.6554545,7.17714965 75.3867119,7.31934965 76.0586782,7.60769963 C76.7306445,7.89604962 77.2879812,8.2633996 77.7306884,8.71369958 C78.1733956,9.16399956 78.5251897,9.60244954 78.7900235,10.0290495 C79.0509046,10.4556495 79.2643527,10.8822495 79.4303679,11.3088495 L79.7268236,12.0474994 L71.0426475,15.6380492 C71.7146138,16.9494492 72.7660434,17.6051491 74.1929836,17.6051491 C75.5052942,17.6051491 76.5725348,17.0086992 77.3907525,15.8118492 L79.6042886,17.2891492 C79.1101957,18.0277991 78.4145129,18.6913991 77.5132876,19.2799491 C76.6081095,19.868499 75.5013415,20.160799 74.1890308,20.160799 L74.1890308,20.160799 Z M70.5722711,13.4734493 L76.3788504,11.0639495 C76.2128352,10.6531495 75.9124267,10.3213495 75.4697195,10.0685495 C75.0270123,9.81574953 74.525014,9.68934953 73.9676772,9.68934953 C73.1296957,9.68934953 72.3470527,10.0329995 71.619748,10.7202995 C70.8884905,11.4075994 70.5406492,12.3279494 70.5722711,13.4734493 L70.5722711,13.4734493 Z" id="Shape"></path></g><g id="Group" transform="translate(85.000000, 1.000000)" fill="#5F6368"><path d="M9.71167178,19.160799 C7.11867246,19.160799 4.94466389,18.2838991 3.18964605,16.5300992 C1.43462822,14.7762992 0.557119306,12.5879993 0.557119306,9.96519947 C0.557119306,7.3423996 1.43462822,5.1540997 3.18964605,3.40029979 C4.94466389,1.64649987 7.11867246,0.769599915 9.71167178,0.769599915 C12.367915,0.769599915 14.5261126,1.72944987 16.1823119,3.64519978 L14.6091202,5.1698997 C13.4114391,3.67679977 11.7789563,2.93419981 9.71167178,2.93419981 C7.79063875,2.93419981 6.17396692,3.58199978 4.8537508,4.87759972 C3.53353468,6.17319965 2.87342662,7.86774957 2.87342662,9.96519947 C2.87342662,12.0626494 3.53353468,13.7611493 4.8537508,15.0567492 C6.17396692,16.3523492 7.79459149,17.0001491 9.71167178,17.0001491 C11.8263892,17.0001491 13.6327927,16.1469492 15.1229768,14.4444993 L16.6961684,16.0165992 C15.8937616,16.9843491 14.8818594,17.7506491 13.6683674,18.3154991 C12.4588281,18.880349 11.138612,19.160799 9.71167178,19.160799 L9.71167178,19.160799 Z M20.9809417,18.769749 L18.71602,18.769749 L18.71602,1.1645999 L20.9809417,1.1645999 L20.9809417,18.769749 L20.9809417,18.769749 Z M24.6728035,8.16004956 C25.8388627,6.93949962 27.3211412,6.32724965 29.1275447,6.32724965 C30.9299955,6.32724965 32.4162268,6.93949962 33.5822859,8.16004956 C34.7483451,9.3805995 35.3293983,10.9092494 35.3293983,12.7459993 C35.3293983,14.5827492 34.7483451,16.1113992 33.5822859,17.3319491 C32.4162268,18.5524991 30.9339482,19.164749 29.1275447,19.164749 C27.3211412,19.164749 25.8388627,18.5524991 24.6728035,17.3319491 C23.5067444,16.1113992 22.9256912,14.5827492 22.9256912,12.7459993 C22.9256912,10.9092494 23.5067444,9.3805995 24.6728035,8.16004956 Z M26.356672,15.9020492 C27.1353623,16.6959991 28.0603042,17.0949491 29.123592,17.0949491 C30.1908326,17.0949491 31.1118217,16.6959991 31.890512,15.9020492 C32.6692023,15.1080992 33.0605239,14.0534493 33.0605239,12.7420493 C33.0605239,11.4306494 32.6692023,10.3759995 31.890512,9.58204949 C31.1118217,8.78809953 30.1868798,8.38914955 29.123592,8.38914955 C28.0563514,8.38914955 27.1353623,8.78809953 26.356672,9.58204949 C25.5779816,10.3759995 25.1866601,11.4306494 25.1866601,12.7420493 C25.1866601,14.0534493 25.5779816,15.1080992 26.356672,15.9020492 Z M47.8516877,18.769749 L45.6855846,18.769749 L45.6855846,17.0988991 L45.586766,17.0988991 C45.2428774,17.6716491 44.7171626,18.1614491 44.0135744,18.5603991 C43.3099861,18.963299 42.5629177,19.164749 41.7763219,19.164749 C40.2663741,19.164749 39.1240314,18.706549 38.3453411,17.7861991 C37.5666507,16.8697991 37.1753292,15.6373992 37.1753292,14.0968993 L37.1753292,6.71829963 L39.4402509,6.71829963 L39.4402509,13.7255993 C39.4402509,15.9731492 40.4323893,17.0949491 42.4166662,17.0949491 C43.3534663,17.0949491 44.1163457,16.7196991 44.7053044,15.9652492 C45.294263,15.2107992 45.5907188,14.3417993 45.5907188,13.3582493 L45.5907188,6.71829963 L47.8556404,6.71829963 L47.8556404,18.769749 L47.8516877,18.769749 L47.8516877,18.769749 Z M55.5279143,19.160799 C53.9705336,19.160799 52.6226483,18.5445991 51.4921639,17.3161491 C50.3616794,16.0876992 49.7964372,14.5629992 49.7964372,12.7420493 C49.7964372,10.9210994 50.3616794,9.3963995 51.4921639,8.16794956 C52.6226483,6.93949962 53.9705336,6.32329965 55.5279143,6.32329965 C56.4449507,6.32329965 57.2710739,6.52079964 58.0023314,6.91184962 C58.7335888,7.3068496 59.2790673,7.79664958 59.6387669,8.38914955 L59.7375855,8.38914955 L59.6387669,6.71829963 L59.6387669,1.1645999 L61.9036886,1.1645999 L61.9036886,18.769749 L59.7375855,18.769749 L59.7375855,17.0988991 L59.6387669,17.0988991 C59.2790673,17.6874491 58.7335888,18.1811991 58.0023314,18.5761991 C57.2710739,18.963299 56.4449507,19.160799 55.5279143,19.160799 L55.5279143,19.160799 Z M55.8955194,17.0949491 C56.96276,17.0949491 57.8679381,16.6999491 58.6150065,15.9138992 C59.3620749,15.1278492 59.7336327,14.0692493 59.7336327,12.7420493 C59.7336327,11.4148494 59.3620749,10.3562495 58.6150065,9.57019949 C57.8679381,8.78414953 56.96276,8.38914955 55.8955194,8.38914955 C54.8440898,8.38914955 53.9428644,8.78809953 53.1878905,9.58204949 C52.4329167,10.3759995 52.0574061,11.4306494 52.0574061,12.7420493 C52.0574061,14.0534493 52.4329167,15.1080992 53.1878905,15.9020492 C53.9428644,16.6999491 54.8480426,17.0949491 55.8955194,17.0949491 Z" id="Shape"></path></g><g id="Group" transform="translate(20.000000, 7.000000)" fill="#EB4337"><path d="M11.7958636,11.3042991 C10.5309859,12.5406491 8.98941617,13.160799 7.17115445,13.160799 C5.35289273,13.160799 3.80737027,12.5406491 2.5464453,11.3042991 C1.28156758,10.0679492 0.653081468,8.52349925 0.653081468,6.67094934 C0.653081468,4.81839943 1.28552033,3.2739495 2.5464453,2.03759956 C3.81132302,0.801249623 5.35289273,0.181099653 7.17115445,0.181099653 C8.98941617,0.181099653 10.5349386,0.801249623 11.7958636,2.03759956 C13.0607413,3.2739495 13.6892274,4.82234943 13.6892274,6.67094934 C13.6892274,8.52349925 13.0567886,10.0679492 11.7958636,11.3042991 Z M4.58606062,9.4872992 C5.30941256,10.2338492 6.16715776,10.6051491 7.17115445,10.6051491 C8.1711984,10.6051491 9.03289634,10.2338492 9.75624829,9.4872992 C10.4796002,8.74074924 10.8392998,7.80459929 10.8392998,6.67094934 C10.8392998,5.5254494 10.483553,4.58139944 9.76810651,3.84274948 C9.05266006,3.10409951 8.19096211,2.73674953 7.17115445,2.73674953 C6.15529954,2.73674953 5.28964885,3.10409951 4.57420239,3.84274948 C3.85875593,4.58139944 3.50300907,5.5214994 3.50300907,6.67094934 C3.50300907,7.80064929 3.86270867,8.74074924 4.58606062,9.4872992 Z M54.1890308,13.160799 C52.3510054,13.160799 50.8173412,12.5366991 49.5880381,11.2924491 C48.3587351,10.0481992 47.7421072,8.50769925 47.7421072,6.67094934 C47.7421072,4.77099943 48.3350186,3.21074951 49.5247942,1.99809957 C50.7145698,0.785449624 52.1612737,0.177149653 53.8688587,0.177149653 C54.6554545,0.177149653 55.3867119,0.319349647 56.0586782,0.607699633 C56.7306445,0.896049619 57.2879812,1.2633996 57.7306884,1.71369958 C58.1733956,2.16399956 58.5251897,2.60244954 58.7900235,3.02904952 C59.0509046,3.4556495 59.2643527,3.88224947 59.4303679,4.30884945 L59.7268236,5.04749942 L51.0426475,8.63804924 C51.7146138,9.94944918 52.7660434,10.6051491 54.1929836,10.6051491 C55.5052942,10.6051491 56.5725348,10.0086992 57.3907525,8.81184924 L59.6042886,10.2891492 C59.1101957,11.0277991 58.4145129,11.6913991 57.5132876,12.2799491 C56.6081095,12.868499 55.5013415,13.160799 54.1890308,13.160799 L54.1890308,13.160799 Z M50.5722711,6.47344935 L56.3788504,4.06394947 C56.2128352,3.65314949 55.9124267,3.3213495 55.4697195,3.06854951 C55.0270123,2.81574953 54.525014,2.68934953 53.9676772,2.68934953 C53.1296957,2.68934953 52.3470527,3.03299952 51.619748,3.72029948 C50.8884905,4.40759945 50.5406492,5.3279494 50.5722711,6.47344935 L50.5722711,6.47344935 Z" id="Shape"></path></g><g id="Group" fill="#4285F4"><path d="M3.02780103,17.1982992 C1.01190217,15.2232993 0,12.8493494 0,10.0803995 C0,7.31144965 1.00794943,4.93749976 3.02780103,2.96249986 C5.0436999,0.987499952 7.44696756,0 10.237604,0 C12.9096582,0 15.21806,0.924299955 17.1509513,2.77684987 L15.2062018,4.72024977 C13.8108836,3.40884984 12.1546843,2.75314987 10.237604,2.75314987 C8.22170516,2.75314987 6.5101675,3.46414983 5.10694378,4.89404976 C3.70372006,6.31999969 3.00408458,8.05009961 3.00408458,10.0803995 C3.00408458,12.1146494 3.70372006,13.8407993 5.10694378,15.2667493 C6.5101675,16.6926992 8.21775242,17.4076492 10.237604,17.4076492 C12.2890776,17.4076492 13.9848043,16.7361492 15.3326896,15.3891993 C16.1350964,14.5873493 16.6370947,13.4299994 16.8347319,11.9210994 L10.2415568,11.9210994 L10.2415568,9.16794956 L19.5186443,9.16794956 C19.6174628,9.65774953 19.6648958,10.2344495 19.6648958,10.8901495 C19.6648958,13.5958993 18.8703944,15.7407492 17.2774391,17.3325992 C15.4710356,19.2206991 13.1270591,20.160799 10.237604,20.160799 C7.44696756,20.160799 5.04765264,19.1732991 3.02780103,17.1982992 Z M55.3660693,25.9909987 C53.9233182,25.9909987 52.7098261,25.6038988 51.7255931,24.8336488 C50.7413602,24.0633988 50.0377719,23.1706989 49.6108757,22.1515989 L52.097151,21.120649 C52.358032,21.744749 52.7691172,22.2858989 53.326454,22.7440989 C53.8837907,23.2022989 54.5636625,23.4313989 55.370022,23.4313989 C56.4530736,23.4313989 57.3029133,23.1035489 57.9155885,22.4478489 C58.5322163,21.7921489 58.8365775,20.848099 58.8365775,19.6196491 L58.8365775,18.6834991 L58.737759,18.6834991 C57.9353522,19.6670491 56.7930095,20.160799 55.3186364,20.160799 C53.6624371,20.160799 52.2117805,19.5287991 50.9627138,18.2687491 C49.7175998,17.0086992 49.0930664,15.4839993 49.0930664,13.6946493 C49.0930664,11.8934494 49.7175998,10.3529495 50.9627138,9.08499956 C52.2078278,7.81704962 53.6624371,7.18109965 55.3186364,7.18109965 C56.0577993,7.18109965 56.7258129,7.31934965 57.322677,7.59979963 C57.9195412,7.88024962 58.3938703,8.2238996 58.737759,8.63074958 L58.8365775,8.63074958 L58.8365775,7.57214963 L61.5442064,7.57214963 L61.5442064,19.2285991 C61.5442064,21.491949 60.9671059,23.1825489 59.8089523,24.3082988 C58.6507986,25.4261488 57.1724728,25.9909987 55.3660693,25.9909987 L55.3660693,25.9909987 Z M55.5637064,17.6051491 C56.5479394,17.6051491 57.3740627,17.2338492 58.0381235,16.4872992 C58.7021843,15.7407492 59.0342147,14.8124993 59.0342147,13.6946493 C59.0342147,12.5649494 58.7021843,11.6208994 58.0381235,10.8664495 C57.3740627,10.1119995 56.5479394,9.73674953 55.5637064,9.73674953 C54.5636625,9.73674953 53.70987,10.1159495 53.0062818,10.8664495 C52.2987408,11.6208994 51.9469467,12.5609994 51.9469467,13.6946493 C51.9469467,14.8085493 52.2987408,15.7407492 53.0062818,16.4872992 C53.70987,17.2338492 54.5636625,17.6051491 55.5637064,17.6051491 Z M66.3665527,0.687299967 L66.3665527,19.769749 L63.5126723,19.769749 L63.5126723,0.687299967 L66.3665527,0.687299967 Z" id="Shape"></path></g><polygon id="Shape" fill="#35A752" points="66.3665527 0.687299967 66.3665527 19.769749 63.5126723 19.769749 63.5126723 0.687299967"></polygon></g></svg>
