<svg width="800" height="470" viewBox="0 0 800 470" fill="none" xmlns="http://www.w3.org/2000/svg">
<path d="M114.671 419.165L294.168 263.381C337.073 226.423 372.693 190.754 372.693 140.617C372.693 82.5299 337.073 49.5107 275.695 49.5107C214.318 49.5107 172.774 89.1191 172.774 152.47V161.047H117.358V149.157C117.321 62.0632 182.636 0.000183105 275.659 0.000183105C375.305 0.000183105 429.397 54.7746 429.397 137.967C429.397 207.282 384.541 250.829 329.75 297.726L191.173 415.226H432.672V466.061H114.671V419.201V419.165Z" fill="black"/>
<path d="M505.823 404.624C473.478 361.04 462.292 299.677 462.292 236.951C462.292 91.1069 524.295 0.000183105 639.102 0.000183105C720.939 0.000183105 777.68 47.5229 790.228 120.813H734.811C723.588 77.8918 692.568 48.8481 637.152 48.8481C555.977 48.8481 515.758 117.5 515.758 221.123C515.758 225.761 515.758 230.362 516.42 236.289C536.217 190.091 584.385 158.397 646.425 158.397C740.11 158.397 799.501 221.123 799.501 312.855C799.501 404.587 734.848 469.963 636.526 469.963C578.46 469.963 535.555 444.895 505.86 404.624H505.823ZM742.723 314.217C742.723 250.866 703.129 207.282 637.814 207.282C572.499 207.282 532.243 250.203 532.243 314.217C532.243 374.292 573.162 421.152 637.152 421.152C701.142 421.152 742.723 378.231 742.723 314.217Z" fill="black"/>
<path d="M0 244.149V466.231H57.98V302.122C57.98 270.089 32.0376 244.149 0 244.149Z" fill="black"/>
<path d="M0 221.854C32.0376 221.854 57.98 195.915 57.98 163.881V-0.227173H0V221.854Z" fill="black"/>
</svg>
