<svg width="61" height="64" viewBox="0 0 61 64" fill="none" xmlns="http://www.w3.org/2000/svg"><path d="M21.2281 19.7578C20.8433 19.7578 20.531 20.0701 20.531 20.4549C20.531 20.8396 20.8433 21.1519 21.2281 21.1519C21.6128 21.1519 21.9251 20.8396 21.9251 20.4549C21.9251 20.0701 21.6128 19.7578 21.2281 19.7578Z" fill="#232323" stroke="#232323" stroke-width="3"></path><mask id="path-2-inside-1_842_291" fill="#000000"><path d="M47.1586 16.9705C47.5435 16.9705 47.8556 16.6583 47.8556 16.2734V12.0911C47.8556 10.9381 46.9175 10 45.7645 10H14.2579C13.1048 10 12.1667 10.9381 12.1667 12.0911V16.2734C12.1667 16.6583 12.4788 16.9705 12.8638 16.9705C14.7856 16.9705 16.349 18.534 16.349 20.4557C16.349 22.3775 14.7856 23.941 12.8638 23.941C12.4788 23.941 12.1667 24.2531 12.1667 24.638V28.8203C12.1667 29.9734 13.1048 30.9115 14.2579 30.9115H45.7645C46.9175 30.9115 47.8556 29.9734 47.8556 28.8203V24.638C47.8556 24.2531 47.5435 23.941 47.1586 23.941C45.2368 23.941 43.6733 22.3775 43.6733 20.4557C43.6733 18.534 45.2368 16.9705 47.1586 16.9705ZM42.2792 20.4557C42.2792 22.9096 44.1001 24.9462 46.4615 25.2854V28.8203C46.4615 29.2047 46.1488 29.5174 45.7645 29.5174H21.9254V27.4262C21.9254 27.0413 21.6134 26.7292 21.2284 26.7292C20.8434 26.7292 20.5313 27.0413 20.5313 27.4262V29.5174H14.2579C13.8735 29.5174 13.5608 29.2047 13.5608 28.8203V25.2854C15.9223 24.9462 17.7431 22.9096 17.7431 20.4557C17.7431 18.0019 15.9223 15.9653 13.5608 15.626V12.0911C13.5608 11.7068 13.8735 11.3941 14.2579 11.3941H20.5313V13.4852C20.5313 13.8702 20.8434 14.1823 21.2284 14.1823C21.6134 14.1823 21.9254 13.8702 21.9254 13.4852V11.3941H45.7645C46.1488 11.3941 46.4615 11.7068 46.4615 12.0911V15.626C44.1001 15.9653 42.2792 18.0019 42.2792 20.4557Z"></path></mask><path d="M47.1586 16.9705C47.5435 16.9705 47.8556 16.6583 47.8556 16.2734V12.0911C47.8556 10.9381 46.9175 10 45.7645 10H14.2579C13.1048 10 12.1667 10.9381 12.1667 12.0911V16.2734C12.1667 16.6583 12.4788 16.9705 12.8638 16.9705C14.7856 16.9705 16.349 18.534 16.349 20.4557C16.349 22.3775 14.7856 23.941 12.8638 23.941C12.4788 23.941 12.1667 24.2531 12.1667 24.638V28.8203C12.1667 29.9734 13.1048 30.9115 14.2579 30.9115H45.7645C46.9175 30.9115 47.8556 29.9734 47.8556 28.8203V24.638C47.8556 24.2531 47.5435 23.941 47.1586 23.941C45.2368 23.941 43.6733 22.3775 43.6733 20.4557C43.6733 18.534 45.2368 16.9705 47.1586 16.9705ZM42.2792 20.4557C42.2792 22.9096 44.1001 24.9462 46.4615 25.2854V28.8203C46.4615 29.2047 46.1488 29.5174 45.7645 29.5174H21.9254V27.4262C21.9254 27.0413 21.6134 26.7292 21.2284 26.7292C20.8434 26.7292 20.5313 27.0413 20.5313 27.4262V29.5174H14.2579C13.8735 29.5174 13.5608 29.2047 13.5608 28.8203V25.2854C15.9223 24.9462 17.7431 22.9096 17.7431 20.4557C17.7431 18.0019 15.9223 15.9653 13.5608 15.626V12.0911C13.5608 11.7068 13.8735 11.3941 14.2579 11.3941H20.5313V13.4852C20.5313 13.8702 20.8434 14.1823 21.2284 14.1823C21.6134 14.1823 21.9254 13.8702 21.9254 13.4852V11.3941H45.7645C46.1488 11.3941 46.4615 11.7068 46.4615 12.0911V15.626C44.1001 15.9653 42.2792 18.0019 42.2792 20.4557Z" fill="#232323"></path><path d="M46.4615 25.2854H49.4615V22.6856L46.8881 22.3159L46.4615 25.2854ZM21.9254 29.5174H18.9254V32.5174H21.9254V29.5174ZM20.5313 29.5174V32.5174H23.5313V29.5174H20.5313ZM13.5608 25.2854L13.1342 22.3159L10.5608 22.6856V25.2854H13.5608ZM13.5608 15.626H10.5608V18.2258L13.1342 18.5955L13.5608 15.626ZM20.5313 11.3941H23.5313V8.3941H20.5313V11.3941ZM21.9254 11.3941V8.3941H18.9254V11.3941H21.9254ZM46.4615 15.626L46.8881 18.5955L49.4615 18.2258V15.626H46.4615ZM47.1586 19.9705C49.2003 19.9705 50.8556 18.3152 50.8556 16.2734H44.8556C44.8556 15.0015 45.8867 13.9705 47.1586 13.9705V19.9705ZM50.8556 16.2734V12.0911H44.8556V16.2734H50.8556ZM50.8556 12.0911C50.8556 9.28123 48.5744 7 45.7645 7V13C45.2607 13 44.8556 12.5949 44.8556 12.0911H50.8556ZM45.7645 7H14.2579V13H45.7645V7ZM14.2579 7C11.448 7 9.16675 9.28123 9.16675 12.0911H15.1667C15.1667 12.5949 14.7617 13 14.2579 13V7ZM9.16675 12.0911V16.2734H15.1667V12.0911H9.16675ZM9.16675 16.2734C9.16675 18.315 10.8218 19.9705 12.8638 19.9705V13.9705C14.1359 13.9705 15.1667 15.0017 15.1667 16.2734H9.16675ZM12.8638 19.9705C13.1287 19.9705 13.349 20.1908 13.349 20.4557H19.349C19.349 16.8771 16.4424 13.9705 12.8638 13.9705V19.9705ZM13.349 20.4557C13.349 20.7206 13.1287 20.941 12.8638 20.941V26.941C16.4424 26.941 19.349 24.0343 19.349 20.4557H13.349ZM12.8638 20.941C10.8218 20.941 9.16675 22.5965 9.16675 24.638H15.1667C15.1667 25.9098 14.1359 26.941 12.8638 26.941V20.941ZM9.16675 24.638V28.8203H15.1667V24.638H9.16675ZM9.16675 28.8203C9.16675 31.6302 11.448 33.9115 14.2579 33.9115V27.9115C14.7617 27.9115 15.1667 28.3165 15.1667 28.8203H9.16675ZM14.2579 33.9115H45.7645V27.9115H14.2579V33.9115ZM45.7645 33.9115C48.5744 33.9115 50.8556 31.6302 50.8556 28.8203H44.8556C44.8556 28.3165 45.2607 27.9115 45.7645 27.9115V33.9115ZM50.8556 28.8203V24.638H44.8556V28.8203H50.8556ZM50.8556 24.638C50.8556 22.5962 49.2003 20.941 47.1586 20.941V26.941C45.8867 26.941 44.8556 25.91 44.8556 24.638H50.8556ZM47.1586 20.941C46.8937 20.941 46.6733 20.7206 46.6733 20.4557H40.6733C40.6733 24.0343 43.58 26.941 47.1586 26.941V20.941ZM46.6733 20.4557C46.6733 20.1908 46.8937 19.9705 47.1586 19.9705V13.9705C43.58 13.9705 40.6733 16.8771 40.6733 20.4557H46.6733ZM39.2792 20.4557C39.2792 24.4247 42.2195 27.7068 46.0349 28.255L46.8881 22.3159C45.9806 22.1856 45.2792 21.3944 45.2792 20.4557H39.2792ZM43.4615 25.2854V28.8203H49.4615V25.2854H43.4615ZM43.4615 28.8203C43.4615 27.5478 44.492 26.5174 45.7645 26.5174V32.5174C47.8057 32.5174 49.4615 30.8615 49.4615 28.8203H43.4615ZM45.7645 26.5174H21.9254V32.5174H45.7645V26.5174ZM24.9254 29.5174V27.4262H18.9254V29.5174H24.9254ZM24.9254 27.4262C24.9254 25.3846 23.2704 23.7292 21.2284 23.7292V29.7292C19.9563 29.7292 18.9254 28.698 18.9254 27.4262H24.9254ZM21.2284 23.7292C19.1864 23.7292 17.5313 25.3846 17.5313 27.4262H23.5313C23.5313 28.698 22.5005 29.7292 21.2284 29.7292V23.7292ZM17.5313 27.4262V29.5174H23.5313V27.4262H17.5313ZM20.5313 26.5174H14.2579V32.5174H20.5313V26.5174ZM14.2579 26.5174C15.5304 26.5174 16.5608 27.5478 16.5608 28.8203H10.5608C10.5608 30.8615 12.2167 32.5174 14.2579 32.5174V26.5174ZM16.5608 28.8203V25.2854H10.5608V28.8203H16.5608ZM13.9875 28.255C17.8029 27.7068 20.7431 24.4247 20.7431 20.4557H14.7431C14.7431 21.3944 14.0418 22.1856 13.1342 22.3159L13.9875 28.255ZM20.7431 20.4557C20.7431 16.4868 17.8029 13.2046 13.9875 12.6565L13.1342 18.5955C14.0418 18.7259 14.7431 19.517 14.7431 20.4557H20.7431ZM16.5608 15.626V12.0911H10.5608V15.626H16.5608ZM16.5608 12.0911C16.5608 13.3636 15.5304 14.3941 14.2579 14.3941V8.3941C12.2167 8.3941 10.5608 10.0499 10.5608 12.0911H16.5608ZM14.2579 14.3941H20.5313V8.3941H14.2579V14.3941ZM17.5313 11.3941V13.4852H23.5313V11.3941H17.5313ZM17.5313 13.4852C17.5313 15.5268 19.1864 17.1823 21.2284 17.1823V11.1823C22.5005 11.1823 23.5313 12.2135 23.5313 13.4852H17.5313ZM21.2284 17.1823C23.2704 17.1823 24.9254 15.5268 24.9254 13.4852H18.9254C18.9254 12.2135 19.9563 11.1823 21.2284 11.1823V17.1823ZM24.9254 13.4852V11.3941H18.9254V13.4852H24.9254ZM21.9254 14.3941H45.7645V8.3941H21.9254V14.3941ZM45.7645 14.3941C44.492 14.3941 43.4615 13.3637 43.4615 12.0911H49.4615C49.4615 10.0499 47.8057 8.3941 45.7645 8.3941V14.3941ZM43.4615 12.0911V15.626H49.4615V12.0911H43.4615ZM46.0349 12.6565C42.2195 13.2046 39.2792 16.4868 39.2792 20.4557H45.2792C45.2792 19.517 45.9806 18.7259 46.8881 18.5955L46.0349 12.6565Z" fill="#232323" mask="url(#path-2-inside-1_842_291)"></path><mask id="path-4-inside-2_842_291" fill="#000000"><path d="M38.7949 15.5762H26.8057C26.4207 15.5762 26.1086 15.8883 26.1086 16.2732C26.1086 16.6581 26.4207 16.9703 26.8057 16.9703H38.7949C39.1798 16.9703 39.492 16.6581 39.492 16.2732C39.492 15.8883 39.1798 15.5762 38.7949 15.5762Z"></path></mask><path d="M38.7949 15.5762H26.8057C26.4207 15.5762 26.1086 15.8883 26.1086 16.2732C26.1086 16.6581 26.4207 16.9703 26.8057 16.9703H38.7949C39.1798 16.9703 39.492 16.6581 39.492 16.2732C39.492 15.8883 39.1798 15.5762 38.7949 15.5762Z" fill="#232323"></path><path d="M38.7949 12.5762H26.8057V18.5762H38.7949V12.5762ZM26.8057 12.5762C24.7637 12.5762 23.1086 14.2316 23.1086 16.2732H29.1086C29.1086 17.545 28.0778 18.5762 26.8057 18.5762V12.5762ZM23.1086 16.2732C23.1086 18.3148 24.7637 19.9703 26.8057 19.9703V13.9703C28.0778 13.9703 29.1086 15.0015 29.1086 16.2732H23.1086ZM26.8057 19.9703H38.7949V13.9703H26.8057V19.9703ZM38.7949 19.9703C40.8367 19.9703 42.492 18.315 42.492 16.2732H36.492C36.492 15.0013 37.523 13.9703 38.7949 13.9703V19.9703ZM42.492 16.2732C42.492 14.2315 40.8367 12.5762 38.7949 12.5762V18.5762C37.523 18.5762 36.492 17.5452 36.492 16.2732H42.492Z" fill="#232323" mask="url(#path-4-inside-2_842_291)"></path><mask id="path-6-inside-3_842_291" fill="#000000"><path d="M38.7949 19.7578H26.8057C26.4207 19.7578 26.1086 20.07 26.1086 20.4549C26.1086 20.8398 26.4207 21.1519 26.8057 21.1519H38.7949C39.1798 21.1519 39.492 20.8398 39.492 20.4549C39.492 20.07 39.1798 19.7578 38.7949 19.7578Z"></path></mask><path d="M38.7949 19.7578H26.8057C26.4207 19.7578 26.1086 20.07 26.1086 20.4549C26.1086 20.8398 26.4207 21.1519 26.8057 21.1519H38.7949C39.1798 21.1519 39.492 20.8398 39.492 20.4549C39.492 20.07 39.1798 19.7578 38.7949 19.7578Z" fill="#232323"></path><path d="M38.7949 16.7578H26.8057V22.7578H38.7949V16.7578ZM26.8057 16.7578C24.7637 16.7578 23.1086 18.4133 23.1086 20.4549H29.1086C29.1086 21.7266 28.0778 22.7578 26.8057 22.7578V16.7578ZM23.1086 20.4549C23.1086 22.4964 24.7637 24.1519 26.8057 24.1519V18.1519C28.0778 18.1519 29.1086 19.1831 29.1086 20.4549H23.1086ZM26.8057 24.1519H38.7949V18.1519H26.8057V24.1519ZM38.7949 24.1519C40.8367 24.1519 42.492 22.4966 42.492 20.4549H36.492C36.492 19.1829 37.523 18.1519 38.7949 18.1519V24.1519ZM42.492 20.4549C42.492 18.4131 40.8367 16.7578 38.7949 16.7578V22.7578C37.523 22.7578 36.492 21.7268 36.492 20.4549H42.492Z" fill="#232323" mask="url(#path-6-inside-3_842_291)"></path><mask id="path-8-inside-4_842_291" fill="#000000"><path d="M38.7949 23.9414H26.8057C26.4207 23.9414 26.1086 24.2535 26.1086 24.6385C26.1086 25.0234 26.4207 25.3355 26.8057 25.3355H38.7949C39.1798 25.3355 39.492 25.0234 39.492 24.6385C39.492 24.2535 39.1798 23.9414 38.7949 23.9414Z"></path></mask><path d="M38.7949 23.9414H26.8057C26.4207 23.9414 26.1086 24.2535 26.1086 24.6385C26.1086 25.0234 26.4207 25.3355 26.8057 25.3355H38.7949C39.1798 25.3355 39.492 25.0234 39.492 24.6385C39.492 24.2535 39.1798 23.9414 38.7949 23.9414Z" fill="#232323"></path><path d="M38.7949 20.9414H26.8057V26.9414H38.7949V20.9414ZM26.8057 20.9414C24.7637 20.9414 23.1086 22.5969 23.1086 24.6385H29.1086C29.1086 25.9102 28.0778 26.9414 26.8057 26.9414V20.9414ZM23.1086 24.6385C23.1086 26.68 24.7637 28.3355 26.8057 28.3355V22.3355C28.0778 22.3355 29.1086 23.3667 29.1086 24.6385H23.1086ZM26.8057 28.3355H38.7949V22.3355H26.8057V28.3355ZM38.7949 28.3355C40.8367 28.3355 42.492 26.6802 42.492 24.6385H36.492C36.492 23.3665 37.523 22.3355 38.7949 22.3355V28.3355ZM42.492 24.6385C42.492 22.5967 40.8367 20.9414 38.7949 20.9414V26.9414C37.523 26.9414 36.492 25.9104 36.492 24.6385H42.492Z" fill="#232323" mask="url(#path-8-inside-4_842_291)"></path><path d="M21.6269 16.9703C21.5094 17.0376 21.3732 17.0762 21.2281 17.0762C21.0829 17.0762 20.9467 17.0376 20.8292 16.9703C20.9467 16.9029 21.0829 16.8644 21.2281 16.8644C21.3732 16.8644 21.5094 16.9029 21.6269 16.9703Z" fill="#232323" stroke="#232323" stroke-width="3"></path><path d="M21.6269 23.941C21.5094 24.0084 21.3732 24.0469 21.2281 24.0469C21.0829 24.0469 20.9467 24.0084 20.8292 23.941C20.9467 23.8736 21.0829 23.8351 21.2281 23.8351C21.3732 23.8351 21.5094 23.8736 21.6269 23.941Z" fill="#232323" stroke="#232323" stroke-width="3"></path><path d="M1.36838 48.96H4.34438V58H7.08038V48.96H10.0564V46.768H1.36838V48.96ZM11.4295 58H14.1655V49.072H11.4295V58ZM12.8055 48.144C13.7655 48.144 14.4215 47.488 14.4215 46.672C14.4215 45.84 13.7655 45.184 12.8055 45.184C11.8295 45.184 11.1735 45.84 11.1735 46.672C11.1735 47.488 11.8295 48.144 12.8055 48.144ZM15.6043 53.536C15.6043 56.368 17.4603 58.128 20.0843 58.128C22.3243 58.128 23.9083 56.832 24.3723 54.768H21.4603C21.2203 55.424 20.7883 55.792 20.0363 55.792C19.0603 55.792 18.3883 55.024 18.3883 53.536C18.3883 52.048 19.0603 51.28 20.0363 51.28C20.7883 51.28 21.2363 51.68 21.4603 52.304H24.3723C23.9083 50.176 22.3243 48.944 20.0843 48.944C17.4603 48.944 15.6043 50.72 15.6043 53.536ZM25.8358 58H28.5718V54.256L31.2918 58H34.6838L30.9398 53.552L34.6518 49.072H31.2758L28.5718 52.704V46.16H25.8358V58ZM39.6624 51.136C40.5744 51.136 41.3424 51.696 41.3424 52.672H37.9184C38.0784 51.68 38.7664 51.136 39.6624 51.136ZM43.9344 55.04H41.0224C40.7984 55.52 40.3664 55.904 39.5984 55.904C38.7184 55.904 37.9984 55.36 37.9024 54.192H44.0944C44.1264 53.92 44.1424 53.648 44.1424 53.392C44.1424 50.672 42.3024 48.944 39.6944 48.944C37.0384 48.944 35.1824 50.704 35.1824 53.536C35.1824 56.368 37.0704 58.128 39.6944 58.128C41.9184 58.128 43.5024 56.784 43.9344 55.04ZM46.0178 54.896C46.0178 57.216 47.3138 58 49.1698 58H50.5618V55.68H49.5858C48.9778 55.68 48.7538 55.456 48.7538 54.928V51.344H50.5458V49.072H48.7538V46.896H46.0178V49.072H44.9298V51.344H46.0178V54.896ZM59.3338 55.408C59.2858 52.08 54.4538 53.088 54.4538 51.664C54.4538 51.232 54.8058 50.976 55.4458 50.976C56.2138 50.976 56.6778 51.376 56.7578 51.984H59.2858C59.1098 50.224 57.8298 48.944 55.5258 48.944C53.1898 48.944 51.8938 50.192 51.8938 51.712C51.8938 54.992 56.7578 53.952 56.7578 55.392C56.7578 55.792 56.3898 56.112 55.6858 56.112C54.9338 56.112 54.3738 55.696 54.3098 55.072H51.6058C51.7338 56.8 53.3338 58.128 55.7178 58.128C57.9578 58.128 59.3338 56.96 59.3338 55.408Z" fill="#232323"></path></svg>