<?xml version="1.0" encoding="UTF-8" standalone="no"?>
<!-- Created with Inkscape (http://www.inkscape.org/) -->

<svg
   version="1.1"
   id="svg480"
   width="1198.3595"
   height="1211.5941"
   viewBox="0 0 1198.3595 1211.5941"
   xmlns="http://www.w3.org/2000/svg"
   xmlns:svg="http://www.w3.org/2000/svg">
  <defs
     id="defs484">
    <clipPath
       clipPathUnits="userSpaceOnUse"
       id="clipPath494">
      <path
         d="M 0,1080 H 1113.063 V 0 H 0 Z"
         id="path492" />
    </clipPath>
  </defs>
  <g
     id="g486"
     transform="matrix(1.3333333,0,0,-1.3333333,-138.97282,1323.2233)">
    <g
       id="g488">
      <g
         id="g490"
         clip-path="url(#clipPath494)">
        <g
           id="g496"
           transform="translate(431.0265,843.3379)">
          <path
             d="m 0,0 c -22.473,0 -40.679,18.414 -40.679,41.185 0,22.851 18.206,41.436 40.679,41.436 22.393,0 40.679,-18.585 40.679,-41.436 C 40.679,18.414 22.393,0 0,0 m 230.178,140.229 c -37.241,6.199 -75.881,9.015 -112.942,8.843 C 80.177,148.9 44.785,145.739 13.645,140.229 -78.093,124.022 -94.749,90.099 -94.749,27.541 v -82.622 h 216.786 v -27.54 h -216.786 -81.357 c -57.395,0 -108.273,-31.438 -129.925,-91.493 H 338.57 V 27.541 c 0,58.75 -49.562,102.883 -108.392,112.688"
             style="fill:#fdb913;fill-opacity:1;fill-rule:nonzero;stroke:none"
             id="path498" />
        </g>
        <g
           id="g500"
           transform="translate(796.632,669.2241)">
          <path
             d="M 0,0 H 184.601 C 167.859,53.315 138.098,91.493 81.358,91.493 H 0 Z"
             style="fill:#fdb913;fill-opacity:1;fill-rule:nonzero;stroke:none"
             id="path502" />
        </g>
        <g
           id="g504"
           transform="translate(124.9953,669.2241)">
          <path
             d="m 0,0 c -2.117,-5.871 -3.967,-12.001 -5.504,-18.417 -19.904,-82.574 -20.787,-134.102 0,-220.323 3.245,-13.516 7.443,-26.21 12.631,-37.835 h 177.12 v 26.97 c 0,71.555 61.91,134.67 135.429,134.67 h 216.533 c 60.275,0 108.393,49.629 108.393,110.162 V 0 Z"
             style="fill:#006a44;fill-opacity:1;fill-rule:nonzero;stroke:none"
             id="path506" />
        </g>
        <g
           id="g508"
           transform="translate(796.632,664.4512)">
          <path
             d="m 0,0 c 0,-74.633 -63.274,-137.449 -135.428,-137.449 h -216.533 c -59.312,0 -108.394,-50.763 -108.394,-110.162 v -24.191 h 636.003 c 4.991,11.547 9.581,24.22 14.103,37.835 22.634,67.907 21.671,133.211 0,220.323 -1.565,6.308 -3.278,12.456 -5.15,18.417 L 0,4.773 Z"
             style="fill:#006a44;fill-opacity:1;fill-rule:nonzero;stroke:none"
             id="path510" />
        </g>
        <g
           id="g512"
           transform="translate(132.1222,392.6494)">
          <path
             d="M 0,0 C 19.446,-43.573 52.849,-72.074 102.584,-72.074 H 177.12 V 0 Z"
             style="fill:#c1272d;fill-opacity:1;fill-rule:nonzero;stroke:none"
             id="path514" />
        </g>
        <g
           id="g516"
           transform="translate(674.8478,237.9541)">
          <path
             d="m 0,0 c 22.473,0 40.679,-18.414 40.679,-41.185 0,-22.851 -18.206,-41.436 -40.679,-41.436 -22.393,0 -40.679,18.585 -40.679,41.436 C -40.679,-18.414 -22.393,0 0,0 M -338.57,154.695 V -27.541 c 0,-58.75 51.088,-93.307 108.393,-110.161 68.622,-20.178 134.427,-23.824 216.533,0 C 40.933,-121.9 94.749,-90.1 94.749,-27.541 v 82.622 h -216.533 v 27.54 H 94.749 203.143 c 50,0 75.105,27.681 94.29,72.074 z"
             style="fill:#c1272d;fill-opacity:1;fill-rule:nonzero;stroke:none"
             id="path518" />
        </g>
        <g
           id="g520"
           transform="translate(431.0246,843.3398)">
          <path
             d="m 0,0 c -22.471,0 -40.681,18.41 -40.681,41.18 0,22.85 18.21,41.44 40.681,41.44 22.39,0 40.68,-18.59 40.68,-41.44 C 40.68,18.41 22.39,0 0,0 M 0,92.62 C -27.945,92.62 -50.68,69.544 -50.68,41.18 -50.68,12.959 -27.945,-10 0,-10 27.945,-10 50.68,12.959 50.68,41.18 50.68,69.544 27.945,92.62 0,92.62"
             style="fill:#1d1d1b;fill-opacity:1;fill-rule:nonzero;stroke:none"
             id="path522" />
        </g>
        <g
           id="g524"
           transform="translate(759.5949,664.4502)">
          <path
             d="M 0,0 C 0,-55.229 -44.138,-100.16 -98.391,-100.16 H -314.92 c -78.832,0 -145.431,-66.251 -145.431,-144.67 v -89.04 h -64.54 c -42.423,0 -73.864,22.254 -93.448,66.144 -4.848,10.857 -8.897,22.997 -12.037,36.088 -19.925,82.639 -19.925,133.023 -0.003,215.654 1.405,5.887 3.148,11.719 5.184,17.357 19.164,53.162 64.219,84.897 120.525,84.897 h 308.14 v 47.54 h -216.79 v 72.62 c 0,58.88 14.458,87.703 100.14,102.842 31.201,5.521 66.436,8.525 101.896,8.688 1.041,0.005 2.078,0.007 3.121,0.007 37.029,0 73.409,-2.931 108.13,-8.712 27.416,-4.571 52.579,-17.081 70.853,-35.224 C -10.09,255.078 0,231.702 0,206.43 Z m -98.391,319.12 c -37.24,6.2 -75.88,9.01 -112.94,8.84 -37.06,-0.17 -72.449,-3.33 -103.59,-8.84 C -406.66,302.91 -423.32,268.99 -423.32,206.43 v -82.62 h 216.79 V 96.27 h -298.141 c -57.399,0 -108.279,-31.44 -129.93,-91.5 -2.12,-5.87 -3.969,-12 -5.5,-18.41 -19.91,-82.58 -20.79,-134.1 0,-220.33 3.241,-13.51 7.441,-26.211 12.63,-37.83 19.441,-43.57 52.851,-72.07 102.58,-72.07 h 74.54 v 99.04 c 0,71.55 61.911,134.67 135.43,134.67 h 216.53 c 60.271,0 108.39,49.63 108.39,110.16 v 206.43 c 0,58.75 -49.56,102.88 -108.39,112.69"
             style="fill:#1d1d1b;fill-opacity:1;fill-rule:nonzero;stroke:none"
             id="path526" />
        </g>
        <g
           id="g528"
           transform="translate(976.8976,433.6416)">
          <path
             d="m 0,0 c -4.999,-15.051 -9.381,-26.812 -13.793,-37.025 -9.949,-23.015 -20.379,-38.577 -32.822,-48.974 -13.742,-11.481 -30.846,-17.063 -52.287,-17.063 h -334.931 v -47.549 h 216.53 v -72.62 c 0,-25.947 -9.916,-47.239 -30.313,-65.091 -16.94,-14.825 -40.78,-26.757 -70.858,-35.464 -37.424,-10.857 -72.153,-16.134 -106.176,-16.134 -34.065,0 -67.35,5.123 -104.751,16.122 -37.803,11.121 -101.222,38.976 -101.222,100.567 v 206.429 c 0,54.292 45.061,100.16 98.4,100.16 h 216.53 c 78.831,0 145.43,67.524 145.43,147.451 v 86.27 h 71.361 c 45.827,0 75.6,-26.85 93.698,-84.496 1.765,-5.623 3.442,-11.623 4.987,-17.83 C 21.575,127.152 21.639,64.934 0,0 m 9.486,217.168 c -1.569,6.311 -3.279,12.45 -5.149,18.411 -16.74,53.319 -46.5,91.5 -103.24,91.5 h -81.361 v -96.27 c 0,-74.631 -63.279,-137.451 -135.429,-137.451 h -216.531 c -59.319,0 -108.399,-50.759 -108.399,-110.16 v -206.429 c 0,-58.75 51.09,-93.3 108.399,-110.161 68.62,-20.179 134.42,-23.82 216.531,0 54.58,15.8 108.389,47.6 108.389,110.161 v 82.62 h -216.529 v 27.549 h 324.93 c 50,0 75.099,27.68 94.29,72.071 4.99,11.55 9.58,24.22 14.099,37.83 22.63,67.909 21.67,133.22 0,220.329"
             style="fill:#1d1d1b;fill-opacity:1;fill-rule:nonzero;stroke:none"
             id="path530" />
        </g>
        <g
           id="g532"
           transform="translate(674.8439,237.9502)">
          <path
             d="M 0,0 C 22.48,0 40.681,-18.41 40.681,-41.181 40.681,-64.03 22.48,-82.62 0,-82.62 c -22.39,0 -40.68,18.59 -40.68,41.439 C -40.68,-18.41 -22.39,0 0,0 m 0.001,-92.62 c 27.945,0 50.68,23.075 50.68,51.439 C 50.681,-12.96 27.946,10 0.001,10 c -27.945,0 -50.68,-22.96 -50.68,-51.181 0,-28.364 22.735,-51.439 50.68,-51.439"
             style="fill:#1d1d1b;fill-opacity:1;fill-rule:nonzero;stroke:none"
             id="path534" />
        </g>
      </g>
    </g>
  </g>
</svg>
