<svg width="96" height="76" viewBox="0 0 96 76" fill="none" xmlns="http://www.w3.org/2000/svg">
<g clip-path="url(#clip0_7085_1315)">
<path d="M0 76L96 0H0" fill="url(#paint0_linear_7085_1315)"/>
<path opacity="0.251691" fill-rule="evenodd" clip-rule="evenodd" d="M38.8764 3.14239L10.3145 20.5833V0H38.848" fill="#EAF3F9"/>
<path opacity="0.160448" fill-rule="evenodd" clip-rule="evenodd" d="M10.3148 19V0H-19.834V2.8751L10.3148 19Z" fill="#C7E6EB"/>
<path opacity="0.369461" fill-rule="evenodd" clip-rule="evenodd" d="M-3.9668 25.3334V10.2917L20.6282 24.2544L-3.9668 25.3334Z" fill="#D1EEF2"/>
<path opacity="0.369461" fill-rule="evenodd" clip-rule="evenodd" d="M0 32.4584V1.58337L26.1818 17.061L0 32.4584Z" fill="#94D2CF"/>
<path opacity="0.392432" fill-rule="evenodd" clip-rule="evenodd" d="M34.1172 -15.0416L35.7929 14.25L82.5139 0.226943L34.1172 -15.0416Z" fill="#6099D1"/>
<path d="M7.55609 38H6.13275V35.1698L3.9668 31.0017H5.54485L6.8341 33.7907L8.12336 31.0017H9.70141L7.55609 35.1698V38Z" fill="white"/>
<path d="M10.4713 38V31.0017H15.0094V32.2367H11.8946V33.873H14.3906V35.0875H11.8946V36.765H15.0094V38H10.4713Z" fill="white"/>
<path d="M15.5944 38L17.1724 31.0017H19.8747L21.4527 38H20.0294L19.7509 36.7341H17.2962L17.0177 38H15.5944ZM18.276 32.1749L17.5643 35.4991H19.4828L18.7711 32.1749H18.276Z" fill="white"/>
<path d="M23.8101 35.6535V38H22.3868V31.0017H25.1097C26.76 31.0017 27.5851 31.7701 27.5851 33.307C27.5851 34.2195 27.2413 34.8919 26.5537 35.3242L27.5541 38H25.9967L25.1819 35.6535H23.8101ZM25.1303 34.4391C25.4673 34.4391 25.7182 34.3362 25.8833 34.1303C26.0483 33.9245 26.1308 33.6535 26.1308 33.3173C26.1308 32.9811 26.0414 32.7135 25.8626 32.5145C25.6907 32.3156 25.4398 32.2161 25.1097 32.2161H23.8101V34.4391H25.1303Z" fill="white"/>
<path d="M30.9384 32.1132C30.1889 32.1132 29.8141 32.3602 29.8141 32.8542C29.8141 33.0737 29.907 33.2418 30.0926 33.3585C30.2783 33.4751 30.7114 33.6432 31.3922 33.8628C32.0798 34.0823 32.5611 34.3327 32.8361 34.614C33.1112 34.8885 33.2487 35.3139 33.2487 35.8902C33.2487 36.6244 33.0252 37.1801 32.5783 37.5575C32.1314 37.9348 31.5469 38.1235 30.8249 38.1235C30.2886 38.1235 29.6319 38.0412 28.8549 37.8765L28.4836 37.8045L28.628 36.7033C29.5494 36.8268 30.2542 36.8885 30.7424 36.8885C31.4713 36.8885 31.8357 36.5866 31.8357 35.9828C31.8357 35.7633 31.7497 35.5918 31.5778 35.4683C31.4128 35.3448 31.0793 35.211 30.5774 35.0669C29.7797 34.8405 29.2159 34.5729 28.8859 34.2641C28.5627 33.9485 28.4011 33.5128 28.4011 32.9571C28.4011 32.2573 28.6143 31.7358 29.0406 31.3928C29.4669 31.0497 30.0514 30.8782 30.794 30.8782C31.3028 30.8782 31.9491 30.9468 32.733 31.084L33.1043 31.156L32.9909 32.2778C32.0213 32.1681 31.3372 32.1132 30.9384 32.1132Z" fill="white"/>
<path d="M38.1136 36.3533C38.3198 36.7101 38.7015 36.8885 39.2584 36.8885C39.8154 36.8885 40.1936 36.7101 40.393 36.3533C40.5992 35.9897 40.7024 35.3859 40.7024 34.542C40.7024 33.6912 40.5992 33.0737 40.393 32.6895C40.1867 32.3053 39.8085 32.1132 39.2584 32.1132C38.7083 32.1132 38.3301 32.3053 38.1239 32.6895C37.9176 33.0737 37.8144 33.6912 37.8144 34.542C37.8144 35.3859 37.9141 35.9897 38.1136 36.3533ZM41.5069 37.259C41.0737 37.8353 40.3242 38.1235 39.2584 38.1235C38.1926 38.1235 37.4397 37.8353 36.9996 37.259C36.5664 36.6758 36.3498 35.7667 36.3498 34.5317C36.3498 33.2967 36.5664 32.3808 36.9996 31.7838C37.4397 31.1801 38.1926 30.8782 39.2584 30.8782C40.3242 30.8782 41.0737 31.1801 41.5069 31.7838C41.9469 32.3808 42.167 33.2967 42.167 34.5317C42.167 35.7667 41.9469 36.6758 41.5069 37.259Z" fill="white"/>
<path d="M43.3876 38V31.0017H47.8639V32.2367H44.8109V34.295H47.3069V35.53H44.8109V38H43.3876Z" fill="white"/>
<path d="M7.32918 48.4152C6.25652 48.4152 5.50359 48.127 5.0704 47.5507C4.63721 46.9743 4.42062 46.0687 4.42062 44.8337C4.42062 43.5918 4.63721 42.6724 5.0704 42.0755C5.51047 41.4717 6.26339 41.1698 7.32918 41.1698C8.39496 41.1698 9.14445 41.4717 9.57764 42.0755C10.0177 42.6724 10.2377 43.5918 10.2377 44.8337C10.2377 46.3568 9.87675 47.3826 9.15476 47.9109L10.0108 49.29L8.71126 49.8972L7.783 48.3843C7.71423 48.4049 7.56296 48.4152 7.32918 48.4152ZM6.18432 46.645C6.3906 47.0018 6.77222 47.1802 7.32918 47.1802C7.88614 47.1802 8.26432 47.0018 8.46372 46.645C8.67 46.2882 8.77314 45.6845 8.77314 44.8337C8.77314 43.9829 8.67 43.3654 8.46372 42.9812C8.25744 42.597 7.87926 42.4048 7.32918 42.4048C6.77909 42.4048 6.40091 42.597 6.19463 42.9812C5.98835 43.3654 5.88521 43.9829 5.88521 44.8337C5.88521 45.6845 5.98491 46.2882 6.18432 46.645Z" fill="white"/>
<path d="M15.9037 48.1785C15.1748 48.3363 14.5182 48.4152 13.9337 48.4152C13.3493 48.4152 12.8817 48.3431 12.531 48.199C12.1803 48.055 11.9053 47.8251 11.7059 47.5095C11.5065 47.1939 11.369 46.8234 11.2933 46.398C11.2177 45.9726 11.1799 45.4375 11.1799 44.7925C11.1799 43.4409 11.369 42.5009 11.7471 41.9726C12.1322 41.4374 12.837 41.1698 13.8615 41.1698C14.4529 41.1698 15.137 41.2625 15.914 41.4477L15.8728 42.5798C15.192 42.4769 14.6248 42.4254 14.1709 42.4254C13.724 42.4254 13.4043 42.4872 13.2117 42.6107C13.0192 42.7273 12.8748 42.9537 12.7785 43.2899C12.6892 43.6261 12.6445 44.199 12.6445 45.0086C12.6445 45.8182 12.7373 46.3809 12.9229 46.6965C13.1155 47.0052 13.4936 47.1596 14.0575 47.1596C14.6282 47.1596 15.2333 47.1116 15.8728 47.0155L15.9037 48.1785Z" fill="white"/>
<path d="M18.4524 46.645C18.6587 47.0018 19.0403 47.1802 19.5973 47.1802C20.1542 47.1802 20.5324 47.0018 20.7318 46.645C20.9381 46.2814 21.0412 45.6776 21.0412 44.8337C21.0412 43.9829 20.9381 43.3654 20.7318 42.9812C20.5255 42.597 20.1473 42.4048 19.5973 42.4048C19.0472 42.4048 18.669 42.597 18.4627 42.9812C18.2564 43.3654 18.1533 43.9829 18.1533 44.8337C18.1533 45.6776 18.253 46.2814 18.4524 46.645ZM21.8457 47.5507C21.4125 48.127 20.663 48.4152 19.5973 48.4152C18.5315 48.4152 17.7785 48.127 17.3385 47.5507C16.9053 46.9675 16.6887 46.0584 16.6887 44.8234C16.6887 43.5884 16.9053 42.6724 17.3385 42.0755C17.7785 41.4717 18.5315 41.1698 19.5973 41.1698C20.663 41.1698 21.4125 41.4717 21.8457 42.0755C22.2858 42.6724 22.5058 43.5884 22.5058 44.8234C22.5058 46.0584 22.2858 46.9675 21.8457 47.5507Z" fill="white"/>
<path d="M23.7264 48.2917V41.2933H26.1296L27.8211 47.0567H27.9242V41.2933H29.3476V48.2917H27.0063L25.2529 42.5283H25.1498V48.2917H23.7264Z" fill="white"/>
<path d="M17.2435 26.1251H4.33984V22.6053L8.59082 18.3034C10.0983 16.7591 11.1434 15.5758 11.7263 14.7536C12.3293 13.9313 12.6308 13.0589 12.6308 12.1363C12.6308 11.1937 12.3795 10.5319 11.877 10.1508C11.3947 9.76975 10.7012 9.57923 9.79677 9.57923C8.45012 9.57923 6.98289 9.69956 5.39505 9.94022L4.67148 10.0305L4.46044 6.81156C6.43016 6.20989 8.47022 5.90906 10.5806 5.90906C14.8015 5.90906 16.9119 7.80431 16.9119 11.5948C16.9119 13.0789 16.5903 14.3625 15.9471 15.4455C15.3039 16.5285 14.1382 17.8421 12.4499 19.3864L8.98275 22.5151H17.2435V26.1251Z" fill="white"/>
<path d="M21.9036 8.37589C23.2101 6.73134 25.1396 5.90906 27.6922 5.90906C30.2448 5.90906 32.1642 6.73134 33.4506 8.37589C34.757 10.0204 35.4103 12.6678 35.4103 16.3179C35.4103 19.9479 34.7671 22.5552 33.4807 24.1396C32.1944 25.7039 30.2649 26.4861 27.6922 26.4861C25.1195 26.4861 23.19 25.7039 21.9036 24.1396C20.6173 22.5552 19.9741 19.9479 19.9741 16.3179C19.9741 12.6678 20.6173 10.0204 21.9036 8.37589ZM31.1291 16.2276C31.1291 13.7408 30.8678 12.0059 30.3453 11.0232C29.8227 10.0204 28.9383 9.51906 27.6922 9.51906C26.4661 9.51906 25.5818 10.0204 25.0391 11.0232C24.5165 12.026 24.2552 13.7608 24.2552 16.2276C24.2552 18.6945 24.5266 20.4193 25.0692 21.402C25.6119 22.3847 26.4963 22.8761 27.7223 22.8761C28.9484 22.8761 29.8227 22.3847 30.3453 21.402C30.8678 20.4193 31.1291 18.6945 31.1291 16.2276Z" fill="white"/>
</g>
<defs>
<linearGradient id="paint0_linear_7085_1315" x1="40.2581" y1="4.76782e-07" x2="0.311319" y2="72.0645" gradientUnits="userSpaceOnUse">
<stop stop-color="#3B82F6"/>
<stop offset="1" stop-color="#4ADE80"/>
</linearGradient>
<clipPath id="clip0_7085_1315">
<rect width="96" height="76" fill="white"/>
</clipPath>
</defs>
</svg>
