<svg width="713" height="122" viewBox="0 0 713 122" fill="none" xmlns="http://www.w3.org/2000/svg">
<g>
<path d="M144.845 75.6282H148.445V43.228H144.845V31.4199H177.894C184.085 31.4199 188.812 32.6929 192.078 35.2366C195.341 37.781 196.973 41.9089 196.973 47.6204C196.973 50.8364 196.325 53.6211 195.029 55.9722C193.733 58.3247 191.885 59.9573 189.486 60.8684L189.557 61.5884C194.165 62.3083 196.469 65.1414 196.469 70.0845V75.6282H199.853V87.4363H177.029V70.5166C177.029 68.6445 176.752 67.2288 176.201 66.2686C175.649 65.3084 174.785 64.6609 173.61 64.324C172.433 63.9893 170.766 63.8201 168.605 63.8201V75.6282H173.357V87.4363H144.845V75.6282ZM172.493 55.0361C173.885 55.0361 174.929 54.6648 175.625 53.9199C176.32 53.1765 176.669 52.012 176.669 50.4285V47.8364C176.669 46.2522 176.32 45.0891 175.625 44.3442C174.929 43.6008 173.885 43.228 172.493 43.228H168.605V55.0361H172.493Z" fill="#091130"/>
<path d="M247.661 75.6282V87.4363H227.933V81.8201C224.477 86.2373 220.156 88.4441 214.972 88.4441C210.988 88.4441 208 87.1968 206.009 84.7C204.016 82.2053 203.021 78.7725 203.021 74.4043V59.2124H199.853V47.4043H219.581V71.0205C219.581 72.604 219.929 73.7686 220.625 74.512C221.32 75.2568 222.364 75.6282 223.757 75.6282C225.149 75.6282 226.192 75.2568 226.889 74.512C227.584 73.7686 227.933 72.604 227.933 71.0205V59.2124H224.045V47.4043H244.493V75.6282H247.661Z" fill="#091130"/>
<path d="M250.661 85.5642V74.9082H262.326V75.6282C262.326 77.9324 263.789 79.0845 266.717 79.0845C269.309 79.0845 270.606 78.1968 270.606 76.4199C270.606 75.4605 270.233 74.7405 269.489 74.26C268.745 73.781 267.437 73.3723 265.565 73.0361L261.965 72.3879C254.429 71.0447 250.661 66.7725 250.661 59.572C250.661 55.3965 252.245 52.1562 255.414 49.8521C258.582 47.5486 262.853 46.3965 268.23 46.3965C274.229 46.3965 279.293 47.4043 283.422 49.4199V59.4285H272.478V58.7085C272.478 57.7483 272.153 57.0166 271.505 56.512C270.858 56.0081 269.909 55.7561 268.661 55.7561C266.261 55.7561 265.061 56.5244 265.061 58.0603C265.061 58.877 265.397 59.5002 266.07 59.9324C266.741 60.3645 267.965 60.7725 269.741 61.1562L273.845 61.948C278.117 62.7654 281.165 64.2771 282.989 66.4846C284.813 68.6929 285.726 71.5244 285.726 74.98C285.726 79.3489 284.201 82.6843 281.153 84.9885C278.105 87.292 273.773 88.4441 268.157 88.4441C262.11 88.4441 256.277 87.4839 250.661 85.5642Z" fill="#091130"/>
<path d="M293.531 84.7366C290.963 82.2647 289.679 78.1008 289.679 72.2444V59.2124H286.511V47.4043C288.335 47.4043 289.703 46.9363 290.615 46.0002C291.527 45.0642 291.984 43.781 291.984 42.1484V38.9082H307.247V47.4043H316.967V59.2124H307.247V71.0205C307.247 72.604 307.595 73.7686 308.291 74.512C308.987 75.2568 310.031 75.6282 311.424 75.6282C313.247 75.6282 315.24 75.4121 317.399 74.98V86.2842C316.055 86.813 314.243 87.3044 311.963 87.76C309.683 88.2156 307.367 88.4441 305.016 88.4441C299.927 88.4441 296.098 87.2092 293.531 84.7366Z" fill="#091130"/>
<path d="M327.263 81.5322C322.343 76.9246 319.883 69.5564 319.883 59.4285C319.883 40.0852 329.29 30.4121 348.107 30.4121C352.667 30.4121 356.903 30.9644 360.815 32.0681C364.727 33.1733 367.643 34.3972 369.563 35.7405V53.7405H352.283V48.5564C352.283 46.7327 351.875 45.3879 351.059 44.5244C350.243 43.6602 349.019 43.228 347.387 43.228C345.755 43.228 344.531 43.6602 343.715 44.5244C342.899 45.3879 342.491 46.7327 342.491 48.5564V70.3005C342.491 72.125 342.899 73.4683 343.715 74.3325C344.531 75.196 345.755 75.6282 347.387 75.6282C349.019 75.6282 350.243 75.196 351.059 74.3325C351.875 73.4683 352.283 72.125 352.283 70.3005V64.4683H369.563V83.1165C367.594 84.4605 364.679 85.6843 360.815 86.7881C356.951 87.8918 352.762 88.4441 348.251 88.4441C339.179 88.4441 332.183 86.1406 327.263 81.5322Z" fill="#091130"/>
<path d="M466.918 75.6282V87.4363H444.166V75.6282H447.19V63.8201C447.19 62.2366 446.854 61.0728 446.183 60.3286C445.51 59.5845 444.502 59.2124 443.158 59.2124C440.279 59.2124 438.839 60.749 438.839 63.8201V75.6282H441.863V87.4363H419.11V75.6282H422.279V59.2124H419.11V47.4043H438.839V53.0205C442.294 48.6047 446.615 46.3965 451.798 46.3965C455.782 46.3965 458.77 47.6453 460.762 50.1406C462.754 52.6367 463.75 56.0688 463.75 60.4363V75.6282H466.918Z" fill="#091130"/>
<path d="M469.918 75.6282H473.087V59.2124H469.918V47.4043H473.23C473.23 41.5486 474.658 37.2522 477.515 34.5166C480.37 31.7803 484.534 30.4121 490.006 30.4121C492.646 30.4121 495.01 30.6047 497.098 30.9885C499.187 31.373 500.71 31.8052 501.671 32.2842V43.5884C499.126 43.3489 496.775 43.228 494.615 43.228C492.743 43.228 491.446 43.5408 490.726 44.1641C490.006 44.7888 489.647 45.8684 489.647 47.4043H495.262V59.2124H489.647V75.6282H495.262V87.4363H469.918V75.6282Z" fill="#091130"/>
<path d="M517.58 81.2415C517.58 77.1138 518.192 73.4653 519.416 70.2974C520.64 67.1294 522.644 64.1414 525.428 61.3333C528.211 58.5254 532.052 55.6094 536.948 52.5854C538.388 51.6741 539.407 50.8933 540.008 50.2454C540.608 49.5974 540.908 48.8176 540.908 47.9053C540.908 45.9377 539.492 44.9534 536.66 44.9534C534.547 44.9534 532.124 45.5056 529.388 46.6094C526.652 47.7141 524.179 49.1057 521.972 50.7854L517.724 35.4495C520.795 33.9138 524.323 32.6055 528.308 31.5254C532.292 30.4453 536.3 29.9053 540.332 29.9053C546.956 29.9053 552.092 31.3701 555.74 34.2974C559.387 37.2258 561.212 41.3782 561.212 46.7534C561.212 49.6333 560.575 52.1658 559.304 54.3494C558.032 56.5342 556.496 58.3701 554.696 59.8574C552.896 61.3457 550.556 63.05 547.676 64.9692C544.46 67.082 542.096 68.8933 540.584 70.4053C539.072 71.9172 538.316 73.6577 538.316 75.6252H547.028V71.5212H561.788V87.4333H517.58V81.2415Z" fill="#091130"/>
<path d="M571.039 81.5293C566.647 76.9214 564.451 69.5537 564.451 59.4253C564.451 49.2981 566.647 41.9294 571.039 37.3213C575.431 32.7134 581.683 30.4094 589.795 30.4094C597.906 30.4094 604.159 32.7134 608.551 37.3213C612.943 41.9294 615.139 49.2981 615.139 59.4253C615.139 68.7854 613.11 75.9617 609.055 80.9534C604.998 85.946 598.579 88.4414 589.795 88.4414C581.683 88.4414 575.431 86.1375 571.039 81.5293ZM594.691 70.2974V48.5535C594.691 45.0017 593.059 43.2253 589.795 43.2253C586.53 43.2253 584.899 45.0017 584.899 48.5535V70.2974C584.899 73.8501 586.53 75.6252 589.795 75.6252C593.059 75.6252 594.691 73.8501 594.691 70.2974Z" fill="#091130"/>
<path d="M617.01 81.2415C617.01 77.1138 617.623 73.4653 618.847 70.2974C620.07 67.1294 622.074 64.1414 624.858 61.3333C627.642 58.5254 631.482 55.6094 636.378 52.5854C637.818 51.6741 638.838 50.8933 639.438 50.2454C640.038 49.5974 640.338 48.8176 640.338 47.9053C640.338 45.9377 638.922 44.9534 636.09 44.9534C633.978 44.9534 631.555 45.5056 628.818 46.6094C626.083 47.7141 623.61 49.1057 621.402 50.7854L617.154 35.4495C620.226 33.9138 623.754 32.6055 627.738 31.5254C631.722 30.4453 635.73 29.9053 639.763 29.9053C646.387 29.9053 651.522 31.3701 655.17 34.2974C658.818 37.2258 660.643 41.3782 660.643 46.7534C660.643 49.6333 660.006 52.1658 658.734 54.3494C657.462 56.5342 655.926 58.3701 654.126 59.8574C652.327 61.3457 649.986 63.05 647.106 64.9692C643.89 67.082 641.526 68.8933 640.015 70.4053C638.502 71.9172 637.747 73.6577 637.747 75.6252H646.458V71.5212H661.218V87.4333H617.01V81.2415Z" fill="#091130"/>
<path d="M707.694 56.6895C710.693 59.7617 712.194 64.0334 712.194 69.5054C712.194 75.6018 710.189 80.2817 706.182 83.5454C702.174 86.8101 696.521 88.4414 689.226 88.4414C680.777 88.4414 674.49 86.1497 670.362 81.5654C666.233 76.9822 664.17 69.9622 664.17 60.5054C664.17 50.1374 666.605 42.53 671.478 37.6814C676.349 32.8337 683.058 30.4094 691.602 30.4094C695.105 30.4094 698.37 30.7097 701.394 31.3093C704.418 31.9102 706.841 32.6897 708.666 33.6494V48.1934C706.841 47.3777 704.753 46.7173 702.402 46.2134C700.05 45.7092 697.553 45.4573 694.914 45.4573C688.049 45.4573 684.618 48.0022 684.618 53.0894V53.9534C686.105 53.4258 687.786 52.9814 689.658 52.6213C691.53 52.2615 693.377 52.0813 695.202 52.0813C700.53 52.0813 704.694 53.6182 707.694 56.6895ZM693.186 74.1494C694.001 73.166 694.41 71.6182 694.41 69.5054C694.41 67.5862 693.989 66.0854 693.15 65.0054C692.31 63.9253 691.026 63.3853 689.298 63.3853C687.666 63.3853 686.105 63.698 684.618 64.3213V70.0813C684.618 72.0017 685.025 73.4058 685.842 74.2935C686.658 75.1821 687.882 75.6252 689.514 75.6252C691.146 75.6252 692.369 75.1338 693.186 74.1494Z" fill="#091130"/>
<path d="M379.079 83.0774C375.239 79.5022 373.319 74.282 373.319 67.4172C373.319 60.5537 375.239 55.3337 379.079 51.7573C382.919 48.1821 388.247 46.3933 395.063 46.3933C401.975 46.3933 407.327 48.2058 411.119 51.8293C414.911 55.4541 416.807 60.6494 416.807 67.4172C416.807 74.282 414.887 79.5022 411.047 83.0774C407.207 86.6538 401.878 88.4414 395.063 88.4414C388.247 88.4414 382.919 86.6538 379.079 83.0774ZM398.195 74.5093C398.891 73.7656 399.239 72.6013 399.239 71.0173V63.8174C399.239 62.2334 398.891 61.0701 398.195 60.3254C397.499 59.5818 396.455 59.2092 395.063 59.2092C393.67 59.2092 392.626 59.5818 391.931 60.3254C391.235 61.0701 390.887 62.2334 390.887 63.8174V71.0173C390.887 72.6013 391.235 73.7656 391.931 74.5093C392.626 75.2542 393.67 75.6252 395.063 75.6252C396.455 75.6252 397.499 75.2542 398.195 74.5093Z" fill="#091130"/>
<path d="M59.7212 11.5843C57.6392 11.9323 56.4463 13.8793 56.7718 15.7228C57.1231 17.7131 58.9695 19.005 60.9803 18.6416C62.8169 18.3096 64.1479 16.5179 63.8577 14.5998C63.5698 12.6965 61.8183 11.2339 59.7212 11.5843ZM99.4682 65.0173C99.4674 64.6488 99.7653 64.2801 100.122 64.2794L104.653 64.27C104.839 61.6848 104.814 59.1754 104.558 56.5948L96.627 53.0785C94.8917 52.4027 93.9297 50.4438 94.714 48.671L98.9668 39.0583C92.572 27.7917 81.4482 19.8481 68.6548 17.4571L62.4351 23.3846C61.0839 24.617 59.1011 24.5728 57.8238 23.2631L52.2443 17.447C42.7688 19.2967 34.1751 24.016 27.5348 31.4013L74.7281 31.4962C79.5657 31.5059 83.9965 34.043 87.2819 37.2647C89.8379 40.1063 91.2476 43.4797 90.8892 47.2675C90.4055 52.3785 85.9689 56.1785 81.9124 58.828L84.5362 61.0504C87.1954 63.3027 88.3651 67.0976 88.9736 70.4289C89.4696 73.1429 92.9885 73.6943 95.3469 73.1778C99.6916 72.2267 99.4752 68.2523 99.4682 65.0173ZM16.7302 44.1701C14.6319 44.5699 13.4411 46.5774 13.8995 48.5216C14.3356 50.3711 16.1656 51.6092 18.1395 51.1974C19.9882 50.8118 21.3143 48.9619 20.904 46.9701C20.5343 45.1757 18.7774 43.7801 16.7302 44.1701ZM102.545 44.173C100.443 44.5835 99.2674 46.5909 99.7291 48.5301C100.17 50.3814 102.003 51.6051 103.961 51.1986C105.826 50.8111 107.14 48.9473 106.731 46.9691C106.358 45.1637 104.585 43.7743 102.545 44.173ZM17.9096 73.1175L30.5451 73.1043L30.5404 44.8372L24.3105 44.8512L25.9744 48.6697C26.4719 50.1584 25.8951 51.9941 24.3585 52.6832L16.4564 56.2277C15.8582 61.9175 16.3043 67.5924 17.9096 73.1175ZM70.8166 49.9137C71.0894 46.7695 67.4911 45.1625 65.3352 45.1608L50.4644 45.1487L50.4585 53.4724L64.6633 53.4634C66.9187 53.4618 70.5903 52.5225 70.8166 49.9137ZM80.6383 92.6895C81.0249 90.9195 82.9113 90.0579 84.4928 90.3954L92.0854 92.0154C93.5431 90.4851 94.8018 89.1116 96.1085 87.2939L77.5772 87.2702C76.2244 87.2294 75.3654 86.6536 74.8516 86.2636C72.5465 84.5146 71.1336 81.968 70.5398 79.1422L69.1453 72.5063C68.3082 68.5227 66.3883 65.7884 62.0389 65.4658L50.4766 65.4641L50.451 73.5626L61.7201 73.5911L61.7194 87.2735L24.91 87.2864C26.0318 88.9147 27.2528 90.2688 28.6535 91.8058L36.1058 90.2219C37.9289 89.8344 39.6376 90.9637 40.0303 92.7859L41.8365 101.167C53.5678 106.602 67.023 106.647 78.7502 101.335L80.6383 92.6895ZM33.1059 94.839C31.0003 95.1662 29.7835 97.107 30.1198 99.02C30.4525 100.912 32.2645 102.19 34.1063 101.938C36.1253 101.662 37.4702 99.858 37.2037 97.8856C36.9495 96.0047 35.1948 94.5143 33.1059 94.839ZM86.3374 95.0099C84.263 95.367 83.1055 97.3307 83.4134 99.1167C83.7647 101.155 85.6344 102.42 87.6093 102.065C89.4906 101.728 90.8037 99.9131 90.4997 97.9943C90.198 96.0909 88.4255 94.6503 86.3374 95.0099ZM62.1423 2.00581L65.1136 6.7809L66.6082 6.9341L70.6533 2.59697C71.0327 2.19007 71.6942 1.9705 72.2468 2.04813C72.6519 2.10511 73.3253 2.49358 73.5101 2.98305L75.702 8.79285L77.0756 9.1861L82.1463 5.55527C82.5553 5.26251 83.3615 5.34269 83.7758 5.55084C84.1723 5.75044 84.6068 6.29724 84.6904 6.81178L85.6642 12.8045L86.9009 13.4533L92.4608 10.9198C93.0161 10.6668 93.7802 10.8149 94.2187 11.1631C94.6804 11.5297 94.8994 12.1686 94.8744 12.8249L94.6527 18.6303L95.7608 19.5214L101.711 18.119C102.202 18.0032 102.894 18.2519 103.223 18.5467C103.514 18.8065 103.884 19.5308 103.776 19.9931L102.352 26.0957L103.239 27.2084L109.221 26.9898C109.789 26.969 110.404 27.2722 110.707 27.6535C111.003 28.0269 111.213 28.8049 110.998 29.2773L108.414 34.968L109.062 36.202L115.056 37.1756C115.568 37.2589 116.119 37.6974 116.313 38.0882C116.561 38.59 116.581 39.3539 116.238 39.8313L112.676 44.7899L113.061 46.1688L118.653 48.2561C119.153 48.4426 119.625 48.9425 119.748 49.3381C119.923 49.8977 119.787 50.7248 119.357 51.1269L114.933 55.2602L115.083 56.7552L120.167 59.8991C120.651 60.1985 120.982 60.8523 120.982 61.3731C120.982 61.8937 120.652 62.5479 120.168 62.8473L115.084 65.9921L114.933 67.4907L119.267 71.533C119.728 71.9636 119.919 72.6278 119.783 73.2925C119.696 73.7238 119.203 74.2849 118.648 74.492L113.07 76.5761L112.673 77.9592L116.167 82.8094C116.519 83.2989 116.589 84.0006 116.367 84.5475C116.154 85.072 115.553 85.4975 114.913 85.6007L109.063 86.5433L108.412 87.7807L110.947 93.3429C111.172 93.8368 111.069 94.5583 110.782 94.9928C110.484 95.4436 109.85 95.781 109.219 95.7578L103.239 95.5379L102.347 96.6525L103.746 102.593C103.863 103.087 103.623 103.775 103.315 104.109C102.978 104.474 102.267 104.758 101.709 104.627L95.7579 103.226L94.6546 104.116L94.8766 110.099C94.8999 110.725 94.5563 111.367 94.1175 111.66C93.6095 111.998 92.8989 112.033 92.334 111.775L86.9018 109.292L85.6642 109.944L84.6904 115.935C84.6071 116.447 84.1709 116.999 83.7797 117.194C83.2861 117.44 82.5066 117.46 82.0443 117.128L77.0691 113.552L75.6961 113.947L73.6111 119.531C73.4074 120.076 72.848 120.578 72.3955 120.671C71.7904 120.795 71.0769 120.607 70.6502 120.149L66.6043 115.811L65.1129 115.967L62.1126 120.779L61.8115 121.204C61.1612 122.121 59.7987 122.119 59.1509 121.2L58.8537 120.779L55.8756 115.968L54.3818 115.811L50.3345 120.147C49.9389 120.571 49.3319 120.768 48.7279 120.7C48.2874 120.65 47.6292 120.195 47.4247 119.649L45.2885 113.953L43.9093 113.555L39.0505 117.053C38.5624 117.404 37.861 117.466 37.3173 117.247C36.7891 117.034 36.3703 116.435 36.2666 115.792L35.3238 109.944L34.0866 109.294L28.5253 111.828C28.0318 112.053 27.3084 111.951 26.8728 111.663C26.4271 111.367 26.0865 110.726 26.1096 110.099L26.3293 104.121L25.2323 103.225L19.2775 104.628C18.7832 104.745 18.0962 104.506 17.7574 104.195C17.396 103.863 17.1103 103.145 17.2408 102.59L18.6423 96.6346L17.7453 95.5367L11.7691 95.7585C11.1355 95.7821 10.5027 95.4461 10.2066 94.9973C9.87115 94.4887 9.83498 93.7798 10.0936 93.2138L12.5754 87.7819L11.9235 86.5455L5.93203 85.573C5.41851 85.4896 4.86336 85.051 4.67382 84.6627C4.42695 84.1572 4.40904 83.3893 4.74565 82.9208L8.31693 77.9499L7.92044 76.5773L2.33618 74.4917C1.78837 74.287 1.28951 73.724 1.19977 73.2915C1.06227 72.6294 1.2612 71.9606 1.72012 71.5325L6.05794 67.4856L5.9003 65.9925L1.11174 63.0069L0.678066 62.6972C-0.221196 62.0554 -0.226996 60.7209 0.666632 60.0714L1.11174 59.748L5.9003 56.7547L6.05777 55.2626L1.71722 51.2137C1.27382 50.8002 1.05732 50.0823 1.19687 49.4676C1.2873 49.0694 1.72388 48.4907 2.21437 48.3068L7.9218 46.1665L8.31215 44.7932L4.74394 39.8253C4.40512 39.3534 4.42849 38.5857 4.67433 38.0846C4.86609 37.6939 5.41936 37.2592 5.93271 37.1756L11.9234 36.2011L12.5746 34.9632L10.0934 29.533C9.83515 28.9676 9.86893 28.2595 10.2078 27.749C10.4968 27.3136 11.1449 26.9661 11.7683 26.9891L17.7463 27.2102L18.6418 26.1134L17.2408 20.1567C17.1101 19.6016 17.3959 18.8864 17.7586 18.5525C18.0942 18.2435 18.7834 18.0032 19.2763 18.1193L25.2326 19.5226L26.3313 18.6271L26.1094 12.6473C26.0862 12.0222 26.4286 11.378 26.8725 11.0846C27.3098 10.7958 28.0307 10.6937 28.525 10.9191L34.085 13.4533L35.3236 12.8012L36.2666 6.95526C36.3706 6.31054 36.7927 5.71086 37.318 5.49965C37.8718 5.27684 38.5656 5.34509 39.0599 5.70097L43.9088 9.19224L45.2906 8.79489L47.3747 3.21865C47.5818 2.66436 48.1421 2.16943 48.578 2.07901C49.2339 1.94303 49.9053 2.13991 50.3349 2.60038L54.3809 6.93717L55.8761 6.77868L58.8834 2.00581L59.1963 1.57077C59.8386 0.677821 61.1654 0.672021 61.8154 1.55952L62.1423 2.00581Z" fill="#F74C00"/>
</g>
<defs>
<clipPath id="clip0_588_36180">

</clipPath>
</defs>
</svg>
